<svg width="140" height="27" viewBox="0 0 140 27" fill="none" xmlns="http://www.w3.org/2000/svg">
<path d="M20.845 0.363806L2.97785 2.54691C1.33323 2.74786 0.162902 4.244 0.363852 5.88862L1.45541 14.8222C1.65636 16.4668 3.15249 17.6371 4.79711 17.4362L22.6642 15.2531C24.3089 15.0521 25.4792 13.556 25.2782 11.9114L24.1867 2.97781C23.9857 1.33319 22.4896 0.162857 20.845 0.363806Z" fill="#FDC73D"/>
<path d="M24.8447 11.4282L9.70339 9.39857C8.06122 9.17845 6.55153 10.3312 6.3314 11.9734L5.3618 19.2067C5.14167 20.8489 6.29446 22.3586 7.93663 22.5787L23.0779 24.6083C24.7201 24.8285 26.2298 23.6757 26.4499 22.0335L27.4195 14.8002C27.6396 13.158 26.4868 11.6483 24.8447 11.4282Z" fill="#2A59FF"/>
<path d="M52.275 16.8C52.4917 17.2833 52.5 17.7583 52.3 18.225C52.1 18.675 51.7833 19.0917 51.35 19.475C50.9167 19.8583 50.4167 20.1917 49.85 20.475C49.3 20.7583 48.775 20.9583 48.275 21.075C47.725 21.1917 47.1417 21.2417 46.525 21.225C45.925 21.225 45.3167 21.15 44.7 21C44.1 20.8667 43.5083 20.6667 42.925 20.4C42.3583 20.1167 41.8333 19.775 41.35 19.375C40.7667 18.8917 40.3083 18.3167 39.975 17.65C39.6583 16.9667 39.425 16.2417 39.275 15.475C39.125 14.7083 39.0417 13.9417 39.025 13.175C39.025 12.3917 39.05 11.6583 39.1 10.975C39.15 10.3583 39.275 9.71666 39.475 9.05C39.675 8.38333 39.95 7.73333 40.3 7.09999C40.6667 6.45 41.1 5.85 41.6 5.3C42.1167 4.75 42.7167 4.28333 43.4 3.9C43.9167 3.6 44.4917 3.4 45.125 3.3C45.775 3.18333 46.425 3.15833 47.075 3.225C47.7417 3.275 48.3667 3.41666 48.95 3.65C49.55 3.86666 50.0583 4.16666 50.475 4.54999C50.7417 4.78333 51.0167 5.10833 51.3 5.525C51.6 5.94166 51.8167 6.36666 51.95 6.8C52.0833 7.23333 52.0833 7.64166 51.95 8.02499C51.8333 8.39166 51.5 8.64166 50.95 8.775C50.7167 8.84166 50.5083 8.85833 50.325 8.825C50.1417 8.775 49.975 8.7 49.825 8.6C49.675 8.48333 49.5333 8.35 49.4 8.2C49.2667 8.05 49.1417 7.9 49.025 7.75C48.625 7.26666 48.1583 6.94166 47.625 6.775C47.0917 6.59166 46.5583 6.55 46.025 6.65C45.5083 6.73333 45.0167 6.95 44.55 7.29999C44.1 7.63333 43.75 8.06666 43.5 8.6C43.2333 9.16666 43.0167 9.79166 42.85 10.475C42.7 11.1417 42.6167 11.825 42.6 12.525C42.5833 13.2083 42.6417 13.875 42.775 14.525C42.925 15.175 43.175 15.75 43.525 16.25C43.7917 16.65 44.1167 16.975 44.5 17.225C44.9 17.475 45.325 17.65 45.775 17.75C46.225 17.85 46.675 17.8667 47.125 17.8C47.5917 17.7333 48.0417 17.5833 48.475 17.35C48.6083 17.2833 48.75 17.1917 48.9 17.075C49.0667 16.9417 49.2333 16.8083 49.4 16.675C49.5667 16.5417 49.7333 16.4167 49.9 16.3C50.0833 16.1833 50.275 16.1 50.475 16.05C50.775 15.95 51.1 15.9583 51.45 16.075C51.8167 16.1917 52.0917 16.4333 52.275 16.8Z" fill="black"/>
<path d="M57.6791 9.7C58.2291 9.43333 58.8041 9.24166 59.4041 9.125C60.0041 9.00833 60.5958 8.98333 61.1791 9.05C61.7791 9.11666 62.3541 9.275 62.9041 9.525C63.4708 9.775 63.9874 10.125 64.4541 10.575C64.8374 10.9583 65.1708 11.425 65.4541 11.975C65.7374 12.5083 65.9458 13.0333 66.0791 13.55C66.3624 14.4667 66.4041 15.3917 66.2041 16.325C66.0041 17.2583 65.6624 18.125 65.1791 18.925C64.9458 19.2917 64.6541 19.625 64.3041 19.925C63.9708 20.2083 63.6124 20.4417 63.2291 20.625C62.7291 20.8583 62.1874 21.0167 61.6041 21.1C61.0208 21.2 60.4541 21.225 59.9041 21.175C58.9041 21.125 58.0208 20.875 57.2541 20.425C56.5041 19.975 55.8958 19.4 55.4291 18.7C54.9791 18 54.6791 17.2083 54.5291 16.325C54.3958 15.425 54.4541 14.5083 54.7041 13.575C54.9708 12.575 55.3541 11.7667 55.8541 11.15C56.3708 10.5167 56.9791 10.0333 57.6791 9.7ZM58.4291 13.05C58.1791 13.2833 57.9874 13.575 57.8541 13.925C57.7208 14.275 57.6374 14.6417 57.6041 15.025C57.5708 15.3917 57.5958 15.7667 57.6791 16.15C57.7791 16.5167 57.9291 16.85 58.1291 17.15C58.2958 17.4 58.5958 17.6083 59.0291 17.775C59.4624 17.9417 59.9124 18.0417 60.3791 18.075C60.9124 18.1083 61.3791 17.9667 61.7791 17.65C62.1791 17.3167 62.4791 16.9083 62.6791 16.425C62.8958 15.9417 62.9958 15.4167 62.9791 14.85C62.9624 14.2833 62.8124 13.7667 62.5291 13.3C62.3291 12.9667 62.0458 12.725 61.6791 12.575C61.3291 12.4083 60.9541 12.325 60.5541 12.325C60.1708 12.3083 59.7874 12.3667 59.4041 12.5C59.0208 12.6167 58.6958 12.8 58.4291 13.05Z" fill="black"/>
<path d="M71.5463 9.7C72.0963 9.43333 72.6713 9.24166 73.2713 9.125C73.8713 9.00833 74.463 8.98333 75.0463 9.05C75.6463 9.11666 76.2213 9.275 76.7713 9.525C77.338 9.775 77.8546 10.125 78.3213 10.575C78.7046 10.9583 79.038 11.425 79.3213 11.975C79.6046 12.5083 79.813 13.0333 79.9463 13.55C80.2296 14.4667 80.2713 15.3917 80.0713 16.325C79.8713 17.2583 79.5296 18.125 79.0463 18.925C78.813 19.2917 78.5213 19.625 78.1713 19.925C77.838 20.2083 77.4796 20.4417 77.0963 20.625C76.5963 20.8583 76.0546 21.0167 75.4713 21.1C74.888 21.2 74.3213 21.225 73.7713 21.175C72.7713 21.125 71.888 20.875 71.1213 20.425C70.3713 19.975 69.763 19.4 69.2963 18.7C68.8463 18 68.5463 17.2083 68.3963 16.325C68.263 15.425 68.3213 14.5083 68.5713 13.575C68.838 12.575 69.2213 11.7667 69.7213 11.15C70.238 10.5167 70.8463 10.0333 71.5463 9.7ZM72.2963 13.05C72.0463 13.2833 71.8546 13.575 71.7213 13.925C71.588 14.275 71.5046 14.6417 71.4713 15.025C71.438 15.3917 71.463 15.7667 71.5463 16.15C71.6463 16.5167 71.7963 16.85 71.9963 17.15C72.163 17.4 72.463 17.6083 72.8963 17.775C73.3296 17.9417 73.7796 18.0417 74.2463 18.075C74.7796 18.1083 75.2463 17.9667 75.6463 17.65C76.0463 17.3167 76.3463 16.9083 76.5463 16.425C76.763 15.9417 76.863 15.4167 76.8463 14.85C76.8296 14.2833 76.6796 13.7667 76.3963 13.3C76.1963 12.9667 75.913 12.725 75.5463 12.575C75.1963 12.4083 74.8213 12.325 74.4213 12.325C74.038 12.3083 73.6546 12.3667 73.2713 12.5C72.888 12.6167 72.563 12.8 72.2963 13.05Z" fill="black"/>
<path d="M92.5635 16.275C92.5635 16.8083 92.5468 17.3833 92.5135 18C92.4968 18.6167 92.4718 19.1917 92.4385 19.725C92.4385 20.225 92.4135 20.725 92.3635 21.225C92.3301 21.6583 92.2635 22.125 92.1635 22.625C92.0635 23.1417 91.9218 23.6167 91.7385 24.05C91.5051 24.6167 91.1885 25.1 90.7885 25.5C90.3885 25.9167 89.8718 26.2167 89.2385 26.4C88.7051 26.5333 88.2051 26.6167 87.7385 26.65C87.2718 26.7 86.7718 26.6917 86.2385 26.625C85.8885 26.575 85.5135 26.475 85.1135 26.325C84.7135 26.1917 84.3385 26.0167 83.9885 25.8C83.6385 25.5833 83.3301 25.325 83.0635 25.025C82.7968 24.7417 82.6135 24.4167 82.5135 24.05C82.3968 23.6 82.3885 23.2083 82.4885 22.875C82.6051 22.5417 82.7801 22.3 83.0135 22.15C83.2468 22 83.5218 21.975 83.8385 22.075C84.1551 22.175 84.4551 22.4333 84.7385 22.85C84.9385 23.15 85.2301 23.3917 85.6135 23.575C85.9968 23.7583 86.4051 23.8667 86.8385 23.9C87.2718 23.9333 87.6885 23.875 88.0885 23.725C88.5051 23.5917 88.8301 23.35 89.0635 23C89.2301 22.75 89.3468 22.3917 89.4135 21.925C89.4968 21.4583 89.5468 21 89.5635 20.55C88.7135 20.9 87.8385 21.0333 86.9385 20.95C86.0551 20.85 85.2468 20.575 84.5135 20.125C83.7968 19.6583 83.2135 19.0417 82.7635 18.275C82.3301 17.4917 82.1468 16.6083 82.2135 15.625C82.2635 14.775 82.4385 13.975 82.7385 13.225C83.0551 12.475 83.5718 11.85 84.2885 11.35C84.8718 10.95 85.5301 10.6917 86.2635 10.575C86.9968 10.4417 87.7051 10.375 88.3885 10.375C88.7885 10.375 89.1801 10.375 89.5635 10.375C89.9635 10.375 90.3301 10.425 90.6635 10.525C90.9968 10.625 91.2968 10.7917 91.5635 11.025C91.8301 11.2583 92.0301 11.6 92.1635 12.05C92.3801 12.75 92.4968 13.4417 92.5135 14.125C92.5468 14.8083 92.5635 15.525 92.5635 16.275ZM87.7385 18.35C87.9051 18.35 88.0635 18.3333 88.2135 18.3C88.3801 18.2667 88.5385 18.225 88.6885 18.175C88.9718 18.075 89.1801 17.9417 89.3135 17.775C89.4635 17.6083 89.5635 17.425 89.6135 17.225C89.6635 17.0083 89.6801 16.775 89.6635 16.525C89.6635 16.275 89.6635 16.0167 89.6635 15.75C89.6635 15.5333 89.6551 15.2917 89.6385 15.025C89.6385 14.7583 89.6218 14.5083 89.5885 14.275C89.5551 14.025 89.5051 13.8083 89.4385 13.625C89.3718 13.4417 89.2718 13.325 89.1385 13.275C88.9051 13.2083 88.6385 13.1667 88.3385 13.15C88.0385 13.1167 87.7385 13.1167 87.4385 13.15C87.1385 13.1667 86.8468 13.225 86.5635 13.325C86.2968 13.4083 86.0718 13.525 85.8885 13.675C85.6385 13.8917 85.4468 14.1583 85.3135 14.475C85.1801 14.7917 85.0968 15.125 85.0635 15.475C85.0468 15.825 85.0718 16.1667 85.1385 16.5C85.2218 16.8333 85.3635 17.1333 85.5635 17.4C85.7968 17.7333 86.1135 17.975 86.5135 18.125C86.9135 18.275 87.3218 18.35 87.7385 18.35Z" fill="black"/>
<path d="M97.9158 19C97.8992 19.0833 97.8825 19.1667 97.8658 19.25C97.8658 19.3167 97.8658 19.3917 97.8658 19.475L97.7158 20C97.6825 20.0667 97.6575 20.1083 97.6408 20.125L97.5658 20.275C97.4825 20.4583 97.3325 20.6083 97.1158 20.725C96.7158 20.925 96.2908 20.975 95.8408 20.875C95.5575 20.8417 95.3325 20.7583 95.1658 20.625C94.9992 20.5083 94.8825 20.3667 94.8158 20.2C94.7492 20.0333 94.6992 19.8667 94.6658 19.7C94.6158 19.5333 94.5908 19.3833 94.5908 19.25V5.24999C94.5908 5.13333 94.5908 5.03333 94.5908 4.95C94.6075 4.85 94.6242 4.75833 94.6408 4.67499C94.6575 4.55833 94.6742 4.45833 94.6908 4.375C94.7242 4.29166 94.7575 4.2 94.7908 4.09999C94.8408 3.93333 94.9325 3.79999 95.0658 3.7C95.2658 3.55 95.4575 3.46666 95.6408 3.45C95.7575 3.41666 95.8658 3.39999 95.9658 3.39999C96.0658 3.38333 96.1825 3.37499 96.3158 3.37499C96.5492 3.37499 96.8158 3.44166 97.1158 3.575C97.3492 3.70833 97.5158 3.89166 97.6158 4.125C97.7825 4.45833 97.8658 4.76666 97.8658 5.05C97.8825 5.21666 97.8908 5.46666 97.8908 5.79999C97.9075 6.13333 97.9158 6.38333 97.9158 6.55V6.65C97.9492 7.18333 97.9658 7.69999 97.9658 8.2C97.9658 8.68333 97.9575 9.21666 97.9408 9.8C97.9408 10.3667 97.9325 10.9167 97.9158 11.45C97.9158 11.9667 97.9158 12.4833 97.9158 13V18.25C97.9158 18.3167 97.9158 18.3833 97.9158 18.45C97.9325 18.5 97.9408 18.5583 97.9408 18.625C97.9408 18.7917 97.9325 18.9167 97.9158 19Z" fill="black"/>
<path d="M108.612 17.575C108.812 17.525 109.012 17.4917 109.212 17.475C109.429 17.4583 109.62 17.4833 109.787 17.55C109.97 17.6167 110.12 17.7333 110.237 17.9C110.354 18.05 110.412 18.2667 110.412 18.55C110.412 18.75 110.362 18.9417 110.262 19.125C110.162 19.3083 110.037 19.475 109.887 19.625C109.737 19.775 109.57 19.9083 109.387 20.025C109.204 20.125 109.029 20.2083 108.862 20.275C108.379 20.4917 107.82 20.6583 107.187 20.775C106.57 20.8917 105.929 20.9333 105.262 20.9C104.362 20.8667 103.495 20.6917 102.662 20.375C101.845 20.0417 101.204 19.5 100.737 18.75C100.304 18.0167 100.045 17.2 99.9619 16.3C99.8786 15.4 99.9202 14.55 100.087 13.75C100.27 12.7833 100.579 12 101.012 11.4C101.462 10.7833 101.995 10.2917 102.612 9.925C103.362 9.49166 104.204 9.26666 105.137 9.25C106.07 9.23333 106.962 9.41666 107.812 9.8C108.379 10.05 108.887 10.3917 109.337 10.825C109.787 11.2417 110.129 11.75 110.362 12.35C110.429 12.5 110.479 12.6833 110.512 12.9C110.562 13.1167 110.595 13.35 110.612 13.6C110.629 13.8333 110.629 14.0667 110.612 14.3C110.595 14.5333 110.554 14.7417 110.487 14.925C110.387 15.225 110.262 15.4583 110.112 15.625C109.962 15.7917 109.77 15.9167 109.537 16C109.304 16.0833 109.02 16.1417 108.687 16.175C108.37 16.1917 107.987 16.2083 107.537 16.225C107.137 16.2417 106.762 16.25 106.412 16.25C106.062 16.25 105.704 16.25 105.337 16.25C104.97 16.2333 104.587 16.225 104.187 16.225C103.804 16.2083 103.37 16.1917 102.887 16.175C102.837 16.5083 102.879 16.8 103.012 17.05C103.162 17.2833 103.362 17.4833 103.612 17.65C103.862 17.8 104.145 17.9167 104.462 18C104.779 18.0833 105.087 18.1333 105.387 18.15C105.954 18.1833 106.495 18.1417 107.012 18.025C107.529 17.8917 108.062 17.7417 108.612 17.575ZM107.537 12.725C107.22 12.3583 106.887 12.0917 106.537 11.925C106.27 11.8083 105.987 11.7583 105.687 11.775C105.404 11.775 105.129 11.8167 104.862 11.9C104.379 12.0167 103.97 12.2667 103.637 12.65C103.604 12.6833 103.545 12.7667 103.462 12.9C103.379 13.0167 103.295 13.1417 103.212 13.275C103.145 13.4083 103.095 13.5333 103.062 13.65C103.029 13.7667 103.045 13.825 103.112 13.825H108.012C107.995 13.5917 107.954 13.4 107.887 13.25C107.82 13.0833 107.704 12.9083 107.537 12.725Z" fill="black"/>
<path d="M115.708 21C115.708 21.4333 115.549 21.8 115.233 22.1C114.933 22.4167 114.566 22.575 114.133 22.575C113.699 22.575 113.324 22.4167 113.008 22.1C112.708 21.8 112.558 21.4333 112.558 21C112.558 20.5667 112.708 20.1917 113.008 19.875C113.324 19.5583 113.699 19.4 114.133 19.4C114.566 19.4 114.933 19.5583 115.233 19.875C115.549 20.1917 115.708 20.5667 115.708 21Z" fill="black"/>
<path d="M133.063 19.3C133.079 19.4 133.088 19.5 133.088 19.6C133.104 19.6833 133.113 19.7833 133.113 19.9C133.113 20.1 133.054 20.2833 132.938 20.45C132.888 20.5333 132.821 20.6167 132.738 20.7C132.654 20.7667 132.554 20.825 132.438 20.875C132.021 21.1083 131.579 21.1917 131.113 21.125C130.879 21.0583 130.671 20.95 130.488 20.8C130.454 20.7667 130.429 20.75 130.413 20.75C130.396 20.7333 130.379 20.7083 130.363 20.675C130.346 20.6583 130.329 20.6417 130.313 20.625C130.296 20.5917 130.271 20.5667 130.238 20.55C130.154 20.4667 130.088 20.3917 130.038 20.325C129.988 20.2417 129.938 20.1583 129.888 20.075C129.854 19.9917 129.813 19.9167 129.763 19.85C129.729 19.7667 129.688 19.6833 129.638 19.6C129.604 19.5333 129.571 19.475 129.538 19.425C129.504 19.3583 129.479 19.2917 129.463 19.225C129.396 19.075 129.354 18.9417 129.338 18.825L128.813 17.6C127.663 17.6 126.513 17.6083 125.363 17.625C124.229 17.625 123.088 17.6167 121.938 17.6L121.413 18.825C121.379 18.8917 121.354 18.9583 121.338 19.025C121.338 19.0917 121.321 19.1583 121.288 19.225C121.254 19.2917 121.221 19.3583 121.188 19.425C121.171 19.475 121.146 19.5333 121.113 19.6C121.063 19.6833 121.013 19.7667 120.963 19.85C120.929 19.9167 120.888 19.9917 120.838 20.075C120.804 20.1583 120.763 20.2417 120.713 20.325C120.663 20.3917 120.596 20.4667 120.513 20.55C120.479 20.5667 120.454 20.5917 120.438 20.625C120.421 20.6417 120.404 20.6583 120.388 20.675C120.371 20.7083 120.354 20.7333 120.338 20.75C120.321 20.75 120.296 20.7667 120.263 20.8C120.079 20.95 119.871 21.0583 119.638 21.125C119.171 21.1917 118.729 21.1083 118.313 20.875C118.196 20.825 118.096 20.7667 118.013 20.7C117.929 20.6167 117.863 20.5333 117.813 20.45C117.696 20.2833 117.638 20.1 117.638 19.9C117.638 19.7833 117.638 19.6833 117.638 19.6C117.654 19.5 117.671 19.4 117.688 19.3C117.721 19.15 117.763 19 117.813 18.85C117.863 18.7 117.888 18.625 117.888 18.625L123.088 5.82499L123.238 5.425C123.271 5.325 123.313 5.23333 123.363 5.15C123.413 5.06666 123.454 4.96666 123.488 4.85C123.571 4.63333 123.663 4.44166 123.763 4.275C123.813 4.175 123.871 4.08333 123.938 4C124.004 3.91666 124.071 3.83333 124.138 3.74999C124.238 3.61666 124.379 3.50833 124.563 3.425C124.796 3.34166 125.063 3.3 125.363 3.3C125.679 3.3 125.954 3.34166 126.188 3.425C126.371 3.50833 126.513 3.61666 126.613 3.74999C126.729 3.89999 126.854 4.07499 126.988 4.275C127.088 4.44166 127.179 4.63333 127.263 4.85C127.296 4.96666 127.338 5.06666 127.388 5.15C127.438 5.23333 127.479 5.325 127.513 5.425L127.663 5.82499L132.863 18.625C132.863 18.625 132.888 18.7 132.938 18.85C132.988 19 133.029 19.15 133.063 19.3ZM127.138 13.175C126.921 12.6917 126.696 12.1917 126.463 11.675C126.246 11.1583 126.013 10.6333 125.763 10.1C125.696 9.95 125.629 9.8 125.563 9.65C125.496 9.48333 125.429 9.325 125.363 9.175C125.313 9.325 125.254 9.48333 125.188 9.65C125.121 9.8 125.054 9.95 124.988 10.1C124.738 10.6333 124.496 11.1583 124.263 11.675C124.046 12.1917 123.829 12.6917 123.613 13.175L123.163 14.275H127.588L127.138 13.175Z" fill="black"/>
<path d="M135.893 18.35L135.918 16.375L135.943 12.7C135.96 12.1667 135.968 11.6167 135.968 11.05C135.968 10.4833 135.968 9.9 135.968 9.3C135.968 8.7 135.968 8.16666 135.968 7.7C135.968 7.23333 135.985 6.70833 136.018 6.125V6.025C136.035 5.85833 136.043 5.69166 136.043 5.525C136.06 5.34166 136.068 5.15833 136.068 4.975C136.085 4.675 136.177 4.35 136.343 4C136.46 3.76666 136.635 3.56666 136.868 3.39999C137.135 3.26666 137.393 3.2 137.643 3.2C137.776 3.2 137.893 3.20833 137.993 3.225C138.11 3.225 138.218 3.23333 138.318 3.24999C138.535 3.28333 138.726 3.38333 138.893 3.55C138.993 3.63333 139.085 3.76666 139.168 3.95C139.202 4.04999 139.226 4.15 139.243 4.25C139.276 4.33333 139.301 4.425 139.318 4.52499C139.335 4.64166 139.343 4.75 139.343 4.85C139.36 4.94999 139.368 5.05 139.368 5.15C139.368 5.26666 139.36 5.37499 139.343 5.47499C139.343 5.55833 139.343 5.65 139.343 5.75V6.17499L139.193 19.15V19.4C139.193 19.45 139.185 19.5167 139.168 19.6C139.168 19.6667 139.16 19.75 139.143 19.85C139.11 19.9333 139.077 20.025 139.043 20.125C139.027 20.2083 139.002 20.3 138.968 20.4C138.918 20.4833 138.86 20.5667 138.793 20.65C138.743 20.7167 138.677 20.7833 138.593 20.85C138.46 20.9833 138.243 21.075 137.943 21.125C137.493 21.225 137.068 21.1833 136.668 21C136.468 20.8667 136.326 20.7 136.243 20.5C136.193 20.45 136.168 20.4 136.168 20.35C136.152 20.3167 136.135 20.2917 136.118 20.275C136.101 20.2583 136.085 20.2333 136.068 20.2C136.035 20.1167 136.01 20.0333 135.993 19.95C135.976 19.85 135.968 19.75 135.968 19.65C135.952 19.5667 135.935 19.4833 135.918 19.4C135.918 19.3167 135.91 19.2333 135.893 19.15C135.876 19.0167 135.876 18.875 135.893 18.725V18.35Z" fill="black"/>
</svg>
