<svg width="271" height="53" viewBox="0 0 271 53" fill="none" xmlns="http://www.w3.org/2000/svg">
<mask id="path-1-outside-1_229_2" maskUnits="userSpaceOnUse" x="0" y="-1" width="271" height="54" fill="black">
<rect fill="white" y="-1" width="271" height="54"/>
<path d="M40.6719 1.04347L6.10122 5.27032C2.91907 5.65939 0.654628 8.55614 1.04344 11.7404L3.15547 29.0372C3.54428 32.2215 6.43912 34.4874 9.62126 34.0983L44.192 29.8715C47.3741 29.4824 49.6386 26.5857 49.2498 23.4014L47.1377 6.1046C46.7489 2.92034 43.8541 0.654399 40.6719 1.04347Z"/>
<path d="M48.4108 22.466L19.1143 18.5362C15.9369 18.11 13.0159 20.342 12.5899 23.5215L10.7139 37.5264C10.2879 40.7058 12.5185 43.6289 15.6958 44.0551L44.9924 47.9848C48.1698 48.411 51.0908 46.179 51.5168 42.9995L53.3928 28.9947C53.8187 25.8152 51.5882 22.8922 48.4108 22.466Z"/>
<path d="M101.485 32.8666C101.904 33.8024 101.921 34.7221 101.534 35.6256C101.147 36.4969 100.534 37.3036 99.6955 38.0458C98.857 38.788 97.8896 39.4334 96.7932 39.982C95.729 40.5306 94.7132 40.9178 93.7457 41.1437C92.6815 41.3696 91.5529 41.4664 90.3597 41.4341C89.1988 41.4341 88.0217 41.2889 86.8285 40.9985C85.6676 40.7403 84.5228 40.3531 83.3941 39.8368C82.2977 39.2882 81.2819 38.6267 80.3467 37.8522C79.218 36.9164 78.3312 35.8031 77.6862 34.5123C77.0735 33.1893 76.622 31.7856 76.3318 30.3012C76.0416 28.8168 75.8803 27.3324 75.8481 25.848C75.8481 24.3313 75.8965 22.9115 75.9932 21.5884C76.09 20.3945 76.3318 19.1521 76.7188 17.8613C77.1058 16.5706 77.6379 15.3121 78.3151 14.0858C79.0245 12.8273 79.863 11.6656 80.8304 10.6007C81.8301 9.53584 82.991 8.6323 84.3132 7.8901C85.3129 7.30925 86.4254 6.92202 87.6509 6.72841C88.9085 6.50252 90.1662 6.45412 91.4239 6.58319C92.7138 6.68 93.9231 6.95429 95.0518 7.40606C96.2127 7.82556 97.1963 8.40641 98.0025 9.14861C98.5184 9.60038 99.0505 10.2296 99.5987 11.0364C100.179 11.8431 100.598 12.666 100.856 13.505C101.114 14.344 101.114 15.1346 100.856 15.8768C100.631 16.5867 99.9857 17.0707 98.9215 17.3289C98.4701 17.458 98.067 17.4902 97.7122 17.4257C97.3575 17.3289 97.035 17.1837 96.7448 16.9901C96.4546 16.7642 96.1805 16.506 95.9225 16.2156C95.6645 15.9252 95.4226 15.6347 95.1969 15.3443C94.4229 14.4085 93.52 13.7793 92.4881 13.4566C91.4561 13.1016 90.4242 13.0209 89.3923 13.2145C88.3926 13.3759 87.4412 13.7954 86.5383 14.473C85.6676 15.1184 84.9904 15.9574 84.5067 16.9901C83.9907 18.0872 83.5715 19.2973 83.249 20.6204C82.9588 21.9111 82.7975 23.2342 82.7653 24.5895C82.733 25.9125 82.8459 27.2033 83.1039 28.4618C83.3941 29.7203 83.8778 30.8336 84.5551 31.8017C85.071 32.5762 85.6999 33.2054 86.4416 33.6895C87.2155 34.1735 88.0378 34.5123 88.9085 34.7059C89.7792 34.8995 90.6499 34.9318 91.5206 34.8027C92.4236 34.6737 93.2943 34.3832 94.1327 33.9315C94.3907 33.8024 94.6648 33.6249 94.955 33.399C95.2775 33.1409 95.6 32.8827 95.9225 32.6246C96.2449 32.3664 96.5674 32.1244 96.8899 31.8985C97.2446 31.6726 97.6155 31.5113 98.0025 31.4145C98.5829 31.2208 99.2118 31.237 99.889 31.4629C100.598 31.6887 101.131 32.1567 101.485 32.8666Z"/>
<path d="M111.942 19.1198C113.006 18.6035 114.118 18.2324 115.279 18.0065C116.44 17.7807 117.585 17.7323 118.714 17.8613C119.875 17.9904 120.987 18.297 122.051 18.781C123.148 19.265 124.147 19.9427 125.05 20.814C125.792 21.5562 126.437 22.4597 126.985 23.5246C127.533 24.5572 127.937 25.5737 128.195 26.5741C128.743 28.3489 128.823 30.1398 128.436 31.9469C128.049 33.754 127.388 35.432 126.453 36.9809C126.002 37.6908 125.437 38.3362 124.76 38.9171C124.115 39.4657 123.422 39.9174 122.68 40.2724C121.713 40.7242 120.665 41.0307 119.536 41.1921C118.407 41.3857 117.311 41.4341 116.247 41.3373C114.312 41.2405 112.603 40.7564 111.119 39.8852C109.668 39.0139 108.491 37.9006 107.588 36.5453C106.717 35.19 106.137 33.6572 105.847 31.9469C105.589 30.2044 105.702 28.4295 106.185 26.6225C106.701 24.6863 107.443 23.1212 108.41 21.9273C109.41 20.701 110.587 19.7652 111.942 19.1198ZM113.393 25.606C112.909 26.0577 112.538 26.6225 112.28 27.3001C112.022 27.9778 111.861 28.6877 111.796 29.4299C111.732 30.1398 111.78 30.8659 111.942 31.6081C112.135 32.318 112.425 32.9634 112.812 33.5442C113.135 34.0283 113.715 34.4316 114.554 34.7543C115.392 35.077 116.263 35.2706 117.166 35.3352C118.198 35.3997 119.101 35.1254 119.875 34.5123C120.648 33.8669 121.229 33.0763 121.616 32.1405C122.035 31.2047 122.229 30.1882 122.196 29.0911C122.164 27.9939 121.874 26.9936 121.326 26.09C120.939 25.4446 120.391 24.9767 119.681 24.6863C119.004 24.3636 118.278 24.2023 117.504 24.2023C116.763 24.17 116.021 24.2829 115.279 24.5411C114.537 24.767 113.909 25.1219 113.393 25.606Z"/>
<path d="M138.773 19.1198C139.837 18.6035 140.95 18.2324 142.111 18.0065C143.271 17.7807 144.416 17.7323 145.545 17.8613C146.706 17.9904 147.818 18.297 148.883 18.781C149.979 19.265 150.979 19.9427 151.882 20.814C152.623 21.5562 153.268 22.4597 153.817 23.5246C154.365 24.5572 154.768 25.5737 155.026 26.5741C155.574 28.3489 155.655 30.1398 155.268 31.9469C154.881 33.754 154.22 35.432 153.284 36.9809C152.833 37.6908 152.269 38.3362 151.591 38.9171C150.946 39.4657 150.253 39.9174 149.511 40.2724C148.544 40.7242 147.496 41.0307 146.367 41.1921C145.239 41.3857 144.142 41.4341 143.078 41.3373C141.143 41.2405 139.434 40.7564 137.951 39.8852C136.499 39.0139 135.322 37.9006 134.419 36.5453C133.549 35.19 132.968 33.6572 132.678 31.9469C132.42 30.2044 132.533 28.4295 133.017 26.6225C133.533 24.6863 134.274 23.1212 135.242 21.9273C136.241 20.701 137.418 19.7652 138.773 19.1198ZM140.224 25.606C139.74 26.0577 139.369 26.6225 139.111 27.3001C138.853 27.9778 138.692 28.6877 138.628 29.4299C138.563 30.1398 138.612 30.8659 138.773 31.6081C138.966 32.318 139.257 32.9634 139.644 33.5442C139.966 34.0283 140.546 34.4316 141.385 34.7543C142.223 35.077 143.094 35.2706 143.997 35.3352C145.029 35.3997 145.932 35.1254 146.706 34.5123C147.48 33.8669 148.06 33.0763 148.447 32.1405C148.866 31.2047 149.06 30.1882 149.028 29.0911C148.995 27.9939 148.705 26.9936 148.157 26.09C147.77 25.4446 147.222 24.9767 146.512 24.6863C145.835 24.3636 145.11 24.2023 144.336 24.2023C143.594 24.17 142.852 24.2829 142.111 24.5411C141.369 24.767 140.74 25.1219 140.224 25.606Z"/>
<path d="M179.439 31.8501C179.439 32.8827 179.406 33.996 179.342 35.19C179.31 36.3839 179.261 37.4972 179.197 38.5299C179.197 39.4979 179.148 40.466 179.052 41.4341C178.987 42.2731 178.858 43.1766 178.665 44.1447C178.471 45.1451 178.197 46.0647 177.842 46.9037C177.391 48.0009 176.778 48.9367 176.004 49.7112C175.23 50.5179 174.231 51.0988 173.005 51.4537C171.973 51.7119 171.006 51.8732 170.103 51.9378C169.2 52.0346 168.232 52.0184 167.2 51.8894C166.523 51.7926 165.798 51.5989 165.024 51.3085C164.25 51.0504 163.524 50.7115 162.847 50.292C162.17 49.8725 161.573 49.3724 161.057 48.7915C160.541 48.2429 160.187 47.6137 159.993 46.9037C159.767 46.0325 159.751 45.2741 159.945 44.6288C160.17 43.9834 160.509 43.5155 160.96 43.225C161.412 42.9346 161.944 42.8862 162.557 43.0798C163.169 43.2734 163.75 43.7736 164.298 44.5804C164.685 45.1612 165.249 45.6291 165.991 45.9841C166.733 46.339 167.523 46.5488 168.361 46.6133C169.2 46.6779 170.006 46.5649 170.78 46.2745C171.586 46.0163 172.215 45.5484 172.667 44.8708C172.989 44.3867 173.215 43.6929 173.344 42.7894C173.505 41.8859 173.602 40.9985 173.634 40.1272C171.989 40.8048 170.296 41.063 168.555 40.9016C166.846 40.708 165.282 40.1756 163.863 39.3043C162.476 38.4008 161.347 37.2068 160.477 35.7224C159.638 34.2058 159.284 32.4955 159.413 30.5916C159.509 28.9459 159.848 27.3969 160.428 25.9448C161.041 24.4927 162.041 23.2826 163.427 22.3145C164.556 21.54 165.83 21.0399 167.249 20.814C168.668 20.5558 170.038 20.4267 171.36 20.4267C172.134 20.4267 172.892 20.4267 173.634 20.4267C174.408 20.4267 175.117 20.5236 175.762 20.7172C176.407 20.9108 176.988 21.2335 177.504 21.6853C178.02 22.137 178.407 22.7985 178.665 23.6698C179.084 25.0251 179.31 26.3643 179.342 27.6874C179.406 29.0104 179.439 30.398 179.439 31.8501ZM170.103 35.8676C170.425 35.8676 170.732 35.8354 171.022 35.7708C171.344 35.7063 171.651 35.6256 171.941 35.5288C172.489 35.3352 172.892 35.077 173.15 34.7543C173.44 34.4316 173.634 34.0767 173.731 33.6895C173.827 33.2699 173.86 32.8182 173.827 32.3341C173.827 31.8501 173.827 31.3499 173.827 30.8336C173.827 30.4141 173.811 29.9462 173.779 29.4299C173.779 28.9136 173.747 28.4295 173.682 27.9778C173.618 27.4937 173.521 27.0742 173.392 26.7193C173.263 26.3643 173.07 26.1384 172.812 26.0416C172.36 25.9125 171.844 25.8319 171.264 25.7996C170.683 25.7351 170.103 25.7351 169.522 25.7996C168.942 25.8319 168.378 25.9448 167.829 26.1384C167.313 26.2998 166.878 26.5257 166.523 26.8161C166.04 27.2356 165.669 27.7519 165.411 28.365C165.153 28.9781 164.991 29.6235 164.927 30.3012C164.895 30.9788 164.943 31.6403 165.072 32.2857C165.233 32.9311 165.507 33.512 165.894 34.0283C166.346 34.6737 166.959 35.1416 167.733 35.432C168.507 35.7224 169.297 35.8676 170.103 35.8676Z"/>
<path d="M189.795 37.1261C189.762 37.2875 189.73 37.4488 189.698 37.6102C189.698 37.7393 189.698 37.8845 189.698 38.0458L189.408 39.0623C189.343 39.1914 189.295 39.272 189.263 39.3043L189.118 39.5947C188.956 39.9497 188.666 40.2401 188.247 40.466C187.473 40.8532 186.651 40.9501 185.78 40.7564C185.232 40.6919 184.796 40.5305 184.474 40.2724C184.151 40.0465 183.926 39.7722 183.797 39.4495C183.668 39.1268 183.571 38.8041 183.506 38.4814C183.41 38.1588 183.361 37.8683 183.361 37.6102V10.5039C183.361 10.278 183.361 10.0844 183.361 9.92307C183.393 9.72946 183.426 9.55197 183.458 9.39062C183.49 9.16474 183.522 8.97113 183.555 8.80978C183.619 8.64843 183.684 8.47095 183.748 8.27733C183.845 7.95464 184.022 7.69648 184.28 7.50287C184.667 7.21244 185.038 7.0511 185.393 7.01883C185.619 6.95429 185.828 6.92202 186.022 6.92202C186.215 6.88975 186.441 6.87362 186.699 6.87362C187.15 6.87362 187.666 7.00269 188.247 7.26085C188.698 7.519 189.021 7.87397 189.214 8.32574C189.537 8.97113 189.698 9.56811 189.698 10.1167C189.73 10.4394 189.746 10.9234 189.746 11.5688C189.779 12.2142 189.795 12.6982 189.795 13.0209V13.2145C189.859 14.2472 189.891 15.2475 189.891 16.2156C189.891 17.1514 189.875 18.184 189.843 19.3135C189.843 20.4106 189.827 21.4755 189.795 22.5081C189.795 23.5085 189.795 24.5088 189.795 25.5092V35.674C189.795 35.8031 189.795 35.9322 189.795 36.0612C189.827 36.1581 189.843 36.271 189.843 36.4001C189.843 36.7228 189.827 36.9648 189.795 37.1261Z"/>
<path d="M210.49 34.3671C210.877 34.2703 211.264 34.2058 211.651 34.1735C212.071 34.1412 212.441 34.1896 212.764 34.3187C213.119 34.4478 213.409 34.6737 213.635 34.9964C213.86 35.2868 213.973 35.7063 213.973 36.2549C213.973 36.6421 213.876 37.0132 213.683 37.3682C213.489 37.7231 213.248 38.0458 212.957 38.3362C212.667 38.6267 212.345 38.8848 211.99 39.1107C211.635 39.3043 211.297 39.4657 210.974 39.5947C210.039 40.0142 208.959 40.3369 207.733 40.5628C206.54 40.7887 205.298 40.8694 204.009 40.8048C202.267 40.7403 200.59 40.4015 198.978 39.7884C197.398 39.143 196.156 38.0942 195.253 36.6421C194.415 35.2222 193.915 33.641 193.754 31.8985C193.592 30.156 193.673 28.5102 193.996 26.9613C194.35 25.0897 194.947 23.573 195.785 22.4113C196.656 21.2173 197.688 20.2654 198.881 19.5555C200.332 18.7165 201.961 18.2808 203.767 18.2486C205.573 18.2163 207.298 18.5713 208.942 19.3135C210.039 19.7975 211.022 20.459 211.893 21.298C212.764 22.1048 213.425 23.089 213.876 24.2507C214.005 24.5411 214.102 24.896 214.167 25.3156C214.263 25.7351 214.328 26.1868 214.36 26.6709C214.392 27.1226 214.392 27.5744 214.36 28.0262C214.328 28.4779 214.247 28.8813 214.118 29.2363C213.925 29.8171 213.683 30.2689 213.393 30.5916C213.102 30.9143 212.732 31.1563 212.28 31.3177C211.829 31.479 211.28 31.5919 210.635 31.6565C210.023 31.6887 209.281 31.721 208.41 31.7533C207.636 31.7856 206.911 31.8017 206.234 31.8017C205.556 31.8017 204.863 31.8017 204.154 31.8017C203.444 31.7694 202.702 31.7533 201.929 31.7533C201.187 31.721 200.348 31.6887 199.413 31.6565C199.316 32.3019 199.397 32.8666 199.655 33.3506C199.945 33.8024 200.332 34.1896 200.816 34.5123C201.3 34.8027 201.848 35.0286 202.461 35.19C203.073 35.3513 203.67 35.4481 204.25 35.4804C205.347 35.5449 206.395 35.4643 207.395 35.2384C208.394 34.9802 209.426 34.6898 210.49 34.3671ZM208.41 24.9767C207.798 24.2668 207.153 23.7505 206.475 23.4278C205.96 23.2019 205.411 23.1051 204.831 23.1374C204.283 23.1374 203.751 23.218 203.235 23.3794C202.299 23.6053 201.509 24.0893 200.864 24.8315C200.8 24.8961 200.687 25.0574 200.526 25.3156C200.365 25.5414 200.203 25.7835 200.042 26.0416C199.913 26.2998 199.816 26.5418 199.752 26.7677C199.687 26.9936 199.72 27.1065 199.849 27.1065H209.329C209.297 26.6547 209.217 26.2836 209.088 25.9932C208.959 25.6705 208.733 25.3317 208.41 24.9767Z"/>
<path d="M224.22 40.9985C224.22 41.8375 223.914 42.5474 223.301 43.1282C222.721 43.7414 222.011 44.0479 221.173 44.0479C220.334 44.0479 219.609 43.7414 218.996 43.1282C218.415 42.5474 218.125 41.8375 218.125 40.9985C218.125 40.1595 218.415 39.4334 218.996 38.8203C219.609 38.2072 220.334 37.9006 221.173 37.9006C222.011 37.9006 222.721 38.2072 223.301 38.8203C223.914 39.4334 224.22 40.1595 224.22 40.9985Z"/>
<path d="M257.8 37.707C257.832 37.9006 257.848 38.0942 257.848 38.2878C257.88 38.4492 257.896 38.6428 257.896 38.8687C257.896 39.2559 257.784 39.6109 257.558 39.9336C257.461 40.0949 257.332 40.2563 257.171 40.4176C257.01 40.5467 256.816 40.6596 256.59 40.7564C255.784 41.2082 254.93 41.3696 254.027 41.2405C253.575 41.1114 253.172 40.9016 252.817 40.6112C252.753 40.5467 252.704 40.5144 252.672 40.5144C252.64 40.4821 252.608 40.4337 252.576 40.3692C252.543 40.3369 252.511 40.3047 252.479 40.2724C252.447 40.2079 252.398 40.1595 252.334 40.1272C252.172 39.9658 252.043 39.8206 251.947 39.6916C251.85 39.5302 251.753 39.3689 251.656 39.2075C251.592 39.0462 251.511 38.9009 251.415 38.7719C251.35 38.6105 251.269 38.4492 251.173 38.2878C251.108 38.1588 251.044 38.0458 250.979 37.949C250.915 37.8199 250.866 37.6908 250.834 37.5618C250.705 37.2713 250.625 37.0132 250.592 36.7873L249.576 34.4155C247.351 34.4155 245.126 34.4316 242.901 34.4639C240.708 34.4639 238.499 34.4478 236.274 34.4155L235.258 36.7873C235.194 36.9164 235.145 37.0455 235.113 37.1745C235.113 37.3036 235.081 37.4327 235.016 37.5618C234.952 37.6908 234.887 37.8199 234.823 37.949C234.791 38.0458 234.742 38.1588 234.678 38.2878C234.581 38.4492 234.484 38.6105 234.388 38.7719C234.323 38.9009 234.243 39.0462 234.146 39.2075C234.081 39.3689 234.001 39.5302 233.904 39.6916C233.807 39.8206 233.678 39.9658 233.517 40.1272C233.452 40.1595 233.404 40.2079 233.372 40.2724C233.34 40.3047 233.307 40.3369 233.275 40.3692C233.243 40.4337 233.211 40.4821 233.178 40.5144C233.146 40.5144 233.098 40.5467 233.033 40.6112C232.678 40.9016 232.275 41.1114 231.824 41.2405C230.921 41.3696 230.066 41.2082 229.26 40.7564C229.034 40.6596 228.841 40.5467 228.68 40.4176C228.519 40.2563 228.39 40.0949 228.293 39.9336C228.067 39.6109 227.954 39.2559 227.954 38.8687C227.954 38.6428 227.954 38.4492 227.954 38.2878C227.986 38.0942 228.019 37.9006 228.051 37.707C228.115 37.4166 228.196 37.1261 228.293 36.8357C228.39 36.5453 228.438 36.4001 228.438 36.4001L238.499 11.6172L238.789 10.8427C238.854 10.6491 238.935 10.4717 239.031 10.3103C239.128 10.149 239.209 9.95534 239.273 9.72945C239.434 9.30995 239.612 8.93886 239.805 8.61616C239.902 8.42255 240.015 8.24507 240.144 8.08372C240.273 7.92237 240.402 7.76102 240.531 7.59968C240.724 7.34152 240.998 7.13177 241.353 6.97043C241.805 6.80908 242.321 6.72841 242.901 6.72841C243.514 6.72841 244.046 6.80908 244.497 6.97043C244.852 7.13177 245.126 7.34152 245.32 7.59968C245.545 7.8901 245.787 8.22893 246.045 8.61616C246.239 8.93886 246.416 9.30995 246.577 9.72945C246.642 9.95534 246.722 10.149 246.819 10.3103C246.916 10.4717 246.997 10.6491 247.061 10.8427L247.351 11.6172L257.413 36.4001C257.413 36.4001 257.461 36.5453 257.558 36.8357C257.655 37.1261 257.735 37.4166 257.8 37.707ZM246.336 25.848C245.916 24.9122 245.481 23.9441 245.029 22.9438C244.61 21.9434 244.159 20.9269 243.675 19.8943C243.546 19.6039 243.417 19.3135 243.288 19.023C243.159 18.7003 243.03 18.3938 242.901 18.1034C242.804 18.3938 242.691 18.7003 242.563 19.023C242.434 19.3135 242.305 19.6039 242.176 19.8943C241.692 20.9269 241.224 21.9434 240.773 22.9438C240.354 23.9441 239.934 24.9122 239.515 25.848L238.644 27.9778H247.206L246.336 25.848Z"/>
<path d="M263.276 35.8676L263.325 32.0437L263.373 24.9283C263.405 23.8957 263.421 22.8308 263.421 21.7337C263.421 20.6365 263.421 19.5071 263.421 18.3454C263.421 17.1837 263.421 16.1511 263.421 15.2475C263.421 14.344 263.454 13.3275 263.518 12.1981V12.0044C263.55 11.6818 263.567 11.3591 263.567 11.0364C263.599 10.6814 263.615 10.3264 263.615 9.97147C263.647 9.39063 263.825 8.76137 264.147 8.08372C264.373 7.63195 264.711 7.24472 265.163 6.92202C265.679 6.66387 266.179 6.53479 266.662 6.53479C266.92 6.53479 267.146 6.55092 267.34 6.58319C267.565 6.58319 267.775 6.59933 267.968 6.6316C268.388 6.69614 268.758 6.88975 269.081 7.21245C269.274 7.37379 269.452 7.63195 269.613 7.98691C269.678 8.18052 269.726 8.37414 269.758 8.56776C269.823 8.72911 269.871 8.90659 269.903 9.1002C269.935 9.32609 269.952 9.53584 269.952 9.72945C269.984 9.92307 270 10.1167 270 10.3103C270 10.5362 269.984 10.7459 269.952 10.9396C269.952 11.1009 269.952 11.2784 269.952 11.472V12.2949L269.661 37.4166V37.9006C269.661 37.9974 269.645 38.1265 269.613 38.2878C269.613 38.4169 269.597 38.5783 269.565 38.7719C269.5 38.9332 269.436 39.1107 269.371 39.3043C269.339 39.4657 269.291 39.6431 269.226 39.8368C269.129 39.9981 269.016 40.1595 268.887 40.3208C268.791 40.4499 268.662 40.579 268.5 40.708C268.242 40.9662 267.823 41.1437 267.243 41.2405C266.372 41.4341 265.55 41.3534 264.776 40.9985C264.389 40.7403 264.115 40.4176 263.954 40.0304C263.857 39.9336 263.808 39.8368 263.808 39.74C263.776 39.6754 263.744 39.627 263.712 39.5947C263.679 39.5625 263.647 39.5141 263.615 39.4495C263.55 39.2882 263.502 39.1268 263.47 38.9655C263.438 38.7719 263.421 38.5783 263.421 38.3846C263.389 38.2233 263.357 38.0619 263.325 37.9006C263.325 37.7393 263.309 37.5779 263.276 37.4166C263.244 37.1584 263.244 36.8841 263.276 36.5937V35.8676Z"/>
</mask>
<path d="M40.6719 1.04347L6.10122 5.27032C2.91907 5.65939 0.654628 8.55614 1.04344 11.7404L3.15547 29.0372C3.54428 32.2215 6.43912 34.4874 9.62126 34.0983L44.192 29.8715C47.3741 29.4824 49.6386 26.5857 49.2498 23.4014L47.1377 6.1046C46.7489 2.92034 43.8541 0.654399 40.6719 1.04347Z" fill="#FA9F42"/>
<path d="M48.4108 22.466L19.1143 18.5362C15.9369 18.11 13.0159 20.342 12.5899 23.5215L10.7139 37.5264C10.2879 40.7058 12.5185 43.6289 15.6958 44.0551L44.9924 47.9848C48.1698 48.411 51.0908 46.179 51.5168 42.9995L53.3928 28.9947C53.8187 25.8152 51.5882 22.8922 48.4108 22.466Z" fill="#5941A9"/>
<path d="M101.485 32.8666C101.904 33.8024 101.921 34.7221 101.534 35.6256C101.147 36.4969 100.534 37.3036 99.6955 38.0458C98.857 38.788 97.8896 39.4334 96.7932 39.982C95.729 40.5306 94.7132 40.9178 93.7457 41.1437C92.6815 41.3696 91.5529 41.4664 90.3597 41.4341C89.1988 41.4341 88.0217 41.2889 86.8285 40.9985C85.6676 40.7403 84.5228 40.3531 83.3941 39.8368C82.2977 39.2882 81.2819 38.6267 80.3467 37.8522C79.218 36.9164 78.3312 35.8031 77.6862 34.5123C77.0735 33.1893 76.622 31.7856 76.3318 30.3012C76.0416 28.8168 75.8803 27.3324 75.8481 25.848C75.8481 24.3313 75.8965 22.9115 75.9932 21.5884C76.09 20.3945 76.3318 19.1521 76.7188 17.8613C77.1058 16.5706 77.6379 15.3121 78.3151 14.0858C79.0245 12.8273 79.863 11.6656 80.8304 10.6007C81.8301 9.53584 82.991 8.6323 84.3132 7.8901C85.3129 7.30925 86.4254 6.92202 87.6509 6.72841C88.9085 6.50252 90.1662 6.45412 91.4239 6.58319C92.7138 6.68 93.9231 6.95429 95.0518 7.40606C96.2127 7.82556 97.1963 8.40641 98.0025 9.14861C98.5184 9.60038 99.0505 10.2296 99.5987 11.0364C100.179 11.8431 100.598 12.666 100.856 13.505C101.114 14.344 101.114 15.1346 100.856 15.8768C100.631 16.5867 99.9857 17.0707 98.9215 17.3289C98.4701 17.458 98.067 17.4902 97.7122 17.4257C97.3575 17.3289 97.035 17.1837 96.7448 16.9901C96.4546 16.7642 96.1805 16.506 95.9225 16.2156C95.6645 15.9252 95.4226 15.6347 95.1969 15.3443C94.4229 14.4085 93.52 13.7793 92.4881 13.4566C91.4561 13.1016 90.4242 13.0209 89.3923 13.2145C88.3926 13.3759 87.4412 13.7954 86.5383 14.473C85.6676 15.1184 84.9904 15.9574 84.5067 16.9901C83.9907 18.0872 83.5715 19.2973 83.249 20.6204C82.9588 21.9111 82.7975 23.2342 82.7653 24.5895C82.733 25.9125 82.8459 27.2033 83.1039 28.4618C83.3941 29.7203 83.8778 30.8336 84.5551 31.8017C85.071 32.5762 85.6999 33.2054 86.4416 33.6895C87.2155 34.1735 88.0378 34.5123 88.9085 34.7059C89.7792 34.8995 90.6499 34.9318 91.5206 34.8027C92.4236 34.6737 93.2943 34.3832 94.1327 33.9315C94.3907 33.8024 94.6648 33.6249 94.955 33.399C95.2775 33.1409 95.6 32.8827 95.9225 32.6246C96.2449 32.3664 96.5674 32.1244 96.8899 31.8985C97.2446 31.6726 97.6155 31.5113 98.0025 31.4145C98.5829 31.2208 99.2118 31.237 99.889 31.4629C100.598 31.6887 101.131 32.1567 101.485 32.8666Z" fill="#181516"/>
<path d="M111.942 19.1198C113.006 18.6035 114.118 18.2324 115.279 18.0065C116.44 17.7807 117.585 17.7323 118.714 17.8613C119.875 17.9904 120.987 18.297 122.051 18.781C123.148 19.265 124.147 19.9427 125.05 20.814C125.792 21.5562 126.437 22.4597 126.985 23.5246C127.533 24.5572 127.937 25.5737 128.195 26.5741C128.743 28.3489 128.823 30.1398 128.436 31.9469C128.049 33.754 127.388 35.432 126.453 36.9809C126.002 37.6908 125.437 38.3362 124.76 38.9171C124.115 39.4657 123.422 39.9174 122.68 40.2724C121.713 40.7242 120.665 41.0307 119.536 41.1921C118.407 41.3857 117.311 41.4341 116.247 41.3373C114.312 41.2405 112.603 40.7564 111.119 39.8852C109.668 39.0139 108.491 37.9006 107.588 36.5453C106.717 35.19 106.137 33.6572 105.847 31.9469C105.589 30.2044 105.702 28.4295 106.185 26.6225C106.701 24.6863 107.443 23.1212 108.41 21.9273C109.41 20.701 110.587 19.7652 111.942 19.1198ZM113.393 25.606C112.909 26.0577 112.538 26.6225 112.28 27.3001C112.022 27.9778 111.861 28.6877 111.796 29.4299C111.732 30.1398 111.78 30.8659 111.942 31.6081C112.135 32.318 112.425 32.9634 112.812 33.5442C113.135 34.0283 113.715 34.4316 114.554 34.7543C115.392 35.077 116.263 35.2706 117.166 35.3352C118.198 35.3997 119.101 35.1254 119.875 34.5123C120.648 33.8669 121.229 33.0763 121.616 32.1405C122.035 31.2047 122.229 30.1882 122.196 29.0911C122.164 27.9939 121.874 26.9936 121.326 26.09C120.939 25.4446 120.391 24.9767 119.681 24.6863C119.004 24.3636 118.278 24.2023 117.504 24.2023C116.763 24.17 116.021 24.2829 115.279 24.5411C114.537 24.767 113.909 25.1219 113.393 25.606Z" fill="#181516"/>
<path d="M138.773 19.1198C139.837 18.6035 140.95 18.2324 142.111 18.0065C143.271 17.7807 144.416 17.7323 145.545 17.8613C146.706 17.9904 147.818 18.297 148.883 18.781C149.979 19.265 150.979 19.9427 151.882 20.814C152.623 21.5562 153.268 22.4597 153.817 23.5246C154.365 24.5572 154.768 25.5737 155.026 26.5741C155.574 28.3489 155.655 30.1398 155.268 31.9469C154.881 33.754 154.22 35.432 153.284 36.9809C152.833 37.6908 152.269 38.3362 151.591 38.9171C150.946 39.4657 150.253 39.9174 149.511 40.2724C148.544 40.7242 147.496 41.0307 146.367 41.1921C145.239 41.3857 144.142 41.4341 143.078 41.3373C141.143 41.2405 139.434 40.7564 137.951 39.8852C136.499 39.0139 135.322 37.9006 134.419 36.5453C133.549 35.19 132.968 33.6572 132.678 31.9469C132.42 30.2044 132.533 28.4295 133.017 26.6225C133.533 24.6863 134.274 23.1212 135.242 21.9273C136.241 20.701 137.418 19.7652 138.773 19.1198ZM140.224 25.606C139.74 26.0577 139.369 26.6225 139.111 27.3001C138.853 27.9778 138.692 28.6877 138.628 29.4299C138.563 30.1398 138.612 30.8659 138.773 31.6081C138.966 32.318 139.257 32.9634 139.644 33.5442C139.966 34.0283 140.546 34.4316 141.385 34.7543C142.223 35.077 143.094 35.2706 143.997 35.3352C145.029 35.3997 145.932 35.1254 146.706 34.5123C147.48 33.8669 148.06 33.0763 148.447 32.1405C148.866 31.2047 149.06 30.1882 149.028 29.0911C148.995 27.9939 148.705 26.9936 148.157 26.09C147.77 25.4446 147.222 24.9767 146.512 24.6863C145.835 24.3636 145.11 24.2023 144.336 24.2023C143.594 24.17 142.852 24.2829 142.111 24.5411C141.369 24.767 140.74 25.1219 140.224 25.606Z" fill="#181516"/>
<path d="M179.439 31.8501C179.439 32.8827 179.406 33.996 179.342 35.19C179.31 36.3839 179.261 37.4972 179.197 38.5299C179.197 39.4979 179.148 40.466 179.052 41.4341C178.987 42.2731 178.858 43.1766 178.665 44.1447C178.471 45.1451 178.197 46.0647 177.842 46.9037C177.391 48.0009 176.778 48.9367 176.004 49.7112C175.23 50.5179 174.231 51.0988 173.005 51.4537C171.973 51.7119 171.006 51.8732 170.103 51.9378C169.2 52.0346 168.232 52.0184 167.2 51.8894C166.523 51.7926 165.798 51.5989 165.024 51.3085C164.25 51.0504 163.524 50.7115 162.847 50.292C162.17 49.8725 161.573 49.3724 161.057 48.7915C160.541 48.2429 160.187 47.6137 159.993 46.9037C159.767 46.0325 159.751 45.2741 159.945 44.6288C160.17 43.9834 160.509 43.5155 160.96 43.225C161.412 42.9346 161.944 42.8862 162.557 43.0798C163.169 43.2734 163.75 43.7736 164.298 44.5804C164.685 45.1612 165.249 45.6291 165.991 45.9841C166.733 46.339 167.523 46.5488 168.361 46.6133C169.2 46.6779 170.006 46.5649 170.78 46.2745C171.586 46.0163 172.215 45.5484 172.667 44.8708C172.989 44.3867 173.215 43.6929 173.344 42.7894C173.505 41.8859 173.602 40.9985 173.634 40.1272C171.989 40.8048 170.296 41.063 168.555 40.9016C166.846 40.708 165.282 40.1756 163.863 39.3043C162.476 38.4008 161.347 37.2068 160.477 35.7224C159.638 34.2058 159.284 32.4955 159.413 30.5916C159.509 28.9459 159.848 27.3969 160.428 25.9448C161.041 24.4927 162.041 23.2826 163.427 22.3145C164.556 21.54 165.83 21.0399 167.249 20.814C168.668 20.5558 170.038 20.4267 171.36 20.4267C172.134 20.4267 172.892 20.4267 173.634 20.4267C174.408 20.4267 175.117 20.5236 175.762 20.7172C176.407 20.9108 176.988 21.2335 177.504 21.6853C178.02 22.137 178.407 22.7985 178.665 23.6698C179.084 25.0251 179.31 26.3643 179.342 27.6874C179.406 29.0104 179.439 30.398 179.439 31.8501ZM170.103 35.8676C170.425 35.8676 170.732 35.8354 171.022 35.7708C171.344 35.7063 171.651 35.6256 171.941 35.5288C172.489 35.3352 172.892 35.077 173.15 34.7543C173.44 34.4316 173.634 34.0767 173.731 33.6895C173.827 33.2699 173.86 32.8182 173.827 32.3341C173.827 31.8501 173.827 31.3499 173.827 30.8336C173.827 30.4141 173.811 29.9462 173.779 29.4299C173.779 28.9136 173.747 28.4295 173.682 27.9778C173.618 27.4937 173.521 27.0742 173.392 26.7193C173.263 26.3643 173.07 26.1384 172.812 26.0416C172.36 25.9125 171.844 25.8319 171.264 25.7996C170.683 25.7351 170.103 25.7351 169.522 25.7996C168.942 25.8319 168.378 25.9448 167.829 26.1384C167.313 26.2998 166.878 26.5257 166.523 26.8161C166.04 27.2356 165.669 27.7519 165.411 28.365C165.153 28.9781 164.991 29.6235 164.927 30.3012C164.895 30.9788 164.943 31.6403 165.072 32.2857C165.233 32.9311 165.507 33.512 165.894 34.0283C166.346 34.6737 166.959 35.1416 167.733 35.432C168.507 35.7224 169.297 35.8676 170.103 35.8676Z" fill="#181516"/>
<path d="M189.795 37.1261C189.762 37.2875 189.73 37.4488 189.698 37.6102C189.698 37.7393 189.698 37.8845 189.698 38.0458L189.408 39.0623C189.343 39.1914 189.295 39.272 189.263 39.3043L189.118 39.5947C188.956 39.9497 188.666 40.2401 188.247 40.466C187.473 40.8532 186.651 40.9501 185.78 40.7564C185.232 40.6919 184.796 40.5305 184.474 40.2724C184.151 40.0465 183.926 39.7722 183.797 39.4495C183.668 39.1268 183.571 38.8041 183.506 38.4814C183.41 38.1588 183.361 37.8683 183.361 37.6102V10.5039C183.361 10.278 183.361 10.0844 183.361 9.92307C183.393 9.72946 183.426 9.55197 183.458 9.39062C183.49 9.16474 183.522 8.97113 183.555 8.80978C183.619 8.64843 183.684 8.47095 183.748 8.27733C183.845 7.95464 184.022 7.69648 184.28 7.50287C184.667 7.21244 185.038 7.0511 185.393 7.01883C185.619 6.95429 185.828 6.92202 186.022 6.92202C186.215 6.88975 186.441 6.87362 186.699 6.87362C187.15 6.87362 187.666 7.00269 188.247 7.26085C188.698 7.519 189.021 7.87397 189.214 8.32574C189.537 8.97113 189.698 9.56811 189.698 10.1167C189.73 10.4394 189.746 10.9234 189.746 11.5688C189.779 12.2142 189.795 12.6982 189.795 13.0209V13.2145C189.859 14.2472 189.891 15.2475 189.891 16.2156C189.891 17.1514 189.875 18.184 189.843 19.3135C189.843 20.4106 189.827 21.4755 189.795 22.5081C189.795 23.5085 189.795 24.5088 189.795 25.5092V35.674C189.795 35.8031 189.795 35.9322 189.795 36.0612C189.827 36.1581 189.843 36.271 189.843 36.4001C189.843 36.7228 189.827 36.9648 189.795 37.1261Z" fill="#181516"/>
<path d="M210.49 34.3671C210.877 34.2703 211.264 34.2058 211.651 34.1735C212.071 34.1412 212.441 34.1896 212.764 34.3187C213.119 34.4478 213.409 34.6737 213.635 34.9964C213.86 35.2868 213.973 35.7063 213.973 36.2549C213.973 36.6421 213.876 37.0132 213.683 37.3682C213.489 37.7231 213.248 38.0458 212.957 38.3362C212.667 38.6267 212.345 38.8848 211.99 39.1107C211.635 39.3043 211.297 39.4657 210.974 39.5947C210.039 40.0142 208.959 40.3369 207.733 40.5628C206.54 40.7887 205.298 40.8694 204.009 40.8048C202.267 40.7403 200.59 40.4015 198.978 39.7884C197.398 39.143 196.156 38.0942 195.253 36.6421C194.415 35.2222 193.915 33.641 193.754 31.8985C193.592 30.156 193.673 28.5102 193.996 26.9613C194.35 25.0897 194.947 23.573 195.785 22.4113C196.656 21.2173 197.688 20.2654 198.881 19.5555C200.332 18.7165 201.961 18.2808 203.767 18.2486C205.573 18.2163 207.298 18.5713 208.942 19.3135C210.039 19.7975 211.022 20.459 211.893 21.298C212.764 22.1048 213.425 23.089 213.876 24.2507C214.005 24.5411 214.102 24.896 214.167 25.3156C214.263 25.7351 214.328 26.1868 214.36 26.6709C214.392 27.1226 214.392 27.5744 214.36 28.0262C214.328 28.4779 214.247 28.8813 214.118 29.2363C213.925 29.8171 213.683 30.2689 213.393 30.5916C213.102 30.9143 212.732 31.1563 212.28 31.3177C211.829 31.479 211.28 31.5919 210.635 31.6565C210.023 31.6887 209.281 31.721 208.41 31.7533C207.636 31.7856 206.911 31.8017 206.234 31.8017C205.556 31.8017 204.863 31.8017 204.154 31.8017C203.444 31.7694 202.702 31.7533 201.929 31.7533C201.187 31.721 200.348 31.6887 199.413 31.6565C199.316 32.3019 199.397 32.8666 199.655 33.3506C199.945 33.8024 200.332 34.1896 200.816 34.5123C201.3 34.8027 201.848 35.0286 202.461 35.19C203.073 35.3513 203.67 35.4481 204.25 35.4804C205.347 35.5449 206.395 35.4643 207.395 35.2384C208.394 34.9802 209.426 34.6898 210.49 34.3671ZM208.41 24.9767C207.798 24.2668 207.153 23.7505 206.475 23.4278C205.96 23.2019 205.411 23.1051 204.831 23.1374C204.283 23.1374 203.751 23.218 203.235 23.3794C202.299 23.6053 201.509 24.0893 200.864 24.8315C200.8 24.8961 200.687 25.0574 200.526 25.3156C200.365 25.5414 200.203 25.7835 200.042 26.0416C199.913 26.2998 199.816 26.5418 199.752 26.7677C199.687 26.9936 199.72 27.1065 199.849 27.1065H209.329C209.297 26.6547 209.217 26.2836 209.088 25.9932C208.959 25.6705 208.733 25.3317 208.41 24.9767Z" fill="#181516"/>
<path d="M224.22 40.9985C224.22 41.8375 223.914 42.5474 223.301 43.1282C222.721 43.7414 222.011 44.0479 221.173 44.0479C220.334 44.0479 219.609 43.7414 218.996 43.1282C218.415 42.5474 218.125 41.8375 218.125 40.9985C218.125 40.1595 218.415 39.4334 218.996 38.8203C219.609 38.2072 220.334 37.9006 221.173 37.9006C222.011 37.9006 222.721 38.2072 223.301 38.8203C223.914 39.4334 224.22 40.1595 224.22 40.9985Z" fill="#181516"/>
<path d="M257.8 37.707C257.832 37.9006 257.848 38.0942 257.848 38.2878C257.88 38.4492 257.896 38.6428 257.896 38.8687C257.896 39.2559 257.784 39.6109 257.558 39.9336C257.461 40.0949 257.332 40.2563 257.171 40.4176C257.01 40.5467 256.816 40.6596 256.59 40.7564C255.784 41.2082 254.93 41.3696 254.027 41.2405C253.575 41.1114 253.172 40.9016 252.817 40.6112C252.753 40.5467 252.704 40.5144 252.672 40.5144C252.64 40.4821 252.608 40.4337 252.576 40.3692C252.543 40.3369 252.511 40.3047 252.479 40.2724C252.447 40.2079 252.398 40.1595 252.334 40.1272C252.172 39.9658 252.043 39.8206 251.947 39.6916C251.85 39.5302 251.753 39.3689 251.656 39.2075C251.592 39.0462 251.511 38.9009 251.415 38.7719C251.35 38.6105 251.269 38.4492 251.173 38.2878C251.108 38.1588 251.044 38.0458 250.979 37.949C250.915 37.8199 250.866 37.6908 250.834 37.5618C250.705 37.2713 250.625 37.0132 250.592 36.7873L249.576 34.4155C247.351 34.4155 245.126 34.4316 242.901 34.4639C240.708 34.4639 238.499 34.4478 236.274 34.4155L235.258 36.7873C235.194 36.9164 235.145 37.0455 235.113 37.1745C235.113 37.3036 235.081 37.4327 235.016 37.5618C234.952 37.6908 234.887 37.8199 234.823 37.949C234.791 38.0458 234.742 38.1588 234.678 38.2878C234.581 38.4492 234.484 38.6105 234.388 38.7719C234.323 38.9009 234.243 39.0462 234.146 39.2075C234.081 39.3689 234.001 39.5302 233.904 39.6916C233.807 39.8206 233.678 39.9658 233.517 40.1272C233.452 40.1595 233.404 40.2079 233.372 40.2724C233.34 40.3047 233.307 40.3369 233.275 40.3692C233.243 40.4337 233.211 40.4821 233.178 40.5144C233.146 40.5144 233.098 40.5467 233.033 40.6112C232.678 40.9016 232.275 41.1114 231.824 41.2405C230.921 41.3696 230.066 41.2082 229.26 40.7564C229.034 40.6596 228.841 40.5467 228.68 40.4176C228.519 40.2563 228.39 40.0949 228.293 39.9336C228.067 39.6109 227.954 39.2559 227.954 38.8687C227.954 38.6428 227.954 38.4492 227.954 38.2878C227.986 38.0942 228.019 37.9006 228.051 37.707C228.115 37.4166 228.196 37.1261 228.293 36.8357C228.39 36.5453 228.438 36.4001 228.438 36.4001L238.499 11.6172L238.789 10.8427C238.854 10.6491 238.935 10.4717 239.031 10.3103C239.128 10.149 239.209 9.95534 239.273 9.72945C239.434 9.30995 239.612 8.93886 239.805 8.61616C239.902 8.42255 240.015 8.24507 240.144 8.08372C240.273 7.92237 240.402 7.76102 240.531 7.59968C240.724 7.34152 240.998 7.13177 241.353 6.97043C241.805 6.80908 242.321 6.72841 242.901 6.72841C243.514 6.72841 244.046 6.80908 244.497 6.97043C244.852 7.13177 245.126 7.34152 245.32 7.59968C245.545 7.8901 245.787 8.22893 246.045 8.61616C246.239 8.93886 246.416 9.30995 246.577 9.72945C246.642 9.95534 246.722 10.149 246.819 10.3103C246.916 10.4717 246.997 10.6491 247.061 10.8427L247.351 11.6172L257.413 36.4001C257.413 36.4001 257.461 36.5453 257.558 36.8357C257.655 37.1261 257.735 37.4166 257.8 37.707ZM246.336 25.848C245.916 24.9122 245.481 23.9441 245.029 22.9438C244.61 21.9434 244.159 20.9269 243.675 19.8943C243.546 19.6039 243.417 19.3135 243.288 19.023C243.159 18.7003 243.03 18.3938 242.901 18.1034C242.804 18.3938 242.691 18.7003 242.563 19.023C242.434 19.3135 242.305 19.6039 242.176 19.8943C241.692 20.9269 241.224 21.9434 240.773 22.9438C240.354 23.9441 239.934 24.9122 239.515 25.848L238.644 27.9778H247.206L246.336 25.848Z" fill="#181516"/>
<path d="M263.276 35.8676L263.325 32.0437L263.373 24.9283C263.405 23.8957 263.421 22.8308 263.421 21.7337C263.421 20.6365 263.421 19.5071 263.421 18.3454C263.421 17.1837 263.421 16.1511 263.421 15.2475C263.421 14.344 263.454 13.3275 263.518 12.1981V12.0044C263.55 11.6818 263.567 11.3591 263.567 11.0364C263.599 10.6814 263.615 10.3264 263.615 9.97147C263.647 9.39063 263.825 8.76137 264.147 8.08372C264.373 7.63195 264.711 7.24472 265.163 6.92202C265.679 6.66387 266.179 6.53479 266.662 6.53479C266.92 6.53479 267.146 6.55092 267.34 6.58319C267.565 6.58319 267.775 6.59933 267.968 6.6316C268.388 6.69614 268.758 6.88975 269.081 7.21245C269.274 7.37379 269.452 7.63195 269.613 7.98691C269.678 8.18052 269.726 8.37414 269.758 8.56776C269.823 8.72911 269.871 8.90659 269.903 9.1002C269.935 9.32609 269.952 9.53584 269.952 9.72945C269.984 9.92307 270 10.1167 270 10.3103C270 10.5362 269.984 10.7459 269.952 10.9396C269.952 11.1009 269.952 11.2784 269.952 11.472V12.2949L269.661 37.4166V37.9006C269.661 37.9974 269.645 38.1265 269.613 38.2878C269.613 38.4169 269.597 38.5783 269.565 38.7719C269.5 38.9332 269.436 39.1107 269.371 39.3043C269.339 39.4657 269.291 39.6431 269.226 39.8368C269.129 39.9981 269.016 40.1595 268.887 40.3208C268.791 40.4499 268.662 40.579 268.5 40.708C268.242 40.9662 267.823 41.1437 267.243 41.2405C266.372 41.4341 265.55 41.3534 264.776 40.9985C264.389 40.7403 264.115 40.4176 263.954 40.0304C263.857 39.9336 263.808 39.8368 263.808 39.74C263.776 39.6754 263.744 39.627 263.712 39.5947C263.679 39.5625 263.647 39.5141 263.615 39.4495C263.55 39.2882 263.502 39.1268 263.47 38.9655C263.438 38.7719 263.421 38.5783 263.421 38.3846C263.389 38.2233 263.357 38.0619 263.325 37.9006C263.325 37.7393 263.309 37.5779 263.276 37.4166C263.244 37.1584 263.244 36.8841 263.276 36.5937V35.8676Z" fill="#181516"/>
<path d="M40.6719 1.04347L6.10122 5.27032C2.91907 5.65939 0.654628 8.55614 1.04344 11.7404L3.15547 29.0372C3.54428 32.2215 6.43912 34.4874 9.62126 34.0983L44.192 29.8715C47.3741 29.4824 49.6386 26.5857 49.2498 23.4014L47.1377 6.1046C46.7489 2.92034 43.8541 0.654399 40.6719 1.04347Z" stroke="#C0BFBD" stroke-opacity="0.2" stroke-width="2" mask="url(#path-1-outside-1_229_2)"/>
<path d="M48.4108 22.466L19.1143 18.5362C15.9369 18.11 13.0159 20.342 12.5899 23.5215L10.7139 37.5264C10.2879 40.7058 12.5185 43.6289 15.6958 44.0551L44.9924 47.9848C48.1698 48.411 51.0908 46.179 51.5168 42.9995L53.3928 28.9947C53.8187 25.8152 51.5882 22.8922 48.4108 22.466Z" stroke="#C0BFBD" stroke-opacity="0.2" stroke-width="2" mask="url(#path-1-outside-1_229_2)"/>
<path d="M101.485 32.8666C101.904 33.8024 101.921 34.7221 101.534 35.6256C101.147 36.4969 100.534 37.3036 99.6955 38.0458C98.857 38.788 97.8896 39.4334 96.7932 39.982C95.729 40.5306 94.7132 40.9178 93.7457 41.1437C92.6815 41.3696 91.5529 41.4664 90.3597 41.4341C89.1988 41.4341 88.0217 41.2889 86.8285 40.9985C85.6676 40.7403 84.5228 40.3531 83.3941 39.8368C82.2977 39.2882 81.2819 38.6267 80.3467 37.8522C79.218 36.9164 78.3312 35.8031 77.6862 34.5123C77.0735 33.1893 76.622 31.7856 76.3318 30.3012C76.0416 28.8168 75.8803 27.3324 75.8481 25.848C75.8481 24.3313 75.8965 22.9115 75.9932 21.5884C76.09 20.3945 76.3318 19.1521 76.7188 17.8613C77.1058 16.5706 77.6379 15.3121 78.3151 14.0858C79.0245 12.8273 79.863 11.6656 80.8304 10.6007C81.8301 9.53584 82.991 8.6323 84.3132 7.8901C85.3129 7.30925 86.4254 6.92202 87.6509 6.72841C88.9085 6.50252 90.1662 6.45412 91.4239 6.58319C92.7138 6.68 93.9231 6.95429 95.0518 7.40606C96.2127 7.82556 97.1963 8.40641 98.0025 9.14861C98.5184 9.60038 99.0505 10.2296 99.5987 11.0364C100.179 11.8431 100.598 12.666 100.856 13.505C101.114 14.344 101.114 15.1346 100.856 15.8768C100.631 16.5867 99.9857 17.0707 98.9215 17.3289C98.4701 17.458 98.067 17.4902 97.7122 17.4257C97.3575 17.3289 97.035 17.1837 96.7448 16.9901C96.4546 16.7642 96.1805 16.506 95.9225 16.2156C95.6645 15.9252 95.4226 15.6347 95.1969 15.3443C94.4229 14.4085 93.52 13.7793 92.4881 13.4566C91.4561 13.1016 90.4242 13.0209 89.3923 13.2145C88.3926 13.3759 87.4412 13.7954 86.5383 14.473C85.6676 15.1184 84.9904 15.9574 84.5067 16.9901C83.9907 18.0872 83.5715 19.2973 83.249 20.6204C82.9588 21.9111 82.7975 23.2342 82.7653 24.5895C82.733 25.9125 82.8459 27.2033 83.1039 28.4618C83.3941 29.7203 83.8778 30.8336 84.5551 31.8017C85.071 32.5762 85.6999 33.2054 86.4416 33.6895C87.2155 34.1735 88.0378 34.5123 88.9085 34.7059C89.7792 34.8995 90.6499 34.9318 91.5206 34.8027C92.4236 34.6737 93.2943 34.3832 94.1327 33.9315C94.3907 33.8024 94.6648 33.6249 94.955 33.399C95.2775 33.1409 95.6 32.8827 95.9225 32.6246C96.2449 32.3664 96.5674 32.1244 96.8899 31.8985C97.2446 31.6726 97.6155 31.5113 98.0025 31.4145C98.5829 31.2208 99.2118 31.237 99.889 31.4629C100.598 31.6887 101.131 32.1567 101.485 32.8666Z" stroke="#C0BFBD" stroke-opacity="0.2" stroke-width="2" mask="url(#path-1-outside-1_229_2)"/>
<path d="M111.942 19.1198C113.006 18.6035 114.118 18.2324 115.279 18.0065C116.44 17.7807 117.585 17.7323 118.714 17.8613C119.875 17.9904 120.987 18.297 122.051 18.781C123.148 19.265 124.147 19.9427 125.05 20.814C125.792 21.5562 126.437 22.4597 126.985 23.5246C127.533 24.5572 127.937 25.5737 128.195 26.5741C128.743 28.3489 128.823 30.1398 128.436 31.9469C128.049 33.754 127.388 35.432 126.453 36.9809C126.002 37.6908 125.437 38.3362 124.76 38.9171C124.115 39.4657 123.422 39.9174 122.68 40.2724C121.713 40.7242 120.665 41.0307 119.536 41.1921C118.407 41.3857 117.311 41.4341 116.247 41.3373C114.312 41.2405 112.603 40.7564 111.119 39.8852C109.668 39.0139 108.491 37.9006 107.588 36.5453C106.717 35.19 106.137 33.6572 105.847 31.9469C105.589 30.2044 105.702 28.4295 106.185 26.6225C106.701 24.6863 107.443 23.1212 108.41 21.9273C109.41 20.701 110.587 19.7652 111.942 19.1198ZM113.393 25.606C112.909 26.0577 112.538 26.6225 112.28 27.3001C112.022 27.9778 111.861 28.6877 111.796 29.4299C111.732 30.1398 111.78 30.8659 111.942 31.6081C112.135 32.318 112.425 32.9634 112.812 33.5442C113.135 34.0283 113.715 34.4316 114.554 34.7543C115.392 35.077 116.263 35.2706 117.166 35.3352C118.198 35.3997 119.101 35.1254 119.875 34.5123C120.648 33.8669 121.229 33.0763 121.616 32.1405C122.035 31.2047 122.229 30.1882 122.196 29.0911C122.164 27.9939 121.874 26.9936 121.326 26.09C120.939 25.4446 120.391 24.9767 119.681 24.6863C119.004 24.3636 118.278 24.2023 117.504 24.2023C116.763 24.17 116.021 24.2829 115.279 24.5411C114.537 24.767 113.909 25.1219 113.393 25.606Z" stroke="#C0BFBD" stroke-opacity="0.2" stroke-width="2" mask="url(#path-1-outside-1_229_2)"/>
<path d="M138.773 19.1198C139.837 18.6035 140.95 18.2324 142.111 18.0065C143.271 17.7807 144.416 17.7323 145.545 17.8613C146.706 17.9904 147.818 18.297 148.883 18.781C149.979 19.265 150.979 19.9427 151.882 20.814C152.623 21.5562 153.268 22.4597 153.817 23.5246C154.365 24.5572 154.768 25.5737 155.026 26.5741C155.574 28.3489 155.655 30.1398 155.268 31.9469C154.881 33.754 154.22 35.432 153.284 36.9809C152.833 37.6908 152.269 38.3362 151.591 38.9171C150.946 39.4657 150.253 39.9174 149.511 40.2724C148.544 40.7242 147.496 41.0307 146.367 41.1921C145.239 41.3857 144.142 41.4341 143.078 41.3373C141.143 41.2405 139.434 40.7564 137.951 39.8852C136.499 39.0139 135.322 37.9006 134.419 36.5453C133.549 35.19 132.968 33.6572 132.678 31.9469C132.42 30.2044 132.533 28.4295 133.017 26.6225C133.533 24.6863 134.274 23.1212 135.242 21.9273C136.241 20.701 137.418 19.7652 138.773 19.1198ZM140.224 25.606C139.74 26.0577 139.369 26.6225 139.111 27.3001C138.853 27.9778 138.692 28.6877 138.628 29.4299C138.563 30.1398 138.612 30.8659 138.773 31.6081C138.966 32.318 139.257 32.9634 139.644 33.5442C139.966 34.0283 140.546 34.4316 141.385 34.7543C142.223 35.077 143.094 35.2706 143.997 35.3352C145.029 35.3997 145.932 35.1254 146.706 34.5123C147.48 33.8669 148.06 33.0763 148.447 32.1405C148.866 31.2047 149.06 30.1882 149.028 29.0911C148.995 27.9939 148.705 26.9936 148.157 26.09C147.77 25.4446 147.222 24.9767 146.512 24.6863C145.835 24.3636 145.11 24.2023 144.336 24.2023C143.594 24.17 142.852 24.2829 142.111 24.5411C141.369 24.767 140.74 25.1219 140.224 25.606Z" stroke="#C0BFBD" stroke-opacity="0.2" stroke-width="2" mask="url(#path-1-outside-1_229_2)"/>
<path d="M179.439 31.8501C179.439 32.8827 179.406 33.996 179.342 35.19C179.31 36.3839 179.261 37.4972 179.197 38.5299C179.197 39.4979 179.148 40.466 179.052 41.4341C178.987 42.2731 178.858 43.1766 178.665 44.1447C178.471 45.1451 178.197 46.0647 177.842 46.9037C177.391 48.0009 176.778 48.9367 176.004 49.7112C175.23 50.5179 174.231 51.0988 173.005 51.4537C171.973 51.7119 171.006 51.8732 170.103 51.9378C169.2 52.0346 168.232 52.0184 167.2 51.8894C166.523 51.7926 165.798 51.5989 165.024 51.3085C164.25 51.0504 163.524 50.7115 162.847 50.292C162.17 49.8725 161.573 49.3724 161.057 48.7915C160.541 48.2429 160.187 47.6137 159.993 46.9037C159.767 46.0325 159.751 45.2741 159.945 44.6288C160.17 43.9834 160.509 43.5155 160.96 43.225C161.412 42.9346 161.944 42.8862 162.557 43.0798C163.169 43.2734 163.75 43.7736 164.298 44.5804C164.685 45.1612 165.249 45.6291 165.991 45.9841C166.733 46.339 167.523 46.5488 168.361 46.6133C169.2 46.6779 170.006 46.5649 170.78 46.2745C171.586 46.0163 172.215 45.5484 172.667 44.8708C172.989 44.3867 173.215 43.6929 173.344 42.7894C173.505 41.8859 173.602 40.9985 173.634 40.1272C171.989 40.8048 170.296 41.063 168.555 40.9016C166.846 40.708 165.282 40.1756 163.863 39.3043C162.476 38.4008 161.347 37.2068 160.477 35.7224C159.638 34.2058 159.284 32.4955 159.413 30.5916C159.509 28.9459 159.848 27.3969 160.428 25.9448C161.041 24.4927 162.041 23.2826 163.427 22.3145C164.556 21.54 165.83 21.0399 167.249 20.814C168.668 20.5558 170.038 20.4267 171.36 20.4267C172.134 20.4267 172.892 20.4267 173.634 20.4267C174.408 20.4267 175.117 20.5236 175.762 20.7172C176.407 20.9108 176.988 21.2335 177.504 21.6853C178.02 22.137 178.407 22.7985 178.665 23.6698C179.084 25.0251 179.31 26.3643 179.342 27.6874C179.406 29.0104 179.439 30.398 179.439 31.8501ZM170.103 35.8676C170.425 35.8676 170.732 35.8354 171.022 35.7708C171.344 35.7063 171.651 35.6256 171.941 35.5288C172.489 35.3352 172.892 35.077 173.15 34.7543C173.44 34.4316 173.634 34.0767 173.731 33.6895C173.827 33.2699 173.86 32.8182 173.827 32.3341C173.827 31.8501 173.827 31.3499 173.827 30.8336C173.827 30.4141 173.811 29.9462 173.779 29.4299C173.779 28.9136 173.747 28.4295 173.682 27.9778C173.618 27.4937 173.521 27.0742 173.392 26.7193C173.263 26.3643 173.07 26.1384 172.812 26.0416C172.36 25.9125 171.844 25.8319 171.264 25.7996C170.683 25.7351 170.103 25.7351 169.522 25.7996C168.942 25.8319 168.378 25.9448 167.829 26.1384C167.313 26.2998 166.878 26.5257 166.523 26.8161C166.04 27.2356 165.669 27.7519 165.411 28.365C165.153 28.9781 164.991 29.6235 164.927 30.3012C164.895 30.9788 164.943 31.6403 165.072 32.2857C165.233 32.9311 165.507 33.512 165.894 34.0283C166.346 34.6737 166.959 35.1416 167.733 35.432C168.507 35.7224 169.297 35.8676 170.103 35.8676Z" stroke="#C0BFBD" stroke-opacity="0.2" stroke-width="2" mask="url(#path-1-outside-1_229_2)"/>
<path d="M189.795 37.1261C189.762 37.2875 189.73 37.4488 189.698 37.6102C189.698 37.7393 189.698 37.8845 189.698 38.0458L189.408 39.0623C189.343 39.1914 189.295 39.272 189.263 39.3043L189.118 39.5947C188.956 39.9497 188.666 40.2401 188.247 40.466C187.473 40.8532 186.651 40.9501 185.78 40.7564C185.232 40.6919 184.796 40.5305 184.474 40.2724C184.151 40.0465 183.926 39.7722 183.797 39.4495C183.668 39.1268 183.571 38.8041 183.506 38.4814C183.41 38.1588 183.361 37.8683 183.361 37.6102V10.5039C183.361 10.278 183.361 10.0844 183.361 9.92307C183.393 9.72946 183.426 9.55197 183.458 9.39062C183.49 9.16474 183.522 8.97113 183.555 8.80978C183.619 8.64843 183.684 8.47095 183.748 8.27733C183.845 7.95464 184.022 7.69648 184.28 7.50287C184.667 7.21244 185.038 7.0511 185.393 7.01883C185.619 6.95429 185.828 6.92202 186.022 6.92202C186.215 6.88975 186.441 6.87362 186.699 6.87362C187.15 6.87362 187.666 7.00269 188.247 7.26085C188.698 7.519 189.021 7.87397 189.214 8.32574C189.537 8.97113 189.698 9.56811 189.698 10.1167C189.73 10.4394 189.746 10.9234 189.746 11.5688C189.779 12.2142 189.795 12.6982 189.795 13.0209V13.2145C189.859 14.2472 189.891 15.2475 189.891 16.2156C189.891 17.1514 189.875 18.184 189.843 19.3135C189.843 20.4106 189.827 21.4755 189.795 22.5081C189.795 23.5085 189.795 24.5088 189.795 25.5092V35.674C189.795 35.8031 189.795 35.9322 189.795 36.0612C189.827 36.1581 189.843 36.271 189.843 36.4001C189.843 36.7228 189.827 36.9648 189.795 37.1261Z" stroke="#C0BFBD" stroke-opacity="0.2" stroke-width="2" mask="url(#path-1-outside-1_229_2)"/>
<path d="M210.49 34.3671C210.877 34.2703 211.264 34.2058 211.651 34.1735C212.071 34.1412 212.441 34.1896 212.764 34.3187C213.119 34.4478 213.409 34.6737 213.635 34.9964C213.86 35.2868 213.973 35.7063 213.973 36.2549C213.973 36.6421 213.876 37.0132 213.683 37.3682C213.489 37.7231 213.248 38.0458 212.957 38.3362C212.667 38.6267 212.345 38.8848 211.99 39.1107C211.635 39.3043 211.297 39.4657 210.974 39.5947C210.039 40.0142 208.959 40.3369 207.733 40.5628C206.54 40.7887 205.298 40.8694 204.009 40.8048C202.267 40.7403 200.59 40.4015 198.978 39.7884C197.398 39.143 196.156 38.0942 195.253 36.6421C194.415 35.2222 193.915 33.641 193.754 31.8985C193.592 30.156 193.673 28.5102 193.996 26.9613C194.35 25.0897 194.947 23.573 195.785 22.4113C196.656 21.2173 197.688 20.2654 198.881 19.5555C200.332 18.7165 201.961 18.2808 203.767 18.2486C205.573 18.2163 207.298 18.5713 208.942 19.3135C210.039 19.7975 211.022 20.459 211.893 21.298C212.764 22.1048 213.425 23.089 213.876 24.2507C214.005 24.5411 214.102 24.896 214.167 25.3156C214.263 25.7351 214.328 26.1868 214.36 26.6709C214.392 27.1226 214.392 27.5744 214.36 28.0262C214.328 28.4779 214.247 28.8813 214.118 29.2363C213.925 29.8171 213.683 30.2689 213.393 30.5916C213.102 30.9143 212.732 31.1563 212.28 31.3177C211.829 31.479 211.28 31.5919 210.635 31.6565C210.023 31.6887 209.281 31.721 208.41 31.7533C207.636 31.7856 206.911 31.8017 206.234 31.8017C205.556 31.8017 204.863 31.8017 204.154 31.8017C203.444 31.7694 202.702 31.7533 201.929 31.7533C201.187 31.721 200.348 31.6887 199.413 31.6565C199.316 32.3019 199.397 32.8666 199.655 33.3506C199.945 33.8024 200.332 34.1896 200.816 34.5123C201.3 34.8027 201.848 35.0286 202.461 35.19C203.073 35.3513 203.67 35.4481 204.25 35.4804C205.347 35.5449 206.395 35.4643 207.395 35.2384C208.394 34.9802 209.426 34.6898 210.49 34.3671ZM208.41 24.9767C207.798 24.2668 207.153 23.7505 206.475 23.4278C205.96 23.2019 205.411 23.1051 204.831 23.1374C204.283 23.1374 203.751 23.218 203.235 23.3794C202.299 23.6053 201.509 24.0893 200.864 24.8315C200.8 24.8961 200.687 25.0574 200.526 25.3156C200.365 25.5414 200.203 25.7835 200.042 26.0416C199.913 26.2998 199.816 26.5418 199.752 26.7677C199.687 26.9936 199.72 27.1065 199.849 27.1065H209.329C209.297 26.6547 209.217 26.2836 209.088 25.9932C208.959 25.6705 208.733 25.3317 208.41 24.9767Z" stroke="#C0BFBD" stroke-opacity="0.2" stroke-width="2" mask="url(#path-1-outside-1_229_2)"/>
<path d="M224.22 40.9985C224.22 41.8375 223.914 42.5474 223.301 43.1282C222.721 43.7414 222.011 44.0479 221.173 44.0479C220.334 44.0479 219.609 43.7414 218.996 43.1282C218.415 42.5474 218.125 41.8375 218.125 40.9985C218.125 40.1595 218.415 39.4334 218.996 38.8203C219.609 38.2072 220.334 37.9006 221.173 37.9006C222.011 37.9006 222.721 38.2072 223.301 38.8203C223.914 39.4334 224.22 40.1595 224.22 40.9985Z" stroke="#C0BFBD" stroke-opacity="0.2" stroke-width="2" mask="url(#path-1-outside-1_229_2)"/>
<path d="M257.8 37.707C257.832 37.9006 257.848 38.0942 257.848 38.2878C257.88 38.4492 257.896 38.6428 257.896 38.8687C257.896 39.2559 257.784 39.6109 257.558 39.9336C257.461 40.0949 257.332 40.2563 257.171 40.4176C257.01 40.5467 256.816 40.6596 256.59 40.7564C255.784 41.2082 254.93 41.3696 254.027 41.2405C253.575 41.1114 253.172 40.9016 252.817 40.6112C252.753 40.5467 252.704 40.5144 252.672 40.5144C252.64 40.4821 252.608 40.4337 252.576 40.3692C252.543 40.3369 252.511 40.3047 252.479 40.2724C252.447 40.2079 252.398 40.1595 252.334 40.1272C252.172 39.9658 252.043 39.8206 251.947 39.6916C251.85 39.5302 251.753 39.3689 251.656 39.2075C251.592 39.0462 251.511 38.9009 251.415 38.7719C251.35 38.6105 251.269 38.4492 251.173 38.2878C251.108 38.1588 251.044 38.0458 250.979 37.949C250.915 37.8199 250.866 37.6908 250.834 37.5618C250.705 37.2713 250.625 37.0132 250.592 36.7873L249.576 34.4155C247.351 34.4155 245.126 34.4316 242.901 34.4639C240.708 34.4639 238.499 34.4478 236.274 34.4155L235.258 36.7873C235.194 36.9164 235.145 37.0455 235.113 37.1745C235.113 37.3036 235.081 37.4327 235.016 37.5618C234.952 37.6908 234.887 37.8199 234.823 37.949C234.791 38.0458 234.742 38.1588 234.678 38.2878C234.581 38.4492 234.484 38.6105 234.388 38.7719C234.323 38.9009 234.243 39.0462 234.146 39.2075C234.081 39.3689 234.001 39.5302 233.904 39.6916C233.807 39.8206 233.678 39.9658 233.517 40.1272C233.452 40.1595 233.404 40.2079 233.372 40.2724C233.34 40.3047 233.307 40.3369 233.275 40.3692C233.243 40.4337 233.211 40.4821 233.178 40.5144C233.146 40.5144 233.098 40.5467 233.033 40.6112C232.678 40.9016 232.275 41.1114 231.824 41.2405C230.921 41.3696 230.066 41.2082 229.26 40.7564C229.034 40.6596 228.841 40.5467 228.68 40.4176C228.519 40.2563 228.39 40.0949 228.293 39.9336C228.067 39.6109 227.954 39.2559 227.954 38.8687C227.954 38.6428 227.954 38.4492 227.954 38.2878C227.986 38.0942 228.019 37.9006 228.051 37.707C228.115 37.4166 228.196 37.1261 228.293 36.8357C228.39 36.5453 228.438 36.4001 228.438 36.4001L238.499 11.6172L238.789 10.8427C238.854 10.6491 238.935 10.4717 239.031 10.3103C239.128 10.149 239.209 9.95534 239.273 9.72945C239.434 9.30995 239.612 8.93886 239.805 8.61616C239.902 8.42255 240.015 8.24507 240.144 8.08372C240.273 7.92237 240.402 7.76102 240.531 7.59968C240.724 7.34152 240.998 7.13177 241.353 6.97043C241.805 6.80908 242.321 6.72841 242.901 6.72841C243.514 6.72841 244.046 6.80908 244.497 6.97043C244.852 7.13177 245.126 7.34152 245.32 7.59968C245.545 7.8901 245.787 8.22893 246.045 8.61616C246.239 8.93886 246.416 9.30995 246.577 9.72945C246.642 9.95534 246.722 10.149 246.819 10.3103C246.916 10.4717 246.997 10.6491 247.061 10.8427L247.351 11.6172L257.413 36.4001C257.413 36.4001 257.461 36.5453 257.558 36.8357C257.655 37.1261 257.735 37.4166 257.8 37.707ZM246.336 25.848C245.916 24.9122 245.481 23.9441 245.029 22.9438C244.61 21.9434 244.159 20.9269 243.675 19.8943C243.546 19.6039 243.417 19.3135 243.288 19.023C243.159 18.7003 243.03 18.3938 242.901 18.1034C242.804 18.3938 242.691 18.7003 242.563 19.023C242.434 19.3135 242.305 19.6039 242.176 19.8943C241.692 20.9269 241.224 21.9434 240.773 22.9438C240.354 23.9441 239.934 24.9122 239.515 25.848L238.644 27.9778H247.206L246.336 25.848Z" stroke="#C0BFBD" stroke-opacity="0.2" stroke-width="2" mask="url(#path-1-outside-1_229_2)"/>
<path d="M263.276 35.8676L263.325 32.0437L263.373 24.9283C263.405 23.8957 263.421 22.8308 263.421 21.7337C263.421 20.6365 263.421 19.5071 263.421 18.3454C263.421 17.1837 263.421 16.1511 263.421 15.2475C263.421 14.344 263.454 13.3275 263.518 12.1981V12.0044C263.55 11.6818 263.567 11.3591 263.567 11.0364C263.599 10.6814 263.615 10.3264 263.615 9.97147C263.647 9.39063 263.825 8.76137 264.147 8.08372C264.373 7.63195 264.711 7.24472 265.163 6.92202C265.679 6.66387 266.179 6.53479 266.662 6.53479C266.92 6.53479 267.146 6.55092 267.34 6.58319C267.565 6.58319 267.775 6.59933 267.968 6.6316C268.388 6.69614 268.758 6.88975 269.081 7.21245C269.274 7.37379 269.452 7.63195 269.613 7.98691C269.678 8.18052 269.726 8.37414 269.758 8.56776C269.823 8.72911 269.871 8.90659 269.903 9.1002C269.935 9.32609 269.952 9.53584 269.952 9.72945C269.984 9.92307 270 10.1167 270 10.3103C270 10.5362 269.984 10.7459 269.952 10.9396C269.952 11.1009 269.952 11.2784 269.952 11.472V12.2949L269.661 37.4166V37.9006C269.661 37.9974 269.645 38.1265 269.613 38.2878C269.613 38.4169 269.597 38.5783 269.565 38.7719C269.5 38.9332 269.436 39.1107 269.371 39.3043C269.339 39.4657 269.291 39.6431 269.226 39.8368C269.129 39.9981 269.016 40.1595 268.887 40.3208C268.791 40.4499 268.662 40.579 268.5 40.708C268.242 40.9662 267.823 41.1437 267.243 41.2405C266.372 41.4341 265.55 41.3534 264.776 40.9985C264.389 40.7403 264.115 40.4176 263.954 40.0304C263.857 39.9336 263.808 39.8368 263.808 39.74C263.776 39.6754 263.744 39.627 263.712 39.5947C263.679 39.5625 263.647 39.5141 263.615 39.4495C263.55 39.2882 263.502 39.1268 263.47 38.9655C263.438 38.7719 263.421 38.5783 263.421 38.3846C263.389 38.2233 263.357 38.0619 263.325 37.9006C263.325 37.7393 263.309 37.5779 263.276 37.4166C263.244 37.1584 263.244 36.8841 263.276 36.5937V35.8676Z" stroke="#C0BFBD" stroke-opacity="0.2" stroke-width="2" mask="url(#path-1-outside-1_229_2)"/>
<path d="M40.6719 1.04347L6.10122 5.27032C2.91907 5.65939 0.654628 8.55614 1.04344 11.7404L3.15547 29.0372C3.54428 32.2215 6.43912 34.4874 9.62126 34.0983L44.192 29.8715C47.3741 29.4824 49.6386 26.5857 49.2498 23.4014L47.1377 6.1046C46.7489 2.92034 43.8541 0.654399 40.6719 1.04347Z" fill="#FA9F42"/>
<path d="M48.4108 22.466L19.1143 18.5362C15.9369 18.11 13.0159 20.342 12.5899 23.5215L10.7139 37.5264C10.2879 40.7058 12.5185 43.6289 15.6958 44.0551L44.9924 47.9848C48.1698 48.411 51.0908 46.179 51.5168 42.9995L53.3928 28.9947C53.8187 25.8152 51.5882 22.8922 48.4108 22.466Z" fill="#5941A9"/>
<path d="M9.68194 34.5946L10.6174 34.4803L10.2183 37.46C9.75575 40.9128 12.178 44.0877 15.6294 44.5506L44.9259 48.4803C48.3773 48.9433 51.5498 46.5188 52.0123 43.0659L53.8884 29.061C54.2984 26.0002 52.4415 23.1578 49.6104 22.2294L47.6341 6.044C47.2118 2.58591 44.0678 0.124541 40.6113 0.547166L6.04054 4.77402C2.58402 5.19663 0.124885 8.34297 0.547128 11.801L2.65915 29.0978C3.0814 32.5559 6.22536 35.0173 9.68194 34.5946Z" stroke="#C0BFBD" stroke-opacity="0.3"/>
</svg>
