<svg width="245" height="50" viewBox="0 0 245 50" fill="none" xmlns="http://www.w3.org/2000/svg">
<path d="M244 34.1194H237.79V9.55243H244V34.1194Z" fill="black"/>
<path d="M244 34.6194H244.5V34.1194V9.55243V9.05243H244H237.79H237.29V9.55243V34.1194V34.6194H237.79H244Z" stroke="#C0BFBD" stroke-opacity="0.2"/>
<path d="M235.058 34.003V34.1194H228.461C228.28 33.4984 228.06 32.7869 227.801 31.9848C227.568 31.1827 227.309 30.3289 227.025 29.4233H218.642C218.124 31.2345 217.646 32.7998 217.206 34.1194H210.608V34.0418L218.564 9.55243H227.102L235.058 34.003ZM222.756 13.9768C222.497 15.2964 222.122 16.9005 221.63 18.7893C221.138 20.6781 220.621 22.6057 220.078 24.572H225.628C225.058 22.6057 224.528 20.6781 224.036 18.7893C223.545 16.9005 223.17 15.2964 222.911 13.9768H222.756Z" fill="black"/>
<path d="M235.558 34.003V33.9237L235.534 33.8483L227.578 9.39772L227.465 9.05243H227.102H218.564H218.201L218.089 9.39794L210.132 33.8873L210.108 33.9626V34.0418V34.1194V34.6194H210.608H217.206H217.566L217.68 34.2775C218.093 33.0384 218.539 31.5867 219.018 29.9233H226.657C226.898 30.6965 227.119 31.4301 227.321 32.1242L227.323 32.1313L227.325 32.1383C227.583 32.9372 227.801 33.6441 227.981 34.2594L228.086 34.6194H228.461H235.058H235.558V34.1194V34.003ZM222.114 18.9152C222.39 17.8551 222.63 16.8827 222.833 15.9982C223.037 16.8827 223.277 17.8551 223.552 18.9152C223.992 20.6035 224.462 22.3224 224.963 24.072H220.734C221.215 22.3223 221.675 20.6033 222.114 18.9152Z" stroke="#C0BFBD" stroke-opacity="0.2"/>
<path d="M196.641 33.4984C195.917 33.7571 194.908 33.99 193.614 34.197C192.346 34.3781 190.833 34.4687 189.073 34.4687C186.848 34.4687 184.946 34.1841 183.368 33.6148C181.816 33.0197 180.639 32.0236 179.836 30.6264C179.034 29.2034 178.633 27.237 178.633 24.7273C178.633 21.3119 179.41 18.841 180.962 17.3145C182.54 15.7879 184.972 15.0247 188.258 15.0247C190.613 15.0247 192.463 15.361 193.808 16.0337C195.179 16.7064 196.15 17.6638 196.719 18.9057C197.314 20.1218 197.612 21.5707 197.612 23.2525C197.612 23.7441 197.586 24.2745 197.534 24.8437C197.508 25.4129 197.443 25.9692 197.34 26.5125L197.185 26.6678H184.416C184.597 27.8062 185.128 28.5565 186.007 28.9188C186.913 29.281 188.375 29.4621 190.393 29.4621C191.738 29.4621 192.851 29.4362 193.731 29.3845C194.636 29.3069 195.555 29.2034 196.486 29.074L196.641 29.1905V33.4984ZM192.217 22.5927C192.217 21.9717 192.113 21.4413 191.906 21.0015C191.725 20.5357 191.35 20.1864 190.781 19.9536C190.212 19.6948 189.371 19.5655 188.258 19.5655C186.628 19.5655 185.554 19.8501 185.037 20.4193C184.545 20.9626 184.3 21.6871 184.3 22.5927H192.217Z" fill="black"/>
<path d="M196.809 33.9693L197.141 33.8508V33.4984V29.1905V28.9405L196.941 28.7905L196.786 28.674L196.621 28.5504L196.417 28.5788C195.496 28.7067 194.589 28.809 193.694 28.8858C192.829 28.9365 191.73 28.9621 190.393 28.9621C188.387 28.9621 187.007 28.7796 186.195 28.4555C185.657 28.2331 185.267 27.826 185.048 27.1678H197.185H197.392L197.538 27.0213L197.693 26.8661L197.802 26.7573L197.831 26.6061C197.938 26.0423 198.006 25.4661 198.033 24.8777C198.085 24.3 198.112 23.7581 198.112 23.2525C198.112 21.5151 197.805 19.9894 197.171 18.6916C196.548 17.3358 195.489 16.3018 194.03 15.5857C192.587 14.8647 190.65 14.5247 188.258 14.5247C184.906 14.5247 182.323 15.3022 180.614 16.9551L180.614 16.9551L180.611 16.958C178.921 18.6202 178.133 21.252 178.133 24.7273C178.133 27.2808 178.54 29.3442 179.401 30.8719L179.401 30.8719L179.403 30.8754C180.264 32.3757 181.533 33.4469 183.189 34.0817L183.189 34.0818L183.199 34.0852C184.846 34.6793 186.808 34.9687 189.073 34.9687C190.848 34.9687 192.387 34.8774 193.685 34.692L193.685 34.692L193.693 34.6907C194.999 34.4817 196.043 34.2431 196.809 33.9693ZM191.44 21.1827L191.447 21.1988L191.454 21.2144C191.57 21.4599 191.65 21.7508 191.69 22.0927H184.83C184.903 21.5296 185.102 21.0924 185.407 20.7552C185.579 20.5671 185.876 20.3902 186.359 20.2622C186.839 20.1349 187.468 20.0655 188.258 20.0655C189.347 20.0655 190.102 20.1943 190.574 20.4088L190.583 20.4127L190.592 20.4164C191.065 20.6101 191.32 20.8733 191.44 21.1827Z" stroke="#C0BFBD" stroke-opacity="0.2"/>
<path d="M175.324 34.1194H169.114V8H175.324V34.1194Z" fill="black"/>
<path d="M175.324 34.6194H175.824V34.1194V8V7.5H175.324H169.114H168.614V8V34.1194V34.6194H169.114H175.324Z" stroke="#C0BFBD" stroke-opacity="0.2"/>
<path d="M148.453 32.8386C147.599 32.4764 146.978 32.0107 146.59 31.4415C146.202 30.8722 146.008 30.1866 146.008 29.3845C146.008 28.66 146.202 28.0261 146.59 27.4828C147.004 26.9395 147.547 26.5125 148.22 26.2021V26.0856C147.573 25.5682 147.095 24.9213 146.784 24.1451C146.5 23.343 146.357 22.4245 146.357 21.3896C146.357 19.3197 147.03 17.7414 148.375 16.6547C149.721 15.568 152.049 15.0247 155.361 15.0247C158.078 15.0247 160.148 15.4128 161.571 16.189H161.765C162.179 15.5163 162.709 14.96 163.356 14.5201C164.003 14.0803 164.792 13.8604 165.724 13.8604C166.008 13.8604 166.267 13.8733 166.5 13.8992C166.733 13.8992 166.953 13.9121 167.16 13.938V18.7116C166.668 18.6082 166.086 18.5564 165.413 18.5564C164.87 18.5564 164.352 18.6082 163.861 18.7116C164.145 19.462 164.288 20.3546 164.288 21.3896C164.288 23.6147 163.615 25.2189 162.27 26.2021C160.924 27.1852 158.621 27.6768 155.361 27.6768C154.611 27.6768 153.912 27.651 153.266 27.5992C152.619 27.5475 152.024 27.4699 151.48 27.3664C151.377 27.5734 151.325 27.8192 151.325 28.1038C151.325 28.5177 151.454 28.867 151.713 29.1516C151.998 29.4104 152.476 29.5397 153.149 29.5397H158.738C161.118 29.5397 162.891 29.9149 164.055 30.6652C165.245 31.4156 165.84 32.8645 165.84 35.012C165.84 37.1336 165.012 38.7507 163.356 39.8633C161.7 40.9759 158.906 41.5322 154.973 41.5322C151.739 41.5322 149.384 41.0923 147.91 40.2126C146.435 39.3588 145.698 38.1039 145.698 36.448C145.698 35.5424 145.943 34.7921 146.435 34.197C146.927 33.576 147.599 33.162 148.453 32.9551V32.8386ZM155.361 23.5241C156.577 23.5241 157.431 23.3818 157.923 23.0972C158.414 22.7867 158.66 22.2434 158.66 21.4672C158.66 20.691 158.414 20.1218 157.923 19.7595C157.431 19.3973 156.577 19.2162 155.361 19.2162C154.119 19.2162 153.253 19.3973 152.761 19.7595C152.269 20.1218 152.024 20.691 152.024 21.4672C152.024 22.2434 152.269 22.7867 152.761 23.0972C153.253 23.3818 154.119 23.5241 155.361 23.5241ZM155.711 36.9525C157.082 36.9525 158.091 36.8878 158.738 36.7585C159.385 36.6291 159.812 36.4351 160.019 36.1763C160.226 35.9176 160.329 35.5942 160.329 35.2061C160.329 34.7662 160.2 34.4169 159.941 34.1582C159.682 33.8736 159.294 33.7313 158.777 33.7313H152.839C152.321 33.7313 151.933 33.8736 151.674 34.1582C151.416 34.4169 151.286 34.7662 151.286 35.2061C151.286 35.5942 151.39 35.9176 151.597 36.1763C151.83 36.4351 152.256 36.6291 152.877 36.7585C153.524 36.8878 154.469 36.9525 155.711 36.9525Z" fill="black"/>
<path d="M146.177 31.7231C146.469 32.1515 146.864 32.5172 147.349 32.8263C146.839 33.0826 146.402 33.4339 146.046 33.8825C145.47 34.5816 145.198 35.4492 145.198 36.448C145.198 38.2876 146.035 39.7037 147.656 40.6437C149.251 41.5937 151.718 42.0322 154.973 42.0322C158.925 42.0322 161.849 41.4785 163.635 40.2783C165.439 39.0661 166.34 37.2876 166.34 35.012C166.34 32.7899 165.723 31.1274 164.324 30.2436C163.039 29.4168 161.152 29.0397 158.738 29.0397H153.149C152.539 29.0397 152.218 28.9223 152.066 28.796C151.909 28.6144 151.825 28.3934 151.825 28.1038C151.825 28.0435 151.828 27.9874 151.833 27.9352C152.271 28.0043 152.735 28.0584 153.226 28.0976C153.888 28.1506 154.6 28.1768 155.361 28.1768C158.642 28.1768 161.084 27.688 162.565 26.6057C164.08 25.4986 164.788 23.716 164.788 21.3896C164.788 20.5539 164.699 19.7922 164.514 19.1098C164.803 19.0743 165.103 19.0564 165.413 19.0564C166.062 19.0564 166.608 19.1065 167.057 19.2009L167.66 19.3279V18.7116V13.938V13.4966L167.222 13.4418C167 13.4142 166.769 13.4002 166.527 13.3992C166.28 13.373 166.012 13.3604 165.724 13.3604C164.711 13.3604 163.82 13.6004 163.075 14.1067C162.473 14.5163 161.962 15.0193 161.546 15.6131C160.034 14.8725 157.957 14.5247 155.361 14.5247C152.025 14.5247 149.547 15.0659 148.061 16.2657C146.575 17.4663 145.857 19.2016 145.857 21.3896C145.857 22.4696 146.006 23.4464 146.313 24.3123L146.316 24.3216L146.32 24.3308C146.583 24.9878 146.957 25.5635 147.44 26.0543C146.951 26.3569 146.534 26.7318 146.192 27.1798L146.188 27.1859L146.183 27.1922C145.729 27.8276 145.508 28.5652 145.508 29.3845C145.508 30.2701 145.723 31.0579 146.177 31.7231ZM159.571 34.4945L159.579 34.5033L159.587 34.5117C159.734 34.6582 159.829 34.8702 159.829 35.2061C159.829 35.501 159.752 35.7086 159.628 35.864C159.539 35.9754 159.268 36.1425 158.64 36.2682C158.044 36.3873 157.076 36.4525 155.711 36.4525C154.479 36.4525 153.575 36.3879 152.977 36.2686C152.401 36.1483 152.106 35.9871 151.978 35.8518C151.859 35.6978 151.786 35.4933 151.786 35.2061C151.786 34.8702 151.881 34.6582 152.028 34.5117L152.036 34.5033L152.044 34.4945C152.179 34.3466 152.411 34.2313 152.839 34.2313H158.777C159.204 34.2313 159.437 34.3466 159.571 34.4945ZM157.664 22.6693C157.293 22.8798 156.559 23.0241 155.361 23.0241C154.135 23.0241 153.39 22.8792 153.02 22.6693C152.725 22.479 152.524 22.1301 152.524 21.4672C152.524 20.8022 152.728 20.405 153.058 20.1621C153.411 19.9016 154.135 19.7162 155.361 19.7162C156.559 19.7162 157.272 19.9008 157.626 20.1621C157.956 20.405 158.16 20.8022 158.16 21.4672C158.16 22.1301 157.959 22.479 157.664 22.6693Z" stroke="#C0BFBD" stroke-opacity="0.2"/>
<path d="M124.359 24.8049C124.359 21.3378 125.097 18.841 126.572 17.3145C128.046 15.7879 130.543 15.0247 134.062 15.0247C136.416 15.0247 138.305 15.361 139.728 16.0337C141.151 16.7064 142.173 17.7673 142.794 19.2162C143.441 20.6392 143.765 22.5021 143.765 24.8049C143.765 27.0818 143.441 28.9317 142.794 30.3548C142.173 31.7778 141.151 32.8257 139.728 33.4984C138.305 34.1452 136.416 34.4687 134.062 34.4687C130.543 34.4687 128.046 33.7183 126.572 32.2177C125.097 30.6911 124.359 28.2202 124.359 24.8049ZM134.062 29.1516C135.563 29.1516 136.572 28.8282 137.089 28.1814C137.633 27.5087 137.904 26.3444 137.904 24.6884C137.904 23.1102 137.633 21.9847 137.089 21.3119C136.572 20.6134 135.563 20.2641 134.062 20.2641C132.613 20.2641 131.604 20.6134 131.035 21.3119C130.491 21.9847 130.22 23.1102 130.22 24.6884C130.22 26.3444 130.491 27.5087 131.035 28.1814C131.604 28.8282 132.613 29.1516 134.062 29.1516Z" fill="black"/>
<path d="M139.935 33.9536L139.935 33.9536L139.942 33.9504C141.472 33.2274 142.581 32.092 143.251 30.5582C143.937 29.0481 144.265 27.1214 144.265 24.8049C144.265 22.4642 143.937 20.5248 143.252 19.0142C142.583 17.4558 141.474 16.3059 139.942 15.5817C138.427 14.8657 136.457 14.5247 134.062 14.5247C130.493 14.5247 127.827 15.2953 126.212 16.9671C124.605 18.6309 123.859 21.2861 123.859 24.8049C123.859 28.2744 124.606 30.9024 126.212 32.5651L126.212 32.5651L126.215 32.5681C127.83 34.2118 130.494 34.9687 134.062 34.9687C136.455 34.9687 138.423 34.6411 139.935 33.9536ZM136.7 27.8672L136.699 27.869C136.331 28.3293 135.527 28.6516 134.062 28.6516C132.67 28.6516 131.845 28.3387 131.417 27.8589C130.991 27.3241 130.72 26.3117 130.72 24.6884C130.72 23.1421 130.991 22.1626 131.423 21.6269C131.852 21.101 132.673 20.7641 134.062 20.7641C135.517 20.7641 136.315 21.1075 136.687 21.6096L136.694 21.618L136.7 21.6261C137.133 22.1616 137.404 23.1413 137.404 24.6884C137.404 26.3202 137.13 27.3346 136.7 27.8672Z" stroke="#C0BFBD" stroke-opacity="0.2"/>
<path d="M103.021 24.8049C103.021 21.3378 103.759 18.841 105.233 17.3145C106.708 15.7879 109.205 15.0247 112.724 15.0247C115.078 15.0247 116.967 15.361 118.39 16.0337C119.813 16.7064 120.835 17.7673 121.456 19.2162C122.103 20.6392 122.426 22.5021 122.426 24.8049C122.426 27.0818 122.103 28.9317 121.456 30.3548C120.835 31.7778 119.813 32.8257 118.39 33.4984C116.967 34.1452 115.078 34.4687 112.724 34.4687C109.205 34.4687 106.708 33.7183 105.233 32.2177C103.759 30.6911 103.021 28.2202 103.021 24.8049ZM112.724 29.1516C114.225 29.1516 115.234 28.8282 115.751 28.1814C116.294 27.5087 116.566 26.3444 116.566 24.6884C116.566 23.1102 116.294 21.9847 115.751 21.3119C115.234 20.6134 114.225 20.2641 112.724 20.2641C111.275 20.2641 110.266 20.6134 109.697 21.3119C109.153 21.9847 108.882 23.1102 108.882 24.6884C108.882 26.3444 109.153 27.5087 109.697 28.1814C110.266 28.8282 111.275 29.1516 112.724 29.1516Z" fill="black"/>
<path d="M118.597 33.9536L118.597 33.9536L118.604 33.9504C120.133 33.2274 121.243 32.092 121.913 30.5582C122.599 29.0481 122.926 27.1214 122.926 24.8049C122.926 22.4642 122.599 20.5248 121.914 19.0142C121.244 17.4558 120.136 16.3059 118.604 15.5817C117.089 14.8657 115.119 14.5247 112.724 14.5247C109.154 14.5247 106.489 15.2953 104.874 16.9671C103.266 18.6309 102.521 21.2861 102.521 24.8049C102.521 28.2744 103.268 30.9024 104.874 32.5651L104.874 32.5651L104.877 32.5681C106.492 34.2118 109.156 34.9687 112.724 34.9687C115.117 34.9687 117.085 34.6411 118.597 33.9536ZM115.362 27.8672L115.361 27.869C114.992 28.3293 114.189 28.6516 112.724 28.6516C111.332 28.6516 110.507 28.3387 110.079 27.8589C109.653 27.3241 109.382 26.3118 109.382 24.6884C109.382 23.1421 109.653 22.1626 110.085 21.6269C110.514 21.101 111.335 20.7641 112.724 20.7641C114.179 20.7641 114.977 21.1075 115.349 21.6096L115.355 21.618L115.362 21.6261C115.795 22.1616 116.066 23.1413 116.066 24.6884C116.066 26.3202 115.792 27.3346 115.362 27.8672Z" stroke="#C0BFBD" stroke-opacity="0.2"/>
<path d="M101.095 28.8024V33.6925C99.8528 33.9512 98.6367 34.1453 97.4465 34.2746C96.2563 34.404 94.8462 34.4687 93.2162 34.4687C91.1204 34.4687 89.3481 34.2876 87.8992 33.9253C86.4761 33.5631 85.3248 32.9292 84.4451 32.0236C83.5912 31.0922 82.9703 29.7856 82.5822 28.1038C82.1941 26.422 82 24.2616 82 21.6224C82 19.0868 82.1941 17.004 82.5822 15.374C82.9703 13.7439 83.5912 12.4891 84.4451 11.6094C85.3248 10.7038 86.4761 10.0828 87.8992 9.74647C89.3481 9.38424 91.1204 9.20312 93.2162 9.20312C94.8462 9.20312 96.2563 9.26781 97.4465 9.39718C98.6367 9.50067 99.8528 9.69472 101.095 9.97933V15.0247L100.978 15.1023C99.8916 14.8436 98.8437 14.6625 97.8346 14.559C96.8256 14.4296 95.5836 14.3649 94.1088 14.3649C92.9187 14.3649 91.9355 14.4555 91.1593 14.6366C90.4089 14.7918 89.8138 15.1152 89.374 15.6068C88.9341 16.0984 88.6236 16.8229 88.4425 17.7802C88.2873 18.7375 88.2097 20.0183 88.2097 21.6224C88.2097 23.3042 88.2873 24.6626 88.4425 25.6975C88.6236 26.7066 88.9341 27.4699 89.374 27.9874C89.8138 28.5048 90.4089 28.8541 91.1593 29.0352C91.9355 29.2163 92.9187 29.3069 94.1088 29.3069C95.5578 29.3069 96.7868 29.2681 97.7958 29.1905C98.8308 29.087 99.8657 28.9059 100.901 28.6471L101.095 28.8024Z" fill="black"/>
<path d="M101.595 28.8024V28.5621L101.407 28.4119L101.213 28.2567L101.02 28.102L100.779 28.1621C99.7692 28.4146 98.7601 28.5913 97.7517 28.6924C96.7606 28.7684 95.5471 28.8069 94.1088 28.8069C92.9411 28.8069 92.0001 28.7178 91.2748 28.5488C90.6135 28.3888 90.1168 28.0893 89.7549 27.6635C89.3951 27.2402 89.1089 26.5755 88.9359 25.6162C88.7866 24.6168 88.7097 23.2884 88.7097 21.6224C88.7097 20.0339 88.7866 18.7855 88.935 17.8667C89.1069 16.9625 89.3906 16.3381 89.7466 15.9402C90.104 15.5408 90.5975 15.2634 91.2606 15.1262L91.2606 15.1264L91.2729 15.1235C91.9984 14.9542 92.9401 14.8649 94.1088 14.8649C95.5709 14.8649 96.7901 14.9291 97.7711 15.0549L97.771 15.0551L97.7836 15.0563C98.7688 15.1574 99.795 15.3345 100.862 15.5887L101.074 15.6392L101.256 15.5183L101.372 15.4407L101.595 15.2923V15.0247V9.97933V9.58095L101.206 9.49196C99.9453 9.20296 98.7082 9.00526 97.4952 8.89952C96.2831 8.76804 94.8559 8.70312 93.2162 8.70312C91.0961 8.70312 89.2813 8.88592 87.781 9.26062C86.2816 9.61554 85.0418 10.2775 84.0864 11.261L84.0863 11.2611C83.1508 12.2249 82.4974 13.5714 82.0958 15.2582C81.6953 16.9402 81.5 19.0656 81.5 21.6224C81.5 24.2817 81.6951 26.4836 82.095 28.2162C82.4957 29.9527 83.1468 31.3473 84.0765 32.3615L84.0814 32.3668L84.0864 32.372C85.0404 33.354 86.2781 34.0287 87.7758 34.4099L87.7779 34.4104C89.2788 34.7856 91.0946 34.9687 93.2162 34.9687C94.8583 34.9687 96.2873 34.9036 97.5006 34.7717C98.7078 34.6405 99.9398 34.4438 101.197 34.182L101.595 34.099V33.6925V28.8024Z" stroke="#C0BFBD" stroke-opacity="0.2"/>
<path d="M40.6719 1.04347L6.10122 5.27032C2.91907 5.65939 0.654628 8.55614 1.04344 11.7404L3.15547 29.0372C3.54428 32.2215 6.43912 34.4874 9.62126 34.0983L44.192 29.8715C47.3741 29.4824 49.6386 26.5857 49.2498 23.4014L47.1377 6.1046C46.7489 2.92034 43.8541 0.6544 40.6719 1.04347Z" fill="#FA9F42"/>
<path d="M48.4108 22.466L19.1143 18.5362C15.9369 18.11 13.0159 20.342 12.5899 23.5215L10.7139 37.5264C10.2879 40.7059 12.5185 43.6289 15.6958 44.0551L44.9924 47.9848C48.1698 48.411 51.0908 46.179 51.5168 42.9995L53.3928 28.9947C53.8187 25.8152 51.5882 22.8922 48.4108 22.466Z" fill="#5941A9"/>
<path d="M9.68194 34.5946L10.6174 34.4803L10.2183 37.46C9.75575 40.9128 12.178 44.0877 15.6294 44.5506L44.9259 48.4803C48.3773 48.9433 51.5498 46.5188 52.0123 43.0659L53.8884 29.061C54.2984 26.0002 52.4415 23.1579 49.6104 22.2294L47.6341 6.044C47.2118 2.58591 44.0678 0.124541 40.6113 0.547166L6.04054 4.77402C2.58402 5.19663 0.124885 8.34297 0.547128 11.801L2.65915 29.0978C3.0814 32.5559 6.22536 35.0173 9.68194 34.5946Z" stroke="#C0BFBD" stroke-opacity="0.2"/>
<path d="M40.6719 1.04347L6.10122 5.27032C2.91907 5.65939 0.654628 8.55614 1.04344 11.7404L3.15547 29.0372C3.54428 32.2215 6.43912 34.4874 9.62126 34.0983L44.192 29.8715C47.3741 29.4824 49.6386 26.5857 49.2498 23.4014L47.1377 6.1046C46.7489 2.92034 43.8541 0.654399 40.6719 1.04347Z" fill="#FA9F42"/>
<path d="M48.4108 22.466L19.1143 18.5362C15.9369 18.11 13.0159 20.342 12.5899 23.5215L10.7139 37.5264C10.2879 40.7058 12.5185 43.6289 15.6958 44.0551L44.9924 47.9848C48.1698 48.411 51.0908 46.179 51.5168 42.9995L53.3928 28.9947C53.8187 25.8152 51.5882 22.8922 48.4108 22.466Z" fill="#5941A9"/>
<path d="M9.68194 34.5946L10.6174 34.4803L10.2183 37.46C9.75575 40.9128 12.178 44.0877 15.6294 44.5506L44.9259 48.4803C48.3773 48.9433 51.5498 46.5188 52.0123 43.0659L53.8884 29.061C54.2984 26.0002 52.4415 23.1578 49.6104 22.2294L47.6341 6.044C47.2118 2.58591 44.0678 0.124541 40.6113 0.547166L6.04054 4.77402C2.58402 5.19663 0.124885 8.34297 0.547128 11.801L2.65915 29.0978C3.0814 32.5559 6.22536 35.0173 9.68194 34.5946Z" stroke="#C0BFBD" stroke-opacity="0.3"/>
</svg>
