<svg width="181" height="35" viewBox="0 0 181 35" fill="none" xmlns="http://www.w3.org/2000/svg">
<path d="M27.448 1.02898L4.40081 3.84688C2.27938 4.10626 0.769752 6.03743 1.02896 8.16027L2.43698 19.6915C2.69619 21.8143 4.62608 23.3249 6.74751 23.0656L29.7947 20.2477C31.9161 19.9883 33.4257 18.0571 33.1665 15.9343L31.7585 4.40307C31.4993 2.28023 29.5694 0.7696 27.448 1.02898Z" fill="#FA9F42"/>
<path d="M32.6072 15.3106L13.0762 12.6908C10.9579 12.4067 9.01057 13.8947 8.72662 16.0143L7.47591 25.3509C7.19196 27.4706 8.67897 29.4192 10.7972 29.7034L30.3283 32.3232C32.4465 32.6073 34.3939 31.1193 34.6778 28.9997L35.9285 19.6631C36.2125 17.5434 34.7255 15.5948 32.6072 15.3106Z" fill="#5941A9"/>
<path d="M67.9902 22.2444C68.2696 22.8683 68.2804 23.4814 68.0224 24.0837C67.7644 24.6646 67.356 25.2024 66.797 25.6972C66.238 26.192 65.5931 26.6223 64.8621 26.988C64.1527 27.3537 63.4754 27.6119 62.8305 27.7624C62.121 27.913 61.3686 27.9776 60.5731 27.9561C59.7992 27.9561 59.0145 27.8593 58.219 27.6656C57.4451 27.4935 56.6819 27.2354 55.9294 26.8912C55.1985 26.5255 54.5213 26.0844 53.8978 25.5681C53.1453 24.9443 52.5541 24.2021 52.1242 23.3415C51.7157 22.4595 51.4147 21.5237 51.2212 20.5341C51.0277 19.5445 50.9202 18.5549 50.8987 17.5653C50.8987 16.5542 50.931 15.6077 50.9955 14.7256C51.06 13.9297 51.2212 13.1014 51.4792 12.2409C51.7372 11.3804 52.0919 10.5414 52.5434 9.72388C53.0163 8.88487 53.5753 8.11041 54.2203 7.40049C54.8867 6.69056 55.6607 6.0882 56.5421 5.5934C57.2086 5.20617 57.9503 4.94801 58.7672 4.81894C59.6057 4.66835 60.4441 4.63608 61.2826 4.72213C62.1425 4.78667 62.9487 4.96953 63.7012 5.27071C64.4751 5.55037 65.1308 5.93761 65.6683 6.4324C66.0123 6.73358 66.367 7.15309 66.7325 7.69091C67.1195 8.22873 67.3989 8.77731 67.5709 9.33665C67.7429 9.89598 67.7429 10.423 67.5709 10.9178C67.4204 11.3911 66.9905 11.7138 66.281 11.8859C65.98 11.972 65.7113 11.9935 65.4748 11.9505C65.2383 11.8859 65.0233 11.7891 64.8299 11.66C64.6364 11.5094 64.4536 11.3373 64.2816 11.1437C64.1097 10.9501 63.9484 10.7565 63.7979 10.5629C63.282 9.93901 62.68 9.51951 61.992 9.30438C61.3041 9.06773 60.6161 9.01395 59.9282 9.14303C59.2617 9.25059 58.6275 9.53026 58.0255 9.98203C57.4451 10.4123 56.9936 10.9716 56.6711 11.66C56.3271 12.3915 56.0477 13.1982 55.8327 14.0802C55.6392 14.9408 55.5317 15.8228 55.5102 16.7263C55.4887 17.6084 55.5639 18.4689 55.7359 19.3079C55.9294 20.1469 56.2519 20.8891 56.7034 21.5345C57.0473 22.0508 57.4666 22.4703 57.961 22.793C58.477 23.1157 59.0252 23.3415 59.6057 23.4706C60.1862 23.5997 60.7666 23.6212 61.3471 23.5352C61.949 23.4491 62.5295 23.2555 63.0885 22.9543C63.2605 22.8683 63.4432 22.7499 63.6367 22.5993C63.8517 22.4272 64.0667 22.2551 64.2816 22.083C64.4966 21.9109 64.7116 21.7496 64.9266 21.599C65.1631 21.4484 65.4103 21.3408 65.6683 21.2763C66.0553 21.1472 66.4745 21.158 66.926 21.3086C67.3989 21.4592 67.7537 21.7711 67.9902 22.2444Z" fill="#EFF1ED"/>
<path d="M74.961 13.0799C75.6705 12.7357 76.4122 12.4883 77.1861 12.3377C77.9601 12.1871 78.7233 12.1548 79.4757 12.2409C80.2497 12.3269 80.9914 12.5313 81.7009 12.854C82.4318 13.1767 83.0983 13.6285 83.7002 14.2093C84.1947 14.7041 84.6247 15.3065 84.9901 16.0164C85.3556 16.7048 85.6244 17.3825 85.7963 18.0494C86.1618 19.2326 86.2156 20.4265 85.9576 21.6313C85.6996 22.836 85.2589 23.9547 84.6354 24.9873C84.3344 25.4606 83.9582 25.8908 83.5067 26.2781C83.0768 26.6438 82.6145 26.945 82.1201 27.1816C81.4751 27.4828 80.7764 27.6872 80.024 27.7947C79.2715 27.9238 78.5405 27.9561 77.8311 27.8915C76.5412 27.827 75.4017 27.5043 74.4128 26.9234C73.4454 26.3426 72.6607 25.6004 72.0587 24.6969C71.4782 23.7933 71.0913 22.7715 70.8978 21.6313C70.7258 20.4696 70.801 19.2864 71.1235 18.0816C71.4675 16.7909 71.962 15.7475 72.6069 14.9515C73.2734 14.134 74.0581 13.5101 74.961 13.0799ZM75.9285 17.404C75.606 17.7052 75.3587 18.0816 75.1868 18.5334C75.0148 18.9852 74.9073 19.4585 74.8643 19.9533C74.8213 20.4265 74.8535 20.9106 74.961 21.4054C75.09 21.8787 75.2835 22.3089 75.5415 22.6962C75.7565 23.0189 76.1434 23.2878 76.7024 23.5029C77.2614 23.718 77.8418 23.8471 78.4438 23.8901C79.1318 23.9331 79.7337 23.7503 80.2497 23.3415C80.7657 22.9113 81.1526 22.3842 81.4106 21.7603C81.6901 21.1365 81.8191 20.4588 81.7976 19.7274C81.7761 18.9959 81.5826 18.329 81.2171 17.7267C80.9591 17.2964 80.5937 16.9845 80.1207 16.7909C79.6692 16.5757 79.1855 16.4682 78.6695 16.4682C78.1751 16.4467 77.6806 16.522 77.1861 16.6941C76.6917 16.8446 76.2724 17.0813 75.9285 17.404Z" fill="#EFF1ED"/>
<path d="M92.8486 13.0799C93.558 12.7357 94.2997 12.4883 95.0737 12.3377C95.8476 12.1871 96.6108 12.1548 97.3633 12.2409C98.1372 12.3269 98.879 12.5313 99.5884 12.854C100.319 13.1767 100.986 13.6285 101.588 14.2093C102.082 14.7041 102.512 15.3065 102.878 16.0164C103.243 16.7048 103.512 17.3825 103.684 18.0494C104.049 19.2326 104.103 20.4265 103.845 21.6313C103.587 22.836 103.146 23.9547 102.523 24.9873C102.222 25.4606 101.846 25.8908 101.394 26.2781C100.964 26.6438 100.502 26.945 100.008 27.1816C99.3627 27.4828 98.664 27.6872 97.9115 27.7947C97.1591 27.9238 96.4281 27.9561 95.7187 27.8915C94.4287 27.827 93.2893 27.5043 92.3004 26.9234C91.3329 26.3426 90.5482 25.6004 89.9463 24.6969C89.3658 23.7933 88.9788 22.7715 88.7853 21.6313C88.6133 20.4696 88.6886 19.2864 89.0111 18.0816C89.355 16.7909 89.8495 15.7475 90.4945 14.9515C91.1609 14.134 91.9456 13.5101 92.8486 13.0799ZM93.816 17.404C93.4935 17.7052 93.2463 18.0816 93.0743 18.5334C92.9023 18.9852 92.7948 19.4585 92.7518 19.9533C92.7088 20.4265 92.7411 20.9106 92.8486 21.4054C92.9776 21.8787 93.1711 22.3089 93.429 22.6962C93.644 23.0189 94.031 23.2878 94.59 23.5029C95.1489 23.718 95.7294 23.8471 96.3314 23.8901C97.0193 23.9331 97.6213 23.7503 98.1372 23.3415C98.6532 22.9113 99.0402 22.3842 99.2982 21.7603C99.5777 21.1365 99.7066 20.4588 99.6852 19.7274C99.6637 18.9959 99.4702 18.329 99.1047 17.7267C98.8467 17.2964 98.4812 16.9845 98.0082 16.7909C97.5568 16.5757 97.0731 16.4682 96.5571 16.4682C96.0626 16.4467 95.5682 16.522 95.0737 16.6941C94.5792 16.8446 94.16 17.0813 93.816 17.404Z" fill="#EFF1ED"/>
<path d="M119.959 21.5667C119.959 22.2551 119.938 22.9973 119.895 23.7933C119.873 24.5893 119.841 25.3315 119.798 26.0199C119.798 26.6653 119.766 27.3107 119.701 27.9561C119.658 28.5154 119.572 29.1178 119.443 29.7631C119.314 30.43 119.131 31.0432 118.895 31.6025C118.594 32.3339 118.185 32.9578 117.669 33.4741C117.153 34.0119 116.487 34.3992 115.67 34.6358C114.982 34.8079 114.337 34.9155 113.735 34.9585C113.133 35.0231 112.488 35.0123 111.8 34.9262C111.349 34.8617 110.865 34.7326 110.349 34.539C109.833 34.3669 109.349 34.141 108.898 33.8614C108.447 33.5817 108.049 33.2482 107.705 32.861C107.361 32.4953 107.124 32.0758 106.995 31.6025C106.845 31.0216 106.834 30.5161 106.963 30.0858C107.114 29.6556 107.339 29.3436 107.64 29.15C107.941 28.9564 108.296 28.9241 108.705 29.0532C109.113 29.1823 109.5 29.5157 109.865 30.0536C110.123 30.4408 110.5 30.7527 110.994 30.9894C111.489 31.226 112.015 31.3659 112.574 31.4089C113.133 31.4519 113.671 31.3766 114.187 31.183C114.724 31.0109 115.143 30.699 115.444 30.2472C115.659 29.9245 115.81 29.462 115.896 28.8596C116.003 28.2572 116.068 27.6656 116.089 27.0848C114.993 27.5366 113.864 27.7087 112.703 27.6011C111.564 27.472 110.521 27.1171 109.575 26.5362C108.651 25.9338 107.898 25.1379 107.318 24.1483C106.759 23.1372 106.522 21.997 106.608 20.7277C106.673 19.6306 106.899 18.598 107.286 17.6299C107.694 16.6618 108.361 15.8551 109.285 15.2097C110.037 14.6934 110.887 14.3599 111.833 14.2093C112.778 14.0372 113.692 13.9512 114.574 13.9512C115.09 13.9512 115.595 13.9512 116.089 13.9512C116.605 13.9512 117.078 14.0157 117.508 14.1448C117.938 14.2739 118.325 14.489 118.669 14.7902C119.013 15.0913 119.271 15.5324 119.443 16.1132C119.723 17.0168 119.873 17.9095 119.895 18.7916C119.938 19.6736 119.959 20.5986 119.959 21.5667ZM113.735 24.2451C113.95 24.2451 114.154 24.2236 114.348 24.1805C114.563 24.1375 114.767 24.0837 114.961 24.0192C115.326 23.8901 115.595 23.718 115.767 23.5029C115.96 23.2878 116.089 23.0511 116.154 22.793C116.218 22.5133 116.24 22.2121 116.218 21.8894C116.218 21.5667 116.218 21.2333 116.218 20.8891C116.218 20.6094 116.208 20.2975 116.186 19.9533C116.186 19.6091 116.165 19.2864 116.122 18.9852C116.079 18.6625 116.014 18.3828 115.928 18.1462C115.842 17.9095 115.713 17.7589 115.541 17.6944C115.24 17.6084 114.896 17.5546 114.509 17.5331C114.122 17.49 113.735 17.49 113.348 17.5331C112.961 17.5546 112.585 17.6299 112.22 17.7589C111.876 17.8665 111.585 18.0171 111.349 18.2107C111.026 18.4904 110.779 18.8346 110.607 19.2433C110.435 19.6521 110.328 20.0823 110.285 20.5341C110.263 20.9859 110.295 21.4269 110.381 21.8572C110.489 22.2874 110.672 22.6746 110.93 23.0189C111.231 23.4491 111.639 23.761 112.155 23.9547C112.671 24.1483 113.198 24.2451 113.735 24.2451Z" fill="#EFF1ED"/>
<path d="M126.863 25.0841C126.842 25.1917 126.82 25.2992 126.799 25.4068C126.799 25.4928 126.799 25.5896 126.799 25.6972L126.605 26.3749C126.562 26.4609 126.53 26.5147 126.508 26.5362L126.412 26.7298C126.304 26.9665 126.111 27.1601 125.831 27.3107C125.315 27.5688 124.767 27.6334 124.187 27.5043C123.821 27.4613 123.531 27.3537 123.316 27.1816C123.101 27.031 122.95 26.8481 122.864 26.633C122.778 26.4179 122.714 26.2028 122.671 25.9876C122.606 25.7725 122.574 25.5789 122.574 25.4068V7.33595C122.574 7.18536 122.574 7.05628 122.574 6.94871C122.596 6.81964 122.617 6.70132 122.639 6.59375C122.66 6.44316 122.682 6.31408 122.703 6.20652C122.746 6.09895 122.789 5.98063 122.832 5.85156C122.897 5.63643 123.015 5.46432 123.187 5.33525C123.445 5.14163 123.692 5.03407 123.929 5.01255C124.079 4.96953 124.219 4.94801 124.348 4.94801C124.477 4.9265 124.627 4.91574 124.799 4.91574C125.1 4.91574 125.444 5.0018 125.831 5.1739C126.132 5.346 126.347 5.58265 126.476 5.88383C126.691 6.31408 126.799 6.71207 126.799 7.07779C126.82 7.29292 126.831 7.61561 126.831 8.04587C126.852 8.47613 126.863 8.79882 126.863 9.01395V9.14303C126.906 9.83144 126.928 10.4983 126.928 11.1437C126.928 11.7676 126.917 12.456 126.895 13.209C126.895 13.9404 126.885 14.6503 126.863 15.3387C126.863 16.0056 126.863 16.6725 126.863 17.3394V24.116C126.863 24.2021 126.863 24.2881 126.863 24.3742C126.885 24.4387 126.895 24.514 126.895 24.6C126.895 24.8152 126.885 24.9765 126.863 25.0841Z" fill="#EFF1ED"/>
<path d="M140.66 23.2447C140.918 23.1802 141.176 23.1372 141.434 23.1157C141.714 23.0941 141.961 23.1264 142.176 23.2125C142.412 23.2985 142.606 23.4491 142.756 23.6642C142.907 23.8579 142.982 24.1375 142.982 24.5032C142.982 24.7614 142.918 25.0088 142.789 25.2454C142.66 25.4821 142.498 25.6972 142.305 25.8908C142.111 26.0844 141.896 26.2565 141.66 26.4071C141.423 26.5362 141.198 26.6438 140.983 26.7298C140.359 27.0095 139.639 27.2246 138.822 27.3752C138.027 27.5258 137.199 27.5796 136.339 27.5366C135.178 27.4935 134.06 27.2676 132.985 26.8589C131.932 26.4286 131.104 25.7295 130.502 24.7614C129.943 23.8148 129.61 22.7607 129.502 21.599C129.395 20.4373 129.449 19.3401 129.664 18.3075C129.9 17.0598 130.298 16.0487 130.857 15.2742C131.437 14.4782 132.125 13.8436 132.921 13.3703C133.888 12.811 134.974 12.5206 136.178 12.499C137.382 12.4775 138.532 12.7142 139.628 13.209C140.359 13.5317 141.015 13.9727 141.595 14.532C142.176 15.0698 142.617 15.726 142.918 16.5004C143.004 16.6941 143.068 16.9307 143.111 17.2104C143.176 17.49 143.219 17.7912 143.24 18.1139C143.262 18.4151 143.262 18.7163 143.24 19.0175C143.219 19.3186 143.165 19.5875 143.079 19.8242C142.95 20.2114 142.789 20.5126 142.595 20.7277C142.402 20.9429 142.154 21.1042 141.853 21.2118C141.552 21.3193 141.187 21.3946 140.757 21.4377C140.349 21.4592 139.854 21.4807 139.274 21.5022C138.758 21.5237 138.274 21.5345 137.822 21.5345C137.371 21.5345 136.909 21.5345 136.436 21.5345C135.963 21.5129 135.468 21.5022 134.952 21.5022C134.458 21.4807 133.899 21.4592 133.275 21.4377C133.211 21.8679 133.265 22.2444 133.437 22.5671C133.63 22.8683 133.888 23.1264 134.211 23.3415C134.533 23.5352 134.899 23.6858 135.307 23.7933C135.716 23.9009 136.113 23.9654 136.5 23.9869C137.231 24.03 137.93 23.9762 138.596 23.8256C139.263 23.6535 139.951 23.4599 140.66 23.2447ZM139.274 16.9845C138.865 16.5112 138.435 16.167 137.984 15.9519C137.64 15.8013 137.274 15.7367 136.887 15.7582C136.522 15.7582 136.167 15.812 135.823 15.9196C135.2 16.0702 134.673 16.3929 134.243 16.8877C134.2 16.9307 134.125 17.0383 134.017 17.2104C133.91 17.361 133.802 17.5223 133.695 17.6944C133.609 17.8665 133.544 18.0279 133.501 18.1784C133.458 18.329 133.48 18.4043 133.566 18.4043H139.886C139.865 18.1032 139.811 17.8558 139.725 17.6621C139.639 17.447 139.489 17.2211 139.274 16.9845Z" fill="#EFF1ED"/>
<path d="M149.813 27.6656C149.813 28.225 149.609 28.6983 149.201 29.0855C148.814 29.4942 148.341 29.6986 147.782 29.6986C147.223 29.6986 146.739 29.4942 146.331 29.0855C145.944 28.6983 145.75 28.225 145.75 27.6656C145.75 27.1063 145.944 26.6223 146.331 26.2135C146.739 25.8048 147.223 25.6004 147.782 25.6004C148.341 25.6004 148.814 25.8048 149.201 26.2135C149.609 26.6223 149.813 27.1063 149.813 27.6656Z" fill="#EFF1ED"/>
<path d="M172.2 25.4713C172.221 25.6004 172.232 25.7295 172.232 25.8586C172.254 25.9661 172.264 26.0952 172.264 26.2458C172.264 26.5039 172.189 26.7406 172.039 26.9557C171.974 27.0633 171.888 27.1708 171.781 27.2784C171.673 27.3645 171.544 27.4398 171.394 27.5043C170.856 27.8055 170.286 27.913 169.684 27.827C169.383 27.7409 169.115 27.6011 168.878 27.4075C168.835 27.3645 168.803 27.3429 168.781 27.3429C168.76 27.3214 168.739 27.2892 168.717 27.2461C168.696 27.2246 168.674 27.2031 168.653 27.1816C168.631 27.1386 168.599 27.1063 168.556 27.0848C168.448 26.9772 168.362 26.8804 168.298 26.7944C168.233 26.6868 168.169 26.5792 168.104 26.4717C168.061 26.3641 168.008 26.2673 167.943 26.1812C167.9 26.0737 167.846 25.9661 167.782 25.8586C167.739 25.7725 167.696 25.6972 167.653 25.6327C167.61 25.5466 167.578 25.4606 167.556 25.3745C167.47 25.1809 167.416 25.0088 167.395 24.8582L166.718 23.277C165.234 23.277 163.751 23.2878 162.267 23.3093C160.806 23.3093 159.333 23.2985 157.849 23.277L157.172 24.8582C157.129 24.9443 157.097 25.0303 157.075 25.1164C157.075 25.2024 157.054 25.2885 157.011 25.3745C156.968 25.4606 156.925 25.5466 156.882 25.6327C156.86 25.6972 156.828 25.7725 156.785 25.8586C156.721 25.9661 156.656 26.0737 156.592 26.1812C156.549 26.2673 156.495 26.3641 156.431 26.4717C156.388 26.5792 156.334 26.6868 156.269 26.7944C156.205 26.8804 156.119 26.9772 156.011 27.0848C155.968 27.1063 155.936 27.1386 155.915 27.1816C155.893 27.2031 155.872 27.2246 155.85 27.2461C155.829 27.2892 155.807 27.3214 155.786 27.3429C155.764 27.3429 155.732 27.3645 155.689 27.4075C155.452 27.6011 155.184 27.7409 154.883 27.827C154.281 27.913 153.711 27.8055 153.173 27.5043C153.023 27.4398 152.894 27.3645 152.786 27.2784C152.679 27.1708 152.593 27.0633 152.529 26.9557C152.378 26.7406 152.303 26.5039 152.303 26.2458C152.303 26.0952 152.303 25.9661 152.303 25.8586C152.324 25.7295 152.346 25.6004 152.367 25.4713C152.41 25.2777 152.464 25.0841 152.529 24.8905C152.593 24.6969 152.625 24.6 152.625 24.6L159.333 8.07814L159.526 7.56183C159.569 7.43275 159.623 7.31443 159.688 7.20687C159.752 7.0993 159.806 6.97023 159.849 6.81964C159.956 6.53997 160.075 6.29257 160.204 6.07744C160.268 5.94836 160.343 5.83004 160.429 5.72248C160.515 5.61491 160.601 5.50735 160.687 5.39978C160.816 5.22768 160.999 5.08785 161.235 4.98028C161.536 4.87272 161.88 4.81894 162.267 4.81894C162.676 4.81894 163.031 4.87272 163.332 4.98028C163.568 5.08785 163.751 5.22768 163.88 5.39978C164.03 5.5934 164.192 5.81929 164.364 6.07744C164.493 6.29257 164.611 6.53997 164.718 6.81964C164.761 6.97023 164.815 7.0993 164.879 7.20687C164.944 7.31443 164.998 7.43275 165.041 7.56183L165.234 8.07814L171.942 24.6C171.942 24.6 171.974 24.6969 172.039 24.8905C172.103 25.0841 172.157 25.2777 172.2 25.4713ZM164.557 17.5653C164.278 16.9415 163.987 16.2961 163.686 15.6292C163.407 14.9623 163.106 14.2846 162.783 13.5962C162.697 13.4026 162.611 13.209 162.525 13.0154C162.439 12.8002 162.353 12.5959 162.267 12.4022C162.203 12.5959 162.128 12.8002 162.042 13.0154C161.956 13.209 161.87 13.4026 161.784 13.5962C161.461 14.2846 161.149 14.9623 160.848 15.6292C160.569 16.2961 160.29 16.9415 160.01 17.5653L159.43 18.9852H165.137L164.557 17.5653Z" fill="#EFF1ED"/>
<path d="M175.851 24.2451L175.883 21.6958L175.915 16.9522C175.937 16.2638 175.948 15.5539 175.948 14.8224C175.948 14.091 175.948 13.338 175.948 12.5636C175.948 11.7891 175.948 11.1007 175.948 10.4983C175.948 9.89598 175.969 9.21833 176.012 8.46537V8.3363C176.034 8.12117 176.044 7.90604 176.044 7.69091C176.066 7.45427 176.077 7.21762 176.077 6.98098C176.098 6.59375 176.216 6.17425 176.431 5.72248C176.582 5.4213 176.808 5.16314 177.109 4.94801C177.453 4.77591 177.786 4.68986 178.108 4.68986C178.28 4.68986 178.431 4.70062 178.56 4.72213C178.71 4.72213 178.85 4.73289 178.979 4.7544C179.258 4.79742 179.506 4.9265 179.721 5.14163C179.85 5.2492 179.968 5.4213 180.075 5.65794C180.118 5.78702 180.151 5.91609 180.172 6.04517C180.215 6.15274 180.247 6.27106 180.269 6.40013C180.29 6.55073 180.301 6.69056 180.301 6.81964C180.323 6.94871 180.333 7.07779 180.333 7.20687C180.333 7.35746 180.323 7.49729 180.301 7.62637C180.301 7.73393 180.301 7.85226 180.301 7.98133V8.52991L180.108 25.2777V25.6004C180.108 25.6649 180.097 25.751 180.075 25.8586C180.075 25.9446 180.065 26.0522 180.043 26.1812C180 26.2888 179.957 26.4071 179.914 26.5362C179.893 26.6438 179.86 26.7621 179.817 26.8912C179.753 26.9987 179.678 27.1063 179.592 27.2139C179.527 27.2999 179.441 27.386 179.334 27.472C179.162 27.6441 178.882 27.7624 178.495 27.827C177.915 27.9561 177.367 27.9023 176.851 27.6656C176.593 27.4935 176.41 27.2784 176.302 27.0203C176.238 26.9557 176.206 26.8912 176.206 26.8266C176.184 26.7836 176.163 26.7513 176.141 26.7298C176.12 26.7083 176.098 26.676 176.077 26.633C176.034 26.5255 176.001 26.4179 175.98 26.3103C175.958 26.1812 175.948 26.0522 175.948 25.9231C175.926 25.8155 175.905 25.708 175.883 25.6004C175.883 25.4928 175.872 25.3853 175.851 25.2777C175.829 25.1056 175.829 24.9227 175.851 24.7291V24.2451Z" fill="#EFF1ED"/>
<path d="M27.448 1.02898L4.40081 3.84688C2.27938 4.10626 0.769752 6.03743 1.02896 8.16027L2.43698 19.6915C2.69619 21.8143 4.62608 23.3249 6.74751 23.0656L29.7947 20.2477C31.9161 19.9883 33.4257 18.0571 33.1665 15.9343L31.7585 4.40307C31.4993 2.28023 29.5694 0.7696 27.448 1.02898Z" fill="#FA9F42"/>
<path d="M32.6072 15.3106L13.0762 12.6908C10.9579 12.4067 9.01057 13.8947 8.72662 16.0143L7.47591 25.3509C7.19196 27.4706 8.67897 29.4192 10.7972 29.7034L30.3283 32.3232C32.4465 32.6073 34.3939 31.1193 34.6778 28.9997L35.9285 19.6631C36.2125 17.5434 34.7255 15.5948 32.6072 15.3106Z" fill="#5941A9"/>
<path d="M6.80819 23.5619L7.21781 23.5118L6.98034 25.2845C6.65977 27.6775 8.33854 29.878 10.7308 30.1989L30.2618 32.8187C32.6541 33.1396 34.8528 31.4591 35.1734 29.066L36.4241 19.7295C36.7034 17.6446 35.4651 15.7059 33.5597 15.029L32.2548 4.34246C31.9622 1.94579 29.7831 0.239742 27.3873 0.532676L4.34013 3.35058C1.94433 3.6435 0.240009 5.82426 0.532647 8.22087L1.94066 19.7521C2.23331 22.1487 4.41233 23.8548 6.80819 23.5619Z" stroke="#EFF1ED"/>
</svg>
