<svg width="293" height="50" viewBox="0 0 293 50" fill="none" xmlns="http://www.w3.org/2000/svg">
<path d="M290.953 35.1332C290.845 36.486 290.526 37.4268 289.997 37.9555C289.468 38.4842 288.699 38.7485 287.688 38.7485C286.693 38.7485 285.9 38.3986 285.309 37.6989C284.733 36.9836 284.446 35.7008 284.446 33.8503V30.3516C284.446 28.5012 284.733 27.2261 285.309 26.5264C285.9 25.8111 286.724 25.4534 287.781 25.4534C288.839 25.4534 289.639 25.8033 290.184 26.503C290.728 27.2028 291 28.4856 291 30.3516V32.8474H286.218V34.1769C286.218 36.2605 286.716 37.3024 287.711 37.3024C288.193 37.3024 288.566 37.1313 288.831 36.7892C289.095 36.4471 289.282 35.8096 289.391 34.8766L290.953 35.1332ZM286.218 30.0251V31.3546H289.204V30.0251C289.204 27.9414 288.714 26.8996 287.735 26.8996C286.724 26.8996 286.218 27.9414 286.218 30.0251Z" fill="black"/>
<path d="M291.452 35.1733L291.489 34.7144L291.034 34.6398L289.472 34.3832L288.955 34.2983L288.894 34.8187C288.786 35.7445 288.609 36.2589 288.435 36.4835C288.277 36.6878 288.059 36.8024 287.711 36.8024C287.555 36.8024 287.439 36.7632 287.344 36.697C287.245 36.6279 287.14 36.5085 287.043 36.3055C286.843 35.8862 286.718 35.1948 286.718 34.1769V33.3474H291H291.5V32.8474V30.3516C291.5 28.475 291.234 27.0391 290.578 26.1961L290.184 26.503L290.578 26.1961C289.921 25.3505 288.96 24.9534 287.781 24.9534C286.598 24.9534 285.623 25.3608 284.923 26.2079L284.923 26.2079L284.923 26.2088C284.228 27.0533 283.946 28.4864 283.946 30.3516V33.8503C283.946 35.7175 284.229 37.1542 284.919 38.0123L284.919 38.0124L284.927 38.0215C285.622 38.8443 286.56 39.2485 287.688 39.2485C288.783 39.2485 289.699 38.9607 290.351 38.309C291.009 37.6508 291.34 36.5586 291.452 35.1733ZM288.704 30.8546H286.718V30.0251C286.718 29.0077 286.844 28.3175 287.047 27.8992C287.146 27.6968 287.253 27.577 287.354 27.507C287.452 27.4397 287.573 27.3996 287.735 27.3996C287.885 27.3996 287.997 27.4378 288.088 27.5028C288.185 27.5711 288.288 27.69 288.384 27.8937C288.582 28.314 288.704 29.0066 288.704 30.0251V30.8546Z" stroke="#C0BFBD" stroke-opacity="0.2"/>
<path d="M277.275 38.3986H275.479V25.8033H276.575L277.042 27.8092C277.368 26.2387 278.185 25.4534 279.491 25.4534C280.299 25.4534 280.914 25.8111 281.333 26.5264C281.769 27.2417 281.986 28.5478 281.986 30.4449V38.3986H280.19V29.8151C280.19 27.8714 279.809 26.8996 279.048 26.8996C277.897 26.8996 277.306 28.5634 277.275 31.891V38.3986Z" fill="black"/>
<path d="M277.275 38.8986H277.775V38.3986V31.8934C277.79 30.2462 277.946 29.0664 278.213 28.3148C278.482 27.5572 278.791 27.3996 279.048 27.3996C279.121 27.3996 279.173 27.4194 279.224 27.4627C279.284 27.5139 279.363 27.6163 279.439 27.8109C279.595 28.2082 279.69 28.8614 279.69 29.8151V38.3986V38.8986H280.19H281.986H282.486V38.3986V30.4449C282.486 29.4796 282.431 28.6494 282.316 27.9603C282.203 27.2784 282.026 26.704 281.763 26.2698C281.256 25.4087 280.481 24.9534 279.491 24.9534C278.73 24.9534 278.068 25.186 277.552 25.682C277.409 25.8194 277.281 25.9734 277.167 26.1428L277.062 25.69L276.972 25.3033H276.575H275.479H274.979V25.8033V38.3986V38.8986H275.479H277.275Z" stroke="#C0BFBD" stroke-opacity="0.2"/>
<path d="M270.741 38.3986V25.8033H272.537V38.3986H270.741ZM270.671 23.3309V21.1384H272.607V23.3309H270.671Z" fill="black"/>
<path d="M270.241 38.3986V38.8986H270.741H272.537H273.037V38.3986V25.8033V25.3033H272.537H270.741H270.241V25.8033V38.3986ZM270.171 23.3309V23.8309H270.671H272.607H273.107V23.3309V21.1384V20.6384H272.607H270.671H270.171V21.1384V23.3309Z" stroke="#C0BFBD" stroke-opacity="0.2"/>
<path d="M269.177 25.4534V27.2961H267.801C268.066 27.9647 268.198 28.8511 268.198 29.9551V30.165C268.198 31.891 267.926 33.0728 267.381 33.7104C266.853 34.3479 266.028 34.6667 264.909 34.6667C264.473 34.6667 264.077 34.62 263.719 34.5267C263.377 34.7755 263.206 35.1643 263.206 35.693C263.206 36.626 263.634 37.0925 264.489 37.0925H265.935C267.863 37.0925 268.827 38.0643 268.827 40.008C268.827 41.9673 267.863 42.947 265.935 42.947H263.883C261.97 42.947 261.014 41.9673 261.014 40.008C261.014 38.6708 261.465 37.7922 262.367 37.3724C261.993 37.0769 261.807 36.5404 261.807 35.763C261.807 34.9855 262.141 34.4257 262.81 34.0836C262.048 33.446 261.667 32.1398 261.667 30.165V29.9551C261.667 28.2291 261.931 27.0473 262.46 26.4097C262.988 25.7722 263.758 25.4534 264.769 25.4534C265.795 25.4534 266.573 25.6945 267.101 26.1765L268.921 25.4534H269.177ZM266.425 30.5849V29.5353C266.425 28.4779 266.293 27.7548 266.028 27.3661C265.78 26.9773 265.414 26.7829 264.932 26.7829C264.466 26.7829 264.1 26.9773 263.836 27.3661C263.572 27.7548 263.439 28.4779 263.439 29.5353V30.5849C263.439 31.6423 263.572 32.3653 263.836 32.7541C264.1 33.1428 264.466 33.3372 264.932 33.3372C265.414 33.3372 265.78 33.1428 266.028 32.7541C266.293 32.3653 266.425 31.6423 266.425 30.5849ZM266.075 38.5386H263.743C263.043 38.5386 262.693 39.0206 262.693 39.9847C262.693 40.9644 263.043 41.4542 263.743 41.4542H266.075C266.775 41.4542 267.125 40.9644 267.125 39.9847C267.125 39.0206 266.775 38.5386 266.075 38.5386Z" fill="black"/>
<path d="M269.677 25.4534V24.9534H269.177H268.921H268.825L268.736 24.9888L267.188 25.6041C266.558 25.1519 265.733 24.9534 264.769 24.9534C263.645 24.9534 262.719 25.3134 262.075 26.0906C261.425 26.8744 261.167 28.2173 261.167 29.9551V30.165C261.167 31.8154 261.424 33.1398 262.051 33.9964C261.885 34.1433 261.743 34.312 261.628 34.5036C261.407 34.8748 261.307 35.3014 261.307 35.763C261.307 36.3228 261.396 36.8357 261.621 37.2446C260.857 37.8423 260.514 38.8065 260.514 40.008C260.514 41.0618 260.771 41.9445 261.373 42.5615C261.978 43.1808 262.846 43.447 263.883 43.447H265.935C266.978 43.447 267.852 43.1813 268.461 42.5629C269.068 41.946 269.327 41.0628 269.327 40.008C269.327 38.9601 269.067 38.0821 268.459 37.4692C267.851 36.8556 266.977 36.5925 265.935 36.5925H264.489C264.15 36.5925 263.985 36.5021 263.895 36.4047C263.799 36.2992 263.706 36.0927 263.706 35.693C263.706 35.402 263.769 35.2081 263.869 35.0731C264.196 35.1363 264.543 35.1667 264.909 35.1667C266.12 35.1667 267.11 34.8192 267.764 34.0323C268.432 33.2472 268.698 31.9025 268.698 30.165V29.9551C268.698 29.1392 268.628 28.4164 268.479 27.7961H269.177H269.677V27.2961V25.4534ZM265.607 27.6356L265.607 27.6357L265.615 27.6472C265.692 27.7607 265.774 27.9623 265.834 28.2898C265.893 28.6119 265.925 29.0248 265.925 29.5353V30.5849C265.925 31.0953 265.893 31.5082 265.834 31.8303C265.774 32.1578 265.692 32.3594 265.615 32.4729L265.615 32.4728L265.607 32.4845C265.455 32.7222 265.253 32.8372 264.932 32.8372C264.633 32.8372 264.422 32.726 264.249 32.4729C264.172 32.3594 264.09 32.1578 264.03 31.8303C263.972 31.5082 263.939 31.0953 263.939 30.5849V29.5353C263.939 29.0248 263.972 28.6119 264.03 28.2898C264.09 27.9623 264.172 27.7607 264.249 27.6472C264.422 27.3941 264.633 27.2829 264.932 27.2829C265.253 27.2829 265.455 27.398 265.607 27.6356ZM263.193 39.9847C263.193 39.5483 263.275 39.3112 263.36 39.1938C263.424 39.1062 263.521 39.0386 263.743 39.0386H266.075C266.297 39.0386 266.394 39.1062 266.458 39.1938C266.543 39.3112 266.625 39.5483 266.625 39.9847C266.625 40.4301 266.542 40.6744 266.455 40.7962C266.391 40.887 266.294 40.9542 266.075 40.9542H263.743C263.524 40.9542 263.427 40.887 263.362 40.7962C263.275 40.6744 263.193 40.4301 263.193 39.9847Z" stroke="#C0BFBD" stroke-opacity="0.2"/>
<path d="M254.542 38.3986H252.746V25.8033H253.843L254.309 27.8092C254.636 26.2387 255.452 25.4534 256.758 25.4534C257.567 25.4534 258.181 25.8111 258.601 26.5264C259.036 27.2417 259.254 28.5478 259.254 30.4449V38.3986H257.458V29.8151C257.458 27.8714 257.077 26.8996 256.315 26.8996C255.164 26.8996 254.574 28.5634 254.542 31.891V38.3986Z" fill="black"/>
<path d="M254.542 38.8986H255.042V38.3986V31.8934C255.058 30.2462 255.213 29.0664 255.48 28.3148C255.749 27.5572 256.059 27.3996 256.315 27.3996C256.389 27.3996 256.44 27.4194 256.491 27.4627C256.552 27.5139 256.631 27.6163 256.707 27.8109C256.863 28.2082 256.958 28.8614 256.958 29.8151V38.3986V38.8986H257.458H259.254H259.754V38.3986V30.4449C259.754 29.4796 259.699 28.6494 259.584 27.9603C259.47 27.2784 259.293 26.704 259.03 26.2698C258.523 25.4087 257.748 24.9534 256.758 24.9534C255.997 24.9534 255.335 25.186 254.82 25.682C254.677 25.8194 254.549 25.9734 254.435 26.1428L254.33 25.69L254.24 25.3033H253.843H252.746H252.246V25.8033V38.3986V38.8986H252.746H254.542Z" stroke="#C0BFBD" stroke-opacity="0.2"/>
<path d="M246.23 31.0047V36.9059H250.289V38.3986H244.364V22.0714H250.219V23.5641H246.23V29.5119H249.869V31.0047H246.23Z" fill="black"/>
<path d="M250.789 36.9059V36.4059H250.289H246.73V31.5047H249.869H250.369V31.0047V29.5119V29.0119H249.869H246.73V24.0641H250.219H250.719V23.5641V22.0714V21.5714H250.219H244.364H243.864V22.0714V38.3986V38.8986H244.364H250.289H250.789V38.3986V36.9059Z" stroke="#C0BFBD" stroke-opacity="0.2"/>
<path d="M233.518 38.3986H231.722V21.1384H233.425V27.2961C233.798 26.0677 234.568 25.4534 235.734 25.4534C236.543 25.4534 237.157 25.8111 237.577 26.5264C238.012 27.2417 238.23 28.5478 238.23 30.4449V38.3986H236.434V29.8152C236.434 27.8714 236.053 26.8996 235.291 26.8996C234.14 26.8996 233.549 28.5634 233.518 31.8911V38.3986Z" fill="black"/>
<path d="M233.518 38.8986H234.018V38.3986V31.8934C234.034 30.2462 234.189 29.0664 234.456 28.3148C234.725 27.5572 235.035 27.3996 235.291 27.3996C235.365 27.3996 235.416 27.4194 235.467 27.4627C235.527 27.5139 235.606 27.6163 235.683 27.8109C235.838 28.2082 235.934 28.8614 235.934 29.8152V38.3986V38.8986H236.434H238.23H238.73V38.3986V30.4449C238.73 29.4796 238.675 28.6494 238.56 27.9603C238.446 27.2785 238.269 26.704 238.006 26.2699C237.499 25.4087 236.724 24.9534 235.734 24.9534C235.059 24.9534 234.459 25.133 233.97 25.5233C233.955 25.5355 233.94 25.5478 233.925 25.5603V21.1384V20.6384H233.425H231.722H231.222V21.1384V38.3986V38.8986H231.722H233.518Z" stroke="#C0BFBD" stroke-opacity="0.2"/>
<path d="M229.607 34.7367C229.482 36.245 229.148 37.2946 228.604 37.8855C228.06 38.4608 227.313 38.7485 226.365 38.7485C225.432 38.7485 224.693 38.422 224.149 37.7689C223.605 37.1002 223.332 35.9495 223.332 34.3168V30.3516C223.332 28.5012 223.605 27.2261 224.149 26.5264C224.693 25.8111 225.432 25.4534 226.365 25.4534C227.313 25.4534 228.052 25.71 228.58 26.2231C229.109 26.7363 229.428 27.6615 229.537 28.9988L227.904 29.442C227.842 27.747 227.368 26.8996 226.481 26.8996C226.03 26.8996 225.688 27.1017 225.455 27.506C225.222 27.9103 225.105 28.75 225.105 30.0251V34.4801C225.105 35.5686 225.222 36.3072 225.455 36.6959C225.704 37.0847 226.054 37.2791 226.505 37.2791C226.955 37.2791 227.305 37.0925 227.554 36.7193C227.803 36.3305 227.982 35.5919 228.091 34.5034L229.607 34.7367Z" fill="black"/>
<path d="M230.105 34.7778L230.143 34.3133L229.683 34.2425L228.167 34.0092L227.646 33.9291L227.593 34.4537C227.485 35.5383 227.313 36.166 227.135 36.4459C226.98 36.6763 226.788 36.7791 226.505 36.7791C226.231 36.7791 226.039 36.6774 225.88 36.4329C225.812 36.3166 225.739 36.1085 225.686 35.7724C225.634 35.4376 225.605 35.0089 225.605 34.4801V30.0251C225.605 29.4003 225.634 28.8965 225.688 28.5078C225.743 28.1083 225.82 27.8738 225.888 27.7559C226.036 27.4997 226.217 27.3996 226.481 27.3996C226.723 27.3996 226.906 27.4951 227.065 27.7793C227.245 28.1 227.374 28.6411 227.404 29.4603L227.427 30.0894L228.035 29.9245L229.668 29.4813L230.069 29.3725L230.035 28.9582C229.924 27.5886 229.592 26.508 228.929 25.8644C228.282 25.2368 227.404 24.9534 226.365 24.9534C225.283 24.9534 224.395 25.3779 223.752 26.2215C223.098 27.0643 222.832 28.491 222.832 30.3516V34.3168C222.832 35.9754 223.103 37.276 223.761 38.0845L223.761 38.0845L223.765 38.089C224.414 38.8681 225.3 39.2485 226.365 39.2485C227.421 39.2485 228.31 38.9238 228.967 38.2291L228.967 38.2291L228.972 38.2242C229.634 37.5054 229.978 36.3122 230.105 34.7778Z" stroke="#C0BFBD" stroke-opacity="0.2"/>
<path d="M221.541 25.4534L222.007 25.4768L221.867 27.4594C221.65 27.3505 221.44 27.2961 221.238 27.2961C220.056 27.2961 219.457 28.5245 219.442 30.9814V38.3986H217.646V25.8033H218.742L219.255 27.9492C219.566 26.2853 220.328 25.4534 221.541 25.4534Z" fill="black"/>
<path d="M221.566 24.9541L221.553 24.9534H221.541C220.806 24.9534 220.174 25.2119 219.691 25.7397C219.565 25.8771 219.452 26.03 219.35 26.1973L219.228 25.687L219.136 25.3033H218.742H217.646H217.146V25.8033V38.3986V38.8986H217.646H219.442H219.942V38.3986V30.983C219.949 29.7797 220.102 28.9491 220.352 28.4365C220.473 28.1867 220.609 28.0314 220.744 27.938C220.876 27.8474 221.034 27.7961 221.238 27.7961C221.348 27.7961 221.481 27.8254 221.644 27.9066L222.313 28.2414L222.366 27.4946L222.506 25.512L222.542 25.0029L222.032 24.9774L221.566 24.9541Z" stroke="#C0BFBD" stroke-opacity="0.2"/>
<path d="M208.638 34.5034C208.638 33.0262 208.856 32.0232 209.291 31.4945C209.727 30.9503 210.349 30.6782 211.157 30.6782C211.966 30.6782 212.604 30.9892 213.07 31.6112V29.1621C213.07 27.6693 212.604 26.9229 211.671 26.9229C210.877 26.9229 210.123 27.3816 209.408 28.299L208.778 26.9929C209.136 26.5575 209.587 26.192 210.131 25.8966C210.691 25.6012 211.258 25.4534 211.834 25.4534C213.855 25.4534 214.866 26.8218 214.866 29.5586V38.3986H213.77L213.397 36.8825C213.225 37.5045 212.938 37.971 212.534 38.282C212.145 38.593 211.702 38.7485 211.204 38.7485C210.364 38.7485 209.727 38.4842 209.291 37.9555C208.856 37.4112 208.638 36.4005 208.638 34.9233V34.5034ZM211.577 37.2791C212.028 37.2791 212.378 37.1158 212.627 36.7892C212.891 36.4627 213.039 35.8718 213.07 35.0166V34.3868C213.039 33.4694 212.891 32.8318 212.627 32.4742C212.378 32.1165 212.028 31.9377 211.577 31.9377C210.8 31.9377 210.411 32.6763 210.411 34.1535V35.0632C210.411 36.5404 210.8 37.2791 211.577 37.2791Z" fill="black"/>
<path d="M212.57 30.5183C212.156 30.2918 211.682 30.1782 211.157 30.1782C210.225 30.1782 209.449 30.4987 208.903 31.1795C208.617 31.528 208.431 31.995 208.313 32.5372C208.194 33.0851 208.138 33.7433 208.138 34.5034V34.9233C208.138 35.6836 208.194 36.3433 208.313 36.8945C208.431 37.4419 208.617 37.9131 208.901 38.2678L208.901 38.2679L208.905 38.2733C209.457 38.9432 210.252 39.2485 211.204 39.2485C211.814 39.2485 212.366 39.0553 212.842 38.6754C212.985 38.5649 213.115 38.4403 213.231 38.3028L213.284 38.5182L213.378 38.8986H213.77H214.866H215.366V38.3986V29.5586C215.366 28.1433 215.107 26.9911 214.51 26.1826C213.892 25.3459 212.969 24.9534 211.834 24.9534C211.169 24.9534 210.522 25.1249 209.898 25.4544L209.898 25.4544L209.893 25.4572C209.297 25.7803 208.794 26.1855 208.392 26.6755L208.189 26.9223L208.328 27.21L208.958 28.5162L209.307 29.2414L209.802 28.6065C210.469 27.7516 211.093 27.4229 211.671 27.4229C211.977 27.4229 212.161 27.531 212.296 27.7477C212.456 28.0036 212.57 28.4516 212.57 29.1621V30.5183ZM212.238 36.4746L212.234 36.4804L212.229 36.4862C212.085 36.6752 211.89 36.7791 211.577 36.7791C211.465 36.7791 211.39 36.7536 211.335 36.7182C211.277 36.6815 211.21 36.6157 211.145 36.4922C211.007 36.2306 210.911 35.7743 210.911 35.0632V34.1535C210.911 33.4425 211.007 32.9862 211.145 32.7245C211.21 32.6011 211.277 32.5352 211.335 32.4986C211.39 32.4632 211.465 32.4377 211.577 32.4377C211.871 32.4377 212.065 32.5419 212.216 32.7597L212.22 32.7656L212.225 32.7714C212.392 32.9971 212.539 33.4965 212.57 34.3954V35.0073C212.539 35.8416 212.392 36.2843 212.238 36.4746Z" stroke="#C0BFBD" stroke-opacity="0.2"/>
<path d="M206.401 35.1332C206.293 36.486 205.974 37.4268 205.445 37.9555C204.916 38.4842 204.147 38.7485 203.136 38.7485C202.141 38.7485 201.348 38.3986 200.757 37.6989C200.181 36.9836 199.894 35.7008 199.894 33.8503V30.3516C199.894 28.5012 200.181 27.2261 200.757 26.5264C201.348 25.8111 202.172 25.4534 203.229 25.4534C204.287 25.4534 205.087 25.8033 205.632 26.503C206.176 27.2028 206.448 28.4856 206.448 30.3516V32.8474H201.666V34.1769C201.666 36.2605 202.164 37.3024 203.159 37.3024C203.641 37.3024 204.014 37.1313 204.279 36.7892C204.543 36.4471 204.73 35.8096 204.839 34.8766L206.401 35.1332ZM201.666 30.0251V31.3546H204.652V30.0251C204.652 27.9414 204.162 26.8996 203.183 26.8996C202.172 26.8996 201.666 27.9414 201.666 30.0251Z" fill="black"/>
<path d="M206.9 35.1733L206.937 34.7144L206.482 34.6398L204.92 34.3832L204.403 34.2983L204.342 34.8187C204.234 35.7445 204.057 36.2589 203.883 36.4835C203.725 36.6878 203.507 36.8024 203.159 36.8024C203.003 36.8024 202.887 36.7632 202.792 36.697C202.693 36.6279 202.588 36.5085 202.491 36.3055C202.291 35.8862 202.166 35.1948 202.166 34.1769V33.3474H206.448H206.948V32.8474V30.3516C206.948 28.475 206.682 27.0391 206.026 26.1961L205.632 26.503L206.026 26.1961C205.369 25.3505 204.408 24.9534 203.229 24.9534C202.046 24.9534 201.071 25.3608 200.371 26.2079L200.371 26.2079L200.371 26.2088C199.676 27.0533 199.394 28.4864 199.394 30.3516V33.8503C199.394 35.7175 199.677 37.1542 200.367 38.0123L200.367 38.0124L200.375 38.0215C201.07 38.8443 202.008 39.2485 203.136 39.2485C204.231 39.2485 205.147 38.9607 205.799 38.309C206.457 37.6508 206.788 36.5586 206.9 35.1733ZM204.152 30.8546H202.166V30.0251C202.166 29.0077 202.292 28.3175 202.495 27.8992C202.594 27.6968 202.701 27.577 202.802 27.507C202.9 27.4397 203.021 27.3996 203.183 27.3996C203.333 27.3996 203.445 27.4378 203.536 27.5028C203.633 27.5711 203.736 27.69 203.832 27.8937C204.03 28.314 204.152 29.0066 204.152 30.0251V30.8546Z" stroke="#C0BFBD" stroke-opacity="0.2"/>
<path d="M195.942 34.7366C195.942 33.4927 195.522 32.5364 194.682 31.8677L192.816 30.4916C191.417 29.4964 190.717 28.0269 190.717 26.0832C190.717 24.466 191.02 23.3386 191.627 22.7011C192.249 22.048 193.088 21.7215 194.146 21.7215C195.219 21.7215 196.051 22.0247 196.641 22.6311C197.232 23.222 197.59 24.3027 197.714 25.8733L195.942 26.2698C195.88 24.2794 195.296 23.2842 194.192 23.2842C193.104 23.2842 192.56 24.1317 192.56 25.8266C192.56 26.573 192.637 27.1794 192.793 27.6459C192.964 28.1124 193.283 28.5323 193.749 28.9055L195.592 30.2816C196.027 30.5926 196.377 30.8881 196.641 31.168C196.906 31.4479 197.155 31.8988 197.388 32.5208C197.637 33.1272 197.761 33.8503 197.761 34.69C197.761 36.1828 197.435 37.2324 196.781 37.8388C196.144 38.4453 195.273 38.7485 194.169 38.7485C193.065 38.7485 192.202 38.3909 191.58 37.6756C190.958 36.9603 190.577 35.6852 190.437 33.8503L192.186 33.5471C192.249 34.8688 192.435 35.8096 192.746 36.3694C193.073 36.9292 193.524 37.2091 194.099 37.2091C195.328 37.2091 195.942 36.3849 195.942 34.7366Z" fill="black"/>
<path d="M191.265 22.3563L191.264 22.3565C190.52 23.139 190.217 24.4342 190.217 26.0832C190.217 28.1625 190.975 29.7941 192.523 30.8965L194.378 32.2644C195.074 32.8222 195.442 33.6215 195.442 34.7366C195.442 35.5132 195.295 36.0046 195.08 36.2922C194.886 36.5522 194.59 36.7091 194.099 36.7091C193.728 36.7091 193.431 36.5481 193.181 36.122C192.931 35.6686 192.747 34.8292 192.686 33.5236L192.659 32.9577L192.101 33.0544L190.352 33.3577L189.904 33.4353L189.939 33.8883C190.08 35.7448 190.469 37.1603 191.203 38.0037C191.936 38.8466 192.947 39.2485 194.169 39.2485C195.366 39.2485 196.371 38.9177 197.124 38.2032C197.928 37.4546 198.261 36.2309 198.261 34.69C198.261 33.8059 198.131 33.0176 197.853 32.3382C197.612 31.6958 197.336 31.1747 197.005 30.8247C196.713 30.5152 196.337 30.1999 195.887 29.8779L194.055 28.51C193.652 28.1858 193.399 27.8412 193.265 27.4807C193.134 27.0849 193.06 26.5398 193.06 25.8266C193.06 25.0166 193.193 24.4951 193.389 24.19C193.56 23.9228 193.802 23.7842 194.192 23.7842C194.557 23.7842 194.82 23.9305 195.026 24.2834C195.255 24.674 195.412 25.321 195.442 26.2854L195.461 26.8897L196.051 26.7577L197.824 26.3612L198.247 26.2665L198.213 25.8338C198.086 24.2382 197.719 23.0031 196.997 22.2799C196.289 21.5542 195.314 21.2215 194.146 21.2215C192.977 21.2215 191.997 21.5869 191.265 22.3563Z" stroke="#C0BFBD" stroke-opacity="0.2"/>
<path d="M176.602 38.3986V7H180.19V38.3986H176.602Z" fill="black"/>
<path d="M176.102 38.3986V38.8986H176.602H180.19H180.69V38.3986V7V6.5H180.19H176.602H176.102V7V38.3986Z" stroke="#C0BFBD" stroke-opacity="0.2"/>
<path d="M169.49 38.3986L168.099 30.235H161.775L160.429 38.3986H156.84L162.582 7H167.337L173.078 38.3986H169.49ZM164.959 11.5304L162.268 27.3643H167.606L164.959 11.5304Z" fill="black"/>
<path d="M168.997 38.4826L169.068 38.8986H169.49H173.078H173.678L173.57 38.3087L167.828 6.91006L167.753 6.5H167.337H162.582H162.165L162.09 6.91006L156.349 38.3087L156.241 38.8986H156.84H160.429H160.853L160.922 38.48L162.199 30.735H167.677L168.997 38.4826ZM167.015 26.8643H162.86L164.955 14.5386L167.015 26.8643Z" stroke="#C0BFBD" stroke-opacity="0.2"/>
<path d="M135.188 30.9078C135.188 28.067 135.607 26.1382 136.444 25.1215C137.281 24.0749 138.477 23.5516 140.032 23.5516C141.587 23.5516 142.813 24.1496 143.71 25.3458V20.636C143.71 17.7652 142.813 16.3299 141.019 16.3299C139.494 16.3299 138.044 17.212 136.668 18.9763L135.457 16.4644C136.145 15.6271 137.012 14.9244 138.059 14.3562C139.135 13.7881 140.227 13.504 141.333 13.504C145.22 13.504 147.164 16.1355 147.164 21.3985V38.3986H145.056L144.338 35.483C144.009 36.6792 143.456 37.5763 142.679 38.1744C141.931 38.7724 141.079 39.0715 140.122 39.0715C138.507 39.0715 137.281 38.5631 136.444 37.5464C135.607 36.4998 135.188 34.556 135.188 31.7152V30.9078ZM140.84 36.2456C141.707 36.2456 142.38 35.9316 142.858 35.3036C143.366 34.6757 143.651 33.5393 143.71 31.8946V30.6835C143.651 28.9192 143.366 27.6932 142.858 27.0054C142.38 26.3176 141.707 25.9737 140.84 25.9737C139.344 25.9737 138.597 27.3942 138.597 30.235V31.9843C138.597 34.8252 139.344 36.2456 140.84 36.2456Z" fill="black"/>
<path d="M144.224 37.1086L144.571 38.5181L144.664 38.8986H145.056H147.164H147.664V38.3986V21.3985C147.664 18.7201 147.172 16.6205 146.109 15.1806C145.024 13.7123 143.402 13.004 141.333 13.004C140.137 13.004 138.966 13.3118 137.825 13.9141L137.825 13.914L137.82 13.9168C136.722 14.5127 135.803 15.2552 135.071 16.1471L134.868 16.3939L135.007 16.6816L136.218 19.1935L136.567 19.9187L137.062 19.2838C138.389 17.582 139.71 16.8299 141.019 16.8299C141.756 16.8299 142.263 17.1102 142.614 17.6714C142.989 18.2718 143.21 19.2365 143.21 20.636V24.1061C142.338 23.4037 141.272 23.0516 140.032 23.0516C138.354 23.0516 137.003 23.6232 136.056 24.8064C135.569 25.399 135.231 26.2196 135.013 27.2246C134.794 28.2353 134.688 29.4659 134.688 30.9078V31.7152C134.688 33.1573 134.794 34.3912 135.013 35.4089C135.231 36.4228 135.569 37.2528 136.053 37.8587L136.053 37.8588L136.058 37.8642C137.011 39.0221 138.395 39.5715 140.122 39.5715C141.191 39.5715 142.152 39.2348 142.987 38.5678C143.488 38.1817 143.898 37.6922 144.224 37.1086ZM142.469 34.989L142.465 34.9947L142.46 35.0006C142.087 35.491 141.568 35.7456 140.84 35.7456C140.548 35.7456 140.316 35.6775 140.126 35.5568C139.934 35.435 139.755 35.2413 139.6 34.9474C139.283 34.3449 139.097 33.3772 139.097 31.9843V30.235C139.097 28.8421 139.283 27.8745 139.6 27.2719C139.755 26.978 139.934 26.7843 140.126 26.6625C140.316 26.5418 140.548 26.4737 140.84 26.4737C141.55 26.4737 142.067 26.743 142.448 27.2909L142.452 27.2968L142.456 27.3026C142.867 27.8583 143.15 28.946 143.21 30.6921V31.8855C143.15 33.5096 142.867 34.4975 142.469 34.989Z" stroke="#C0BFBD" stroke-opacity="0.2"/>
<path d="M123.335 16.9578V14.1768H125.712L126.923 8.21106H128.986V14.1768H132.171V16.9578H128.986V33.8234C128.986 35.4083 129.42 36.2007 130.287 36.2007C130.855 36.2007 131.453 35.9615 132.081 35.483L132.754 38.1295C131.737 38.7575 130.691 39.0714 129.614 39.0714C126.923 39.0714 125.577 37.0829 125.577 33.1057V16.9578H123.335Z" fill="black"/>
<path d="M122.835 16.9578V17.4578H123.335H125.077V33.1057C125.077 35.135 125.418 36.745 126.172 37.8602C126.951 39.0103 128.126 39.5714 129.614 39.5714C130.794 39.5714 131.93 39.2261 133.017 38.5549L133.329 38.362L133.239 38.0063L132.566 35.3598L132.38 34.6271L131.778 35.0853C131.204 35.5227 130.71 35.7007 130.287 35.7007C130.149 35.7007 130.052 35.6701 129.978 35.6251C129.903 35.5795 129.824 35.502 129.75 35.3664C129.594 35.0801 129.486 34.5866 129.486 33.8234V17.4578H132.171H132.671V16.9578V14.1768V13.6768H132.171H129.486V8.21106V7.71106H128.986H126.923H126.514L126.433 8.11159L125.303 13.6768H123.335H122.835V14.1768V16.9578Z" stroke="#C0BFBD" stroke-opacity="0.2"/>
<path d="M120.154 32.1189C119.945 34.7205 119.332 36.5297 118.315 37.5464C117.298 38.5631 115.818 39.0715 113.874 39.0715C111.96 39.0715 110.435 38.3986 109.299 37.053C108.193 35.6774 107.639 33.2104 107.639 29.6519V22.9236C107.639 19.3651 108.193 16.913 109.299 15.5673C110.435 14.1918 112.02 13.504 114.054 13.504C116.087 13.504 117.627 14.1768 118.674 15.5225C119.72 16.8681 120.244 19.3352 120.244 22.9236V27.7231H111.048V30.2798C111.048 34.2869 112.005 36.2904 113.919 36.2904C114.846 36.2904 115.564 35.9615 116.072 35.3036C116.581 34.6458 116.939 33.4197 117.149 31.6255L120.154 32.1189ZM111.048 22.2956V24.8524H116.79V22.2956C116.79 18.2886 115.848 16.285 113.964 16.285C112.02 16.285 111.048 18.2886 111.048 22.2956Z" fill="black"/>
<path d="M120.652 32.159L120.689 31.7001L120.235 31.6255L117.23 31.1321L116.713 31.0472L116.652 31.5676C116.444 33.3546 116.094 34.4575 115.677 34.9979C115.275 35.518 114.712 35.7904 113.919 35.7904C113.533 35.7904 113.216 35.6911 112.949 35.5048C112.678 35.3154 112.429 35.0157 112.217 34.5723C111.787 33.6721 111.548 32.2595 111.548 30.2798V28.2231H120.244H120.744V27.7231V22.9236C120.744 19.3246 120.226 16.7044 119.068 15.2155C117.908 13.724 116.208 13.004 114.054 13.004C111.895 13.004 110.159 13.7415 108.914 15.2489L108.913 15.2498C107.687 16.7402 107.139 19.3503 107.139 22.9236V29.6519C107.139 33.2271 107.688 35.848 108.909 37.3664L108.909 37.3664L108.917 37.3756C110.157 38.8443 111.828 39.5715 113.874 39.5715C115.903 39.5715 117.529 39.0396 118.668 37.8999C119.815 36.7537 120.44 34.7931 120.652 32.159ZM116.29 24.3524H111.548V22.2956C111.548 20.3165 111.791 18.9051 112.227 18.0059C112.442 17.5631 112.695 17.263 112.972 17.0728C113.244 16.8852 113.569 16.785 113.964 16.785C114.341 16.785 114.65 16.8834 114.911 17.0686C115.177 17.2571 115.422 17.5563 115.631 18.0004C116.055 18.9016 116.29 20.3154 116.29 22.2956V24.3524Z" stroke="#C0BFBD" stroke-opacity="0.2"/>
<path d="M87.4987 38.3986H84V7H89.4723L93.285 28.7548L97.1426 7H102.615V38.3986H99.1162V10.0502L95.3035 31.6704H91.3114L87.4987 10.0502V38.3986Z" fill="black"/>
<path d="M87.4987 38.8986H87.9987V38.3986V15.7645L90.819 31.7572L90.8919 32.1704H91.3114H95.3035H95.7231L95.7959 31.7572L98.6162 15.7645V38.3986V38.8986H99.1162H102.615H103.115V38.3986V7V6.5H102.615H97.1426H96.7234L96.6503 6.9127L93.2879 25.8748L89.9648 6.91369L89.8923 6.5H89.4723H84H83.5V7V38.3986V38.8986H84H87.4987Z" stroke="#C0BFBD" stroke-opacity="0.2"/>
<path d="M40.6719 1.04347L6.10122 5.27032C2.91907 5.65939 0.654628 8.55614 1.04344 11.7404L3.15547 29.0372C3.54428 32.2215 6.43912 34.4874 9.62126 34.0983L44.192 29.8715C47.3741 29.4824 49.6386 26.5857 49.2498 23.4014L47.1377 6.1046C46.7489 2.92034 43.8541 0.6544 40.6719 1.04347Z" fill="#FA9F42"/>
<path d="M48.4108 22.466L19.1143 18.5362C15.9369 18.11 13.0159 20.342 12.5899 23.5215L10.7139 37.5264C10.2879 40.7059 12.5185 43.6289 15.6958 44.0551L44.9924 47.9848C48.1698 48.411 51.0908 46.179 51.5168 42.9995L53.3928 28.9947C53.8187 25.8152 51.5882 22.8922 48.4108 22.466Z" fill="#5941A9"/>
<path d="M9.68194 34.5946L10.6174 34.4803L10.2183 37.46C9.75575 40.9128 12.178 44.0877 15.6294 44.5506L44.9259 48.4803C48.3773 48.9433 51.5498 46.5188 52.0123 43.0659L53.8884 29.061C54.2984 26.0002 52.4415 23.1579 49.6104 22.2294L47.6341 6.044C47.2118 2.58591 44.0678 0.124541 40.6113 0.547166L6.04054 4.77402C2.58402 5.19663 0.124885 8.34297 0.547128 11.801L2.65915 29.0978C3.0814 32.5559 6.22536 35.0173 9.68194 34.5946Z" stroke="#C0BFBD" stroke-opacity="0.2"/>
<path d="M40.6719 1.04347L6.10122 5.27032C2.91907 5.65939 0.654628 8.55614 1.04344 11.7404L3.15547 29.0372C3.54428 32.2215 6.43912 34.4874 9.62126 34.0983L44.192 29.8715C47.3741 29.4824 49.6386 26.5857 49.2498 23.4014L47.1377 6.1046C46.7489 2.92034 43.8541 0.654399 40.6719 1.04347Z" fill="#FA9F42"/>
<path d="M48.4108 22.466L19.1143 18.5362C15.9369 18.11 13.0159 20.342 12.5899 23.5215L10.7139 37.5264C10.2879 40.7058 12.5185 43.6289 15.6958 44.0551L44.9924 47.9848C48.1698 48.411 51.0908 46.179 51.5168 42.9995L53.3928 28.9947C53.8187 25.8152 51.5882 22.8922 48.4108 22.466Z" fill="#5941A9"/>
<path d="M9.68194 34.5946L10.6174 34.4803L10.2183 37.46C9.75575 40.9128 12.178 44.0877 15.6294 44.5506L44.9259 48.4803C48.3773 48.9433 51.5498 46.5188 52.0123 43.0659L53.8884 29.061C54.2984 26.0002 52.4415 23.1578 49.6104 22.2294L47.6341 6.044C47.2118 2.58591 44.0678 0.124541 40.6113 0.547166L6.04054 4.77402C2.58402 5.19663 0.124885 8.34297 0.547128 11.801L2.65915 29.0978C3.0814 32.5559 6.22536 35.0173 9.68194 34.5946Z" stroke="#C0BFBD" stroke-opacity="0.3"/>
</svg>
