<svg width="288" height="50" viewBox="0 0 288 50" fill="none" xmlns="http://www.w3.org/2000/svg">
<path d="M286.143 38.8717C286.029 40.2898 285.695 41.2759 285.141 41.8302C284.587 42.3844 283.78 42.6615 282.72 42.6615C281.677 42.6615 280.846 42.2947 280.226 41.5612C279.623 40.8114 279.322 39.4666 279.322 37.5269V33.8593C279.322 31.9196 279.623 30.583 280.226 29.8495C280.846 29.0997 281.71 28.7248 282.818 28.7248C283.927 28.7248 284.766 29.0915 285.337 29.825C285.907 30.5586 286.192 31.9033 286.192 33.8593V36.4755H281.18V37.8692C281.18 40.0534 281.702 41.1455 282.745 41.1455C283.25 41.1455 283.641 40.9662 283.918 40.6076C284.196 40.249 284.391 39.5807 284.505 38.6027L286.143 38.8717ZM281.18 33.517V34.9107H284.31V33.517C284.31 31.3328 283.796 30.2407 282.769 30.2407C281.71 30.2407 281.18 31.3328 281.18 33.517Z" fill="black"/>
<path d="M286.642 38.9118L286.679 38.4529L286.224 38.3783L284.586 38.1093L284.069 38.0244L284.009 38.5448C283.895 39.5157 283.709 40.0608 283.523 40.3019C283.352 40.5227 283.116 40.6455 282.745 40.6455C282.576 40.6455 282.45 40.6032 282.346 40.5308C282.238 40.4553 282.125 40.3265 282.022 40.111C281.81 39.6665 281.68 38.9374 281.68 37.8692V36.9755H286.192H286.692V36.4755V33.8593C286.692 31.8927 286.413 30.3948 285.731 29.5181L285.337 29.825L285.731 29.5181C285.047 28.6387 284.048 28.2248 282.818 28.2248C281.584 28.2248 280.569 28.6494 279.841 29.5311L279.841 29.5311L279.84 29.5319C279.118 30.4102 278.822 31.9048 278.822 33.8593V37.5269C278.822 39.4834 279.119 40.9819 279.837 41.8746L279.837 41.8747L279.844 41.8838C280.568 42.7404 281.544 43.1615 282.72 43.1615C283.865 43.1615 284.817 42.8609 285.495 42.1837C286.178 41.5 286.525 40.3624 286.642 38.9118ZM283.81 34.4107H281.68V33.517C281.68 32.4494 281.812 31.7215 282.027 31.278C282.131 31.0631 282.246 30.9338 282.357 30.8576C282.464 30.7839 282.595 30.7407 282.769 30.7407C282.932 30.7407 283.053 30.7821 283.154 30.8534C283.259 30.928 283.37 31.0563 283.472 31.2725C283.682 31.718 283.81 32.4483 283.81 33.517V34.4107Z" stroke="#C0BFBD" stroke-opacity="0.2"/>
<path d="M272.065 29.0915L273.948 39.3362L275.855 29.0915H277.738L274.975 42.2947H272.945L270.158 29.0915H272.065Z" fill="black"/>
<path d="M272.557 29.0012L272.482 28.5915H272.065H270.158H269.541L269.669 29.1948L272.456 42.398L272.54 42.7947H272.945H274.975H275.381L275.464 42.3971L278.227 29.1939L278.353 28.5915H277.738H275.855H275.439L275.363 29L273.951 36.5871L272.557 29.0012Z" stroke="#C0BFBD" stroke-opacity="0.2"/>
<path d="M266.341 42.2947V29.0915H268.223V42.2947H266.341ZM266.267 26.4998V24.2015H268.297V26.4998H266.267Z" fill="black"/>
<path d="M265.841 42.2947V42.7947H266.341H268.223H268.723V42.2947V29.0915V28.5915H268.223H266.341H265.841V29.0915V42.2947ZM265.767 26.4998V26.9998H266.267H268.297H268.797V26.4998V24.2015V23.7015H268.297H266.267H265.767V24.2015V26.4998Z" stroke="#C0BFBD" stroke-opacity="0.2"/>
<path d="M259.439 30.6075V29.0915H260.735L261.395 25.8396H262.52V29.0915H264.256V30.6075H262.52V39.8008C262.52 40.6647 262.756 41.0967 263.229 41.0967C263.539 41.0967 263.865 40.9663 264.207 40.7054L264.574 42.148C264.02 42.4903 263.449 42.6615 262.862 42.6615C261.395 42.6615 260.662 41.5775 260.662 39.4096V30.6075H259.439Z" fill="black"/>
<path d="M258.939 30.6075V31.1075H259.439H260.162V39.4096C260.162 40.5343 260.349 41.4658 260.798 42.1287C261.27 42.8265 261.986 43.1615 262.862 43.1615C263.552 43.1615 264.212 42.959 264.837 42.5734L265.149 42.3805L265.058 42.0248L264.692 40.5823L264.505 39.8496L263.904 40.3077C263.616 40.5275 263.394 40.5967 263.229 40.5967C263.208 40.5967 263.196 40.5943 263.189 40.5926C263.183 40.5911 263.181 40.5896 263.179 40.5887L263.179 40.5886C263.178 40.5878 263.16 40.5775 263.136 40.5327C263.078 40.4267 263.02 40.2035 263.02 39.8008V31.1075H264.256H264.756V30.6075V29.0915V28.5915H264.256H263.02V25.8396V25.3396H262.52H261.395H260.987L260.905 25.7402L260.326 28.5915H259.439H258.939V29.0915V30.6075Z" stroke="#C0BFBD" stroke-opacity="0.2"/>
<path d="M251.049 38.2115C251.049 36.663 251.277 35.6116 251.733 35.0574C252.19 34.4869 252.842 34.2017 253.689 34.2017C254.537 34.2017 255.205 34.5277 255.694 35.1797V32.6124C255.694 31.0476 255.205 30.2651 254.227 30.2651C253.396 30.2651 252.606 30.746 251.856 31.7077L251.196 30.3385C251.57 29.8821 252.043 29.499 252.614 29.1893C253.2 28.8796 253.795 28.7248 254.399 28.7248C256.518 28.7248 257.577 30.1592 257.577 33.028V42.2947H256.428L256.037 40.7054C255.857 41.3574 255.556 41.8465 255.132 42.1725C254.725 42.4985 254.26 42.6615 253.738 42.6615C252.858 42.6615 252.19 42.3844 251.733 41.8302C251.277 41.2596 251.049 40.2001 251.049 38.6516V38.2115ZM254.13 41.1211C254.602 41.1211 254.969 40.9499 255.23 40.6076C255.507 40.2653 255.662 39.6459 255.694 38.7494V38.0893C255.662 37.1275 255.507 36.4592 255.23 36.0843C254.969 35.7094 254.602 35.522 254.13 35.522C253.315 35.522 252.907 36.2962 252.907 37.8448V38.7983C252.907 40.3468 253.315 41.1211 254.13 41.1211Z" fill="black"/>
<path d="M255.194 34.0751C254.755 33.8264 254.251 33.7017 253.689 33.7017C252.719 33.7017 251.912 34.0353 251.345 34.7424C251.049 35.1036 250.854 35.5891 250.731 36.1555C250.607 36.7276 250.549 37.4157 250.549 38.2115V38.6516C250.549 39.4475 250.607 40.1373 250.731 40.7129C250.854 41.2847 251.049 41.7747 251.343 42.1425L251.343 42.1425L251.347 42.148C251.92 42.8434 252.746 43.1615 253.738 43.1615C254.372 43.1615 254.945 42.9608 255.441 42.5658C255.602 42.4413 255.747 42.2996 255.875 42.1421L255.942 42.4142L256.036 42.7947H256.428H257.577H258.077V42.2947V33.028C258.077 31.5467 257.806 30.345 257.185 29.5035C256.542 28.6338 255.583 28.2248 254.399 28.2248C253.706 28.2248 253.032 28.4033 252.38 28.7471L252.38 28.7471L252.375 28.7499C251.754 29.0873 251.229 29.5102 250.809 30.0211L250.606 30.2679L250.745 30.5556L251.405 31.9249L251.755 32.6501L252.25 32.0152C252.951 31.116 253.612 30.7651 254.227 30.7651C254.556 30.7651 254.757 30.8822 254.904 31.117C255.075 31.3909 255.194 31.8659 255.194 32.6124V34.0751ZM254.841 40.293L254.837 40.2988L254.832 40.3046C254.676 40.5094 254.464 40.6211 254.13 40.6211C254.008 40.6211 253.925 40.5934 253.862 40.5535C253.797 40.5124 253.725 40.4399 253.655 40.3075C253.508 40.0281 253.407 39.545 253.407 38.7983V37.8448C253.407 37.0981 253.508 36.615 253.655 36.3355C253.725 36.2032 253.797 36.1307 253.862 36.0896C253.925 36.0497 254.008 36.022 254.13 36.022C254.445 36.022 254.656 36.1348 254.819 36.3699L254.823 36.3758L254.828 36.3815C255.007 36.6245 255.162 37.1547 255.194 38.0978V38.7402C255.162 39.6158 255.008 40.0869 254.841 40.293Z" stroke="#C0BFBD" stroke-opacity="0.2"/>
<path d="M243.63 42.2947H241.747V29.0915H242.896L243.385 31.1943C243.727 29.5479 244.583 28.7248 245.952 28.7248C246.8 28.7248 247.444 29.0997 247.884 29.8495C248.34 30.5993 248.569 31.9685 248.569 33.9571V42.2947H246.686V33.297C246.686 31.2595 246.287 30.2407 245.488 30.2407C244.282 30.2407 243.662 31.9848 243.63 35.4731V42.2947Z" fill="black"/>
<path d="M243.63 42.7947H244.13V42.2947V35.4754C244.146 33.748 244.309 32.5079 244.59 31.7161C244.873 30.9184 245.204 30.7407 245.488 30.7407C245.571 30.7407 245.63 30.7635 245.688 30.8126C245.755 30.8697 245.84 30.9809 245.921 31.1873C246.086 31.608 246.186 32.2963 246.186 33.297V42.2947V42.7947H246.686H248.569H249.069V42.2947V33.9571C249.069 32.946 249.011 32.0772 248.891 31.3566C248.772 30.6432 248.587 30.0443 248.313 29.593C247.786 28.6973 246.982 28.2248 245.952 28.2248C245.16 28.2248 244.472 28.4669 243.937 28.9818C243.776 29.137 243.633 29.3128 243.506 29.5075L243.383 28.9783L243.293 28.5915H242.896H241.747H241.247V29.0915V42.2947V42.7947H241.747H243.63Z" stroke="#C0BFBD" stroke-opacity="0.2"/>
<path d="M239.527 28.7248L240.016 28.7492L239.869 30.8275C239.641 30.7134 239.421 30.6564 239.209 30.6564C237.97 30.6564 237.342 31.9441 237.326 34.5195V42.2947H235.443V29.0915H236.593L237.13 31.341C237.456 29.5968 238.255 28.7248 239.527 28.7248Z" fill="black"/>
<path d="M239.552 28.2254L239.539 28.2248H239.527C238.762 28.2248 238.107 28.4933 237.605 29.0411C237.462 29.1977 237.334 29.3738 237.221 29.5679L237.079 28.9752L236.987 28.5915H236.593H235.443H234.943V29.0915V42.2947V42.7947H235.443H237.326H237.826V42.2947V34.5211C237.834 33.2585 237.994 32.3834 238.258 31.8412C238.387 31.5766 238.532 31.4102 238.678 31.3093C238.82 31.2113 238.991 31.1564 239.209 31.1564C239.329 31.1564 239.472 31.1883 239.645 31.2747L240.315 31.6095L240.368 30.8627L240.514 28.7844L240.55 28.2753L240.041 28.2499L239.552 28.2254Z" stroke="#C0BFBD" stroke-opacity="0.2"/>
<path d="M232.658 38.8717C232.544 40.2898 232.21 41.2759 231.656 41.8302C231.102 42.3844 230.295 42.6615 229.235 42.6615C228.192 42.6615 227.361 42.2947 226.741 41.5612C226.138 40.8114 225.837 39.4666 225.837 37.5269V33.8593C225.837 31.9196 226.138 30.583 226.741 29.8495C227.361 29.0997 228.225 28.7248 229.333 28.7248C230.441 28.7248 231.281 29.0915 231.851 29.825C232.422 30.5586 232.707 31.9033 232.707 33.8593V36.4755H227.695V37.8692C227.695 40.0534 228.217 41.1455 229.26 41.1455C229.765 41.1455 230.156 40.9662 230.433 40.6076C230.71 40.249 230.906 39.5807 231.02 38.6027L232.658 38.8717ZM227.695 33.517V34.9107H230.825V33.517C230.825 31.3328 230.311 30.2407 229.284 30.2407C228.225 30.2407 227.695 31.3328 227.695 33.517Z" fill="black"/>
<path d="M233.157 38.9118L233.194 38.4529L232.739 38.3783L231.101 38.1093L230.584 38.0244L230.524 38.5448C230.41 39.5157 230.224 40.0608 230.038 40.3019C229.867 40.5227 229.631 40.6455 229.26 40.6455C229.091 40.6455 228.965 40.6032 228.861 40.5308C228.753 40.4553 228.64 40.3265 228.537 40.111C228.325 39.6665 228.195 38.9374 228.195 37.8692V36.9755H232.707H233.207V36.4755V33.8593C233.207 31.8927 232.928 30.3948 232.246 29.5181L231.851 29.825L232.246 29.5181C231.562 28.6387 230.562 28.2248 229.333 28.2248C228.099 28.2248 227.084 28.6494 226.356 29.5311L226.356 29.5311L226.355 29.5319C225.633 30.4102 225.337 31.9048 225.337 33.8593V37.5269C225.337 39.4834 225.634 40.9819 226.352 41.8746L226.352 41.8747L226.359 41.8838C227.083 42.7404 228.059 43.1615 229.235 43.1615C230.379 43.1615 231.332 42.8609 232.009 42.1837C232.693 41.5 233.04 40.3624 233.157 38.9118ZM230.325 34.4107H228.195V33.517C228.195 32.4494 228.327 31.7215 228.542 31.278C228.646 31.0631 228.761 30.9338 228.872 30.8576C228.979 30.7839 229.11 30.7407 229.284 30.7407C229.447 30.7407 229.568 30.7821 229.669 30.8534C229.774 30.928 229.885 31.0563 229.987 31.2725C230.196 31.718 230.325 32.4483 230.325 33.517V34.4107Z" stroke="#C0BFBD" stroke-opacity="0.2"/>
<path d="M219.278 30.6075V29.0915H220.574L221.234 25.8396H222.359V29.0915H224.095V30.6075H222.359V39.8008C222.359 40.6647 222.595 41.0967 223.068 41.0967C223.377 41.0967 223.703 40.9663 224.046 40.7054L224.412 42.148C223.858 42.4903 223.288 42.6615 222.701 42.6615C221.234 42.6615 220.5 41.5775 220.5 39.4096V30.6075H219.278Z" fill="black"/>
<path d="M218.778 30.6075V31.1075H219.278H220V39.4096C220 40.5343 220.188 41.4658 220.636 42.1287C221.109 42.8265 221.825 43.1615 222.701 43.1615C223.39 43.1615 224.051 42.959 224.675 42.5734L224.987 42.3805L224.897 42.0248L224.53 40.5823L224.344 39.8496L223.743 40.3077C223.454 40.5275 223.232 40.5967 223.068 40.5967C223.047 40.5967 223.034 40.5943 223.028 40.5926C223.022 40.5911 223.019 40.5896 223.018 40.5887L223.017 40.5886C223.016 40.5878 222.999 40.5775 222.974 40.5327C222.916 40.4267 222.859 40.2035 222.859 39.8008V31.1075H224.095H224.595V30.6075V29.0915V28.5915H224.095H222.859V25.8396V25.3396H222.359H221.234H220.825L220.744 25.7402L220.165 28.5915H219.278H218.778V29.0915V30.6075Z" stroke="#C0BFBD" stroke-opacity="0.2"/>
<path d="M215.363 42.2947V24.2015H217.245V42.2947H215.363Z" fill="black"/>
<path d="M214.863 42.2947V42.7947H215.363H217.245H217.745V42.2947V24.2015V23.7015H217.245H215.363H214.863V24.2015V42.2947Z" stroke="#C0BFBD" stroke-opacity="0.2"/>
<path d="M205.921 38.2115C205.921 36.663 206.149 35.6116 206.605 35.0574C207.062 34.4869 207.714 34.2017 208.561 34.2017C209.409 34.2017 210.077 34.5277 210.566 35.1797V32.6124C210.566 31.0476 210.077 30.2651 209.099 30.2651C208.268 30.2651 207.477 30.746 206.728 31.7077L206.067 30.3385C206.442 29.8821 206.915 29.499 207.486 29.1893C208.072 28.8796 208.667 28.7248 209.27 28.7248C211.389 28.7248 212.449 30.1592 212.449 33.028V42.2947H211.3L210.909 40.7054C210.729 41.3574 210.428 41.8465 210.004 42.1725C209.596 42.4985 209.132 42.6615 208.61 42.6615C207.73 42.6615 207.062 42.3844 206.605 41.8302C206.149 41.2596 205.921 40.2001 205.921 38.6516V38.2115ZM209.002 41.1211C209.474 41.1211 209.841 40.9499 210.102 40.6076C210.379 40.2653 210.534 39.6459 210.566 38.7494V38.0893C210.534 37.1275 210.379 36.4592 210.102 36.0843C209.841 35.7094 209.474 35.522 209.002 35.522C208.187 35.522 207.779 36.2962 207.779 37.8448V38.7983C207.779 40.3468 208.187 41.1211 209.002 41.1211Z" fill="black"/>
<path d="M210.066 34.0751C209.627 33.8264 209.123 33.7017 208.561 33.7017C207.59 33.7017 206.784 34.0353 206.217 34.7424C205.921 35.1036 205.726 35.5891 205.603 36.1555C205.479 36.7276 205.421 37.4157 205.421 38.2115V38.6516C205.421 39.4475 205.479 40.1373 205.603 40.7129C205.726 41.2847 205.921 41.7747 206.215 42.1425L206.215 42.1425L206.219 42.148C206.792 42.8434 207.618 43.1615 208.61 43.1615C209.244 43.1615 209.817 42.9608 210.313 42.5658C210.474 42.4413 210.619 42.2996 210.747 42.1421L210.814 42.4142L210.908 42.7947H211.3H212.449H212.949V42.2947V33.028C212.949 31.5467 212.678 30.345 212.057 29.5035C211.414 28.6338 210.455 28.2248 209.27 28.2248C208.578 28.2248 207.904 28.4033 207.252 28.7471L207.252 28.7471L207.247 28.7499C206.625 29.0873 206.101 29.5102 205.681 30.0211L205.478 30.2679L205.617 30.5556L206.277 31.9249L206.627 32.6501L207.122 32.0152C207.823 31.116 208.484 30.7651 209.099 30.7651C209.428 30.7651 209.629 30.8822 209.776 31.117C209.947 31.3909 210.066 31.8659 210.066 32.6124V34.0751ZM209.713 40.293L209.709 40.2988L209.704 40.3046C209.548 40.5094 209.336 40.6211 209.002 40.6211C208.88 40.6211 208.797 40.5934 208.734 40.5535C208.669 40.5124 208.597 40.4399 208.527 40.3075C208.38 40.0281 208.279 39.545 208.279 38.7983V37.8448C208.279 37.0981 208.38 36.615 208.527 36.3355C208.597 36.2032 208.669 36.1307 208.734 36.0896C208.797 36.0497 208.88 36.022 209.002 36.022C209.317 36.022 209.528 36.1348 209.691 36.3699L209.695 36.3758L209.7 36.3815C209.879 36.6245 210.034 37.1547 210.066 38.0978V38.7402C210.034 39.6158 209.88 40.0869 209.713 40.293Z" stroke="#C0BFBD" stroke-opacity="0.2"/>
<path d="M191.344 42.2947V9.3808H195.106V42.2947H191.344Z" fill="black"/>
<path d="M190.844 42.2947V42.7947H191.344H195.106H195.606V42.2947V9.3808V8.8808H195.106H191.344H190.844V9.3808V42.2947Z" stroke="#C0BFBD" stroke-opacity="0.2"/>
<path d="M183.889 42.2947L182.431 33.7371H175.802L174.391 42.2947H170.629L176.648 9.3808H181.632L187.651 42.2947H183.889ZM179.14 14.1298L176.319 30.7278H181.914L179.14 14.1298Z" fill="black"/>
<path d="M183.396 42.3787L183.467 42.7947H183.889H187.651H188.25L188.142 42.2048L182.124 9.29086L182.049 8.8808H181.632H176.648H176.231L176.156 9.29086L170.138 42.2048L170.03 42.7947H170.629H174.391H174.815L174.884 42.376L176.226 34.2371H182.009L183.396 42.3787ZM181.324 30.2278H176.911L179.136 17.138L181.324 30.2278Z" stroke="#C0BFBD" stroke-opacity="0.2"/>
<path d="M152.143 43C150.513 43 149.244 42.2947 148.335 40.8841C147.457 39.4422 147.018 36.8561 147.018 33.1258V26.0728C147.018 22.3426 147.457 19.7722 148.335 18.3616C149.244 16.9196 150.513 16.1987 152.143 16.1987C154.4 16.1987 155.936 17.5466 156.751 20.2424V7.5H160.184V42.2947H157.974L156.845 37.4046C156.218 41.1349 154.651 43 152.143 43ZM156.093 36.3232C156.438 34.6932 156.61 32.4519 156.61 29.5993C156.61 26.7468 156.422 24.5212 156.046 22.9225C155.701 21.2925 155.278 20.2581 154.776 19.8192C154.306 19.349 153.679 19.1139 152.896 19.1139C151.297 19.1139 150.498 21.0574 150.498 24.9444V34.2543C150.498 36.4172 150.717 37.9375 151.156 38.8152C151.595 39.6616 152.206 40.0848 152.99 40.0848C153.773 40.0848 154.4 39.8653 154.87 39.4265C155.341 38.9563 155.748 37.9219 156.093 36.3232Z" fill="black"/>
<path d="M147.908 41.1441L147.907 41.1442L147.914 41.155C148.912 42.7033 150.337 43.5 152.143 43.5C153.54 43.5 154.7 42.9722 155.582 41.9228C156.102 41.3045 156.515 40.5167 156.832 39.572L157.487 42.4071L157.576 42.7947H157.974H160.184H160.684V42.2947V7.5V7H160.184H156.751H156.251V7.5V17.9211C155.977 17.5034 155.666 17.1398 155.318 16.8338C154.449 16.0712 153.379 15.6987 152.143 15.6987C150.332 15.6987 148.907 16.5158 147.912 18.0949L147.912 18.0949L147.91 18.0974C147.423 18.88 147.079 19.9465 146.854 21.2632C146.629 22.5852 146.518 24.1905 146.518 26.0728V33.1258C146.518 36.8613 146.951 39.5733 147.908 41.1441ZM155.557 23.026L155.557 23.026L155.559 23.037C155.922 24.5805 156.11 26.7616 156.11 29.5993C156.11 32.4374 155.938 34.6386 155.604 36.2188C155.435 37.0023 155.254 37.6318 155.063 38.1148C154.872 38.5996 154.686 38.9012 154.523 39.0671C154.165 39.3977 153.672 39.5848 152.99 39.5848C152.438 39.5848 151.976 39.3096 151.601 38.5884C151.22 37.8233 150.998 36.4084 150.998 34.2543V24.9444C150.998 23.0202 151.198 21.6417 151.559 20.7617C151.738 20.3265 151.946 20.0414 152.161 19.8668C152.369 19.6987 152.606 19.6139 152.896 19.6139C153.572 19.6139 154.063 19.8129 154.423 20.1728L154.435 20.1845L154.447 20.1955C154.613 20.3403 154.808 20.6256 155.007 21.1135C155.203 21.593 155.388 22.2276 155.557 23.026Z" stroke="#C0BFBD" stroke-opacity="0.2"/>
<path d="M132.562 42.2947H128.942V16.904H131.152L132.092 20.9477C132.75 17.7817 134.396 16.1987 137.029 16.1987C138.659 16.1987 139.897 16.9196 140.744 18.3616C141.621 19.8035 142.06 22.4366 142.06 26.2609V42.2947H138.44V24.9914C138.44 21.0731 137.672 19.1139 136.136 19.1139C133.816 19.1139 132.625 22.468 132.562 29.1762V42.2947Z" fill="black"/>
<path d="M132.562 42.7947H133.062V42.2947V29.1785C133.094 25.841 133.407 23.3935 133.974 21.7968C134.543 20.1941 135.295 19.6139 136.136 19.6139C136.403 19.6139 136.624 19.6954 136.82 19.8621C137.025 20.0368 137.225 20.3243 137.398 20.7658C137.748 21.6567 137.94 23.0503 137.94 24.9914V42.2947V42.7947H138.44H142.06H142.56V42.2947V26.2609C142.56 24.332 142.45 22.6882 142.224 21.3357C142 19.9905 141.657 18.9026 141.173 18.105C140.24 16.5173 138.841 15.6987 137.029 15.6987C135.605 15.6987 134.404 16.1307 133.473 17.0256C132.928 17.5499 132.492 18.2176 132.156 19.0164L131.639 16.7907L131.549 16.404H131.152H128.942H128.442V16.904V42.2947V42.7947H128.942H132.562Z" stroke="#C0BFBD" stroke-opacity="0.2"/>
<path d="M119.391 42.2947V16.904H123.011V42.2947H119.391ZM119.25 11.9199V7.5H123.153V11.9199H119.25Z" fill="black"/>
<path d="M118.891 42.2947V42.7947H119.391H123.011H123.511V42.2947V16.904V16.404H123.011H119.391H118.891V16.904V42.2947ZM118.75 11.9199V12.4199H119.25H123.153H123.653V11.9199V7.5V7H123.153H119.25H118.75V7.5V11.9199Z" stroke="#C0BFBD" stroke-opacity="0.2"/>
<path d="M104.277 42.2947H100.656V7.5H104.089V19.9132C104.841 17.4369 106.393 16.1987 108.744 16.1987C110.374 16.1987 111.612 16.9196 112.458 18.3616C113.336 19.8035 113.775 22.4366 113.775 26.2609V42.2947H110.154V24.9914C110.154 21.0731 109.386 19.1139 107.85 19.1139C105.531 19.1139 104.34 22.468 104.277 29.1762V42.2947Z" fill="black"/>
<path d="M104.277 42.7947H104.777V42.2947V29.1785C104.808 25.8411 105.121 23.3936 105.688 21.7968C106.258 20.1941 107.01 19.6139 107.85 19.6139C108.118 19.6139 108.338 19.6955 108.535 19.8622C108.74 20.0368 108.94 20.3243 109.113 20.7658C109.462 21.6567 109.654 23.0503 109.654 24.9914V42.2947V42.7947H110.154H113.775H114.275V42.2947V26.2609C114.275 24.332 114.164 22.6882 113.939 21.3357C113.715 19.9905 113.372 18.9026 112.888 18.1051C111.954 16.5173 110.555 15.6987 108.744 15.6987C107.477 15.6987 106.385 16.0343 105.505 16.7365C105.161 17.0109 104.856 17.336 104.589 17.7086V7.5V7H104.089H100.656H100.156V7.5V42.2947V42.7947H100.656H104.277Z" stroke="#C0BFBD" stroke-opacity="0.2"/>
<path d="M83.575 42.2947V9.3808H89.4054C91.7564 9.3808 93.5588 10.1488 94.8127 11.6848C96.0979 13.1894 96.7405 15.9322 96.7405 19.9132V20.1483C96.7405 24.1294 96.0979 26.8722 94.8127 28.3768C93.5588 29.8815 91.7564 30.6338 89.4054 30.6338H87.3365V42.2947H83.575ZM93.0259 20.7596V19.302C93.0259 14.694 91.8191 12.3901 89.4054 12.3901H87.3365V27.6715H89.4054C91.8191 27.6715 93.0259 25.3676 93.0259 20.7596Z" fill="black"/>
<path d="M83.075 42.2947V42.7947H83.575H87.3365H87.8365V42.2947V31.1338H89.4054C91.8708 31.1338 93.8269 30.3393 95.1949 28.6993C96.6033 27.0484 97.2405 24.1445 97.2405 20.1483V19.9132C97.2405 15.9187 96.6038 13.0155 95.1965 11.3643C93.8299 9.69284 91.8735 8.8808 89.4054 8.8808H83.575H83.075V9.3808V42.2947ZM92.5259 19.302V20.7596C92.5259 23.0362 92.2251 24.6669 91.6779 25.7115C91.4082 26.2265 91.0856 26.5857 90.721 26.8177C90.3583 27.0485 89.926 27.1715 89.4054 27.1715H87.8365V12.8901H89.4054C89.926 12.8901 90.3583 13.0131 90.721 13.2439C91.0856 13.4759 91.4082 13.8351 91.6779 14.3501C92.2251 15.3947 92.5259 17.0254 92.5259 19.302Z" stroke="#C0BFBD" stroke-opacity="0.2"/>
<path d="M40.6719 1.04347L6.10122 5.27032C2.91907 5.65939 0.654628 8.55614 1.04344 11.7404L3.15547 29.0372C3.54428 32.2215 6.43912 34.4874 9.62126 34.0983L44.192 29.8715C47.3741 29.4824 49.6386 26.5857 49.2498 23.4014L47.1377 6.1046C46.7489 2.92034 43.8541 0.6544 40.6719 1.04347Z" fill="#FA9F42"/>
<path d="M48.4108 22.466L19.1143 18.5362C15.9369 18.11 13.0159 20.342 12.5899 23.5215L10.7139 37.5264C10.2879 40.7059 12.5185 43.6289 15.6958 44.0551L44.9924 47.9848C48.1698 48.411 51.0908 46.179 51.5168 42.9995L53.3928 28.9947C53.8187 25.8152 51.5882 22.8922 48.4108 22.466Z" fill="#5941A9"/>
<path d="M9.68194 34.5946L10.6174 34.4803L10.2183 37.46C9.75575 40.9128 12.178 44.0877 15.6294 44.5506L44.9259 48.4803C48.3773 48.9433 51.5498 46.5188 52.0123 43.0659L53.8884 29.061C54.2984 26.0002 52.4415 23.1579 49.6104 22.2294L47.6341 6.044C47.2118 2.58591 44.0678 0.124541 40.6113 0.547166L6.04054 4.77402C2.58402 5.19663 0.124885 8.34297 0.547128 11.801L2.65915 29.0978C3.0814 32.5559 6.22536 35.0173 9.68194 34.5946Z" stroke="#C0BFBD" stroke-opacity="0.2"/>
<path d="M40.6719 1.04347L6.10122 5.27032C2.91907 5.65939 0.654628 8.55614 1.04344 11.7404L3.15547 29.0372C3.54428 32.2215 6.43912 34.4874 9.62126 34.0983L44.192 29.8715C47.3741 29.4824 49.6386 26.5857 49.2498 23.4014L47.1377 6.1046C46.7489 2.92034 43.8541 0.654399 40.6719 1.04347Z" fill="#FA9F42"/>
<path d="M48.4108 22.466L19.1143 18.5362C15.9369 18.11 13.0159 20.342 12.5899 23.5215L10.7139 37.5264C10.2879 40.7058 12.5185 43.6289 15.6958 44.0551L44.9924 47.9848C48.1698 48.411 51.0908 46.179 51.5168 42.9995L53.3928 28.9947C53.8187 25.8152 51.5882 22.8922 48.4108 22.466Z" fill="#5941A9"/>
<path d="M9.68194 34.5946L10.6174 34.4803L10.2183 37.46C9.75575 40.9128 12.178 44.0877 15.6294 44.5506L44.9259 48.4803C48.3773 48.9433 51.5498 46.5188 52.0123 43.0659L53.8884 29.061C54.2984 26.0002 52.4415 23.1578 49.6104 22.2294L47.6341 6.044C47.2118 2.58591 44.0678 0.124541 40.6113 0.547166L6.04054 4.77402C2.58402 5.19663 0.124885 8.34297 0.547128 11.801L2.65915 29.0978C3.0814 32.5559 6.22536 35.0173 9.68194 34.5946Z" stroke="#C0BFBD" stroke-opacity="0.3"/>
</svg>
